<svg xmlns="http://www.w3.org/2000/svg" fill="none" viewBox="0 0 201 202"><mask id="a" width="201" height="202" x="0" y="0" maskUnits="userSpaceOnUse" style="mask-type:alpha"><path fill="#D9D9D9" d="M0 .5h201v201H0z"/></mask><g mask="url(#a)"><path fill="#FAFAFA" d="M50.25 174c-13.86 0-25.7-4.8-35.52-14.37C4.91 150.05 0 138.33 0 124.5a50.53 50.53 0 0 1 10.74-31.71c7.15-9.28 16.52-15.21 28.09-17.8C42.63 61 50.25 49.67 61.67 41a62.56 62.56 0 0 1 38.83-13c17.82 0 32.93 6.2 45.34 18.6 12.4 12.39 18.62 27.48 18.62 45.27 10.5 1.22 19.22 5.75 26.15 13.58s10.39 17 10.39 27.49c0 11.4-4 21.1-12 29.08-7.99 7.99-17.7 11.98-29.11 11.98H50.25Z"/></g></svg>