<svg xmlns="http://www.w3.org/2000/svg" fill="none" viewBox="0 0 201 201"><mask id="a" width="201" height="201" x="0" y="0" maskUnits="userSpaceOnUse" style="mask-type:alpha"><path fill="#D9D9D9" d="M0 0h201v201H0z"/></mask><g mask="url(#a)"><path fill="#FAFAFA" d="M10.97 125.37c-1.32 0-2.48-.5-3.48-1.5a4.77 4.77 0 0 1 0-6.96 4.77 4.77 0 0 1 6.97 0 4.77 4.77 0 0 1 0 6.97c-1 1-2.16 1.49-3.49 1.49Zm0-39.8c-1.32 0-2.48-.49-3.48-1.48a4.77 4.77 0 0 1 0-6.97 4.77 4.77 0 0 1 6.97 0 4.77 4.77 0 0 1 0 6.97c-1 1-2.16 1.49-3.49 1.49Zm29.85 84.56a9.63 9.63 0 0 1-7.1-2.86 9.63 9.63 0 0 1-2.85-7.09c0-2.81.95-5.18 2.86-7.08a9.62 9.62 0 0 1 7.09-2.86c2.81 0 5.18.95 7.08 2.86a9.62 9.62 0 0 1 2.86 7.08c0 2.82-.95 5.19-2.86 7.1a9.63 9.63 0 0 1-7.08 2.85Zm0-39.79a9.62 9.62 0 0 1-7.1-2.86 9.62 9.62 0 0 1-2.85-7.09c0-2.81.95-5.18 2.86-7.08a9.63 9.63 0 0 1 7.09-2.86c2.81 0 5.18.95 7.08 2.86a9.63 9.63 0 0 1 2.86 7.08c0 2.82-.95 5.19-2.86 7.1a9.62 9.62 0 0 1-7.08 2.85Zm0-39.79a9.63 9.63 0 0 1-7.1-2.86 9.62 9.62 0 0 1-2.85-7.08c0-2.82.95-5.19 2.86-7.1a9.62 9.62 0 0 1 7.09-2.85c2.81 0 5.18.95 7.08 2.86a9.62 9.62 0 0 1 2.86 7.09c0 2.81-.95 5.18-2.86 7.08a9.63 9.63 0 0 1-7.08 2.86Zm0-39.79a9.62 9.62 0 0 1-7.1-2.86 9.62 9.62 0 0 1-2.85-7.08c0-2.82.95-5.19 2.86-7.1a9.62 9.62 0 0 1 7.09-2.85c2.81 0 5.18.95 7.08 2.86a9.62 9.62 0 0 1 2.86 7.09c0 2.81-.95 5.18-2.86 7.08a9.62 9.62 0 0 1-7.08 2.86Zm39.79 84.56c-4.15 0-7.67-1.45-10.57-4.36a14.39 14.39 0 0 1-4.36-10.57c0-4.14 1.45-7.66 4.36-10.56 2.9-2.9 6.42-4.36 10.57-4.36 4.14 0 7.66 1.45 10.56 4.36 2.9 2.9 4.36 6.42 4.36 10.56 0 4.15-1.45 7.67-4.36 10.57a14.39 14.39 0 0 1-10.56 4.36Zm0-39.8c-4.15 0-7.67-1.44-10.57-4.35a14.39 14.39 0 0 1-4.36-10.56c0-4.15 1.45-7.67 4.36-10.57 2.9-2.9 6.42-4.36 10.57-4.36 4.14 0 7.66 1.45 10.56 4.36 2.9 2.9 4.36 6.42 4.36 10.57 0 4.14-1.45 7.66-4.36 10.56a14.39 14.39 0 0 1-10.56 4.36Zm0 74.61a9.63 9.63 0 0 1-7.1-2.86 9.63 9.63 0 0 1-2.85-7.09c0-2.81.95-5.18 2.86-7.08a9.62 9.62 0 0 1 7.09-2.86c2.81 0 5.18.95 7.08 2.86a9.62 9.62 0 0 1 2.86 7.08c0 2.82-.95 5.19-2.86 7.1a9.63 9.63 0 0 1-7.08 2.85Zm0-119.37a9.62 9.62 0 0 1-7.1-2.86 9.62 9.62 0 0 1-2.85-7.08c0-2.82.95-5.19 2.86-7.1a9.62 9.62 0 0 1 7.09-2.85c2.81 0 5.18.95 7.08 2.86a9.63 9.63 0 0 1 2.86 7.09c0 2.81-.95 5.18-2.86 7.08a9.62 9.62 0 0 1-7.08 2.86Zm0 144.24c-1.33 0-2.5-.5-3.49-1.5a4.77 4.77 0 0 1 0-6.96 4.77 4.77 0 0 1 6.97 0c1 1 1.49 2.16 1.49 3.49 0 1.32-.5 2.48-1.5 3.48-.99 1-2.15 1.49-3.47 1.49Zm0-179.05c-1.33 0-2.5-.5-3.49-1.5a4.77 4.77 0 0 1 0-6.96 4.77 4.77 0 0 1 6.97 0 4.77 4.77 0 0 1 0 6.97c-1 .99-2.16 1.49-3.48 1.49Zm39.78 119.37c-4.14 0-7.66-1.45-10.56-4.36a14.39 14.39 0 0 1-4.36-10.57c0-4.14 1.45-7.66 4.36-10.56 2.9-2.9 6.42-4.36 10.56-4.36 4.15 0 7.67 1.45 10.57 4.36 2.9 2.9 4.36 6.42 4.36 10.56a14.4 14.4 0 0 1-4.36 10.57 14.4 14.4 0 0 1-10.57 4.36Zm0-39.8c-4.14 0-7.66-1.44-10.56-4.35a14.39 14.39 0 0 1-4.36-10.56c0-4.15 1.45-7.67 4.36-10.57 2.9-2.9 6.42-4.36 10.56-4.36 4.15 0 7.67 1.45 10.57 4.36 2.9 2.9 4.36 6.42 4.36 10.57 0 4.14-1.45 7.66-4.36 10.56a14.39 14.39 0 0 1-10.57 4.36Zm0 74.61a9.63 9.63 0 0 1-7.08-2.86 9.63 9.63 0 0 1-2.86-7.09c0-2.81.95-5.18 2.86-7.08a9.62 9.62 0 0 1 7.08-2.86c2.82 0 5.19.95 7.1 2.86a9.62 9.62 0 0 1 2.85 7.08c0 2.82-.95 5.19-2.86 7.1a9.63 9.63 0 0 1-7.09 2.85Zm0-119.37a9.63 9.63 0 0 1-7.08-2.86 9.63 9.63 0 0 1-2.86-7.08c0-2.82.95-5.19 2.86-7.1a9.63 9.63 0 0 1 7.08-2.85c2.82 0 5.19.95 7.1 2.86a9.62 9.62 0 0 1 2.85 7.09c0 2.81-.95 5.18-2.86 7.08a9.62 9.62 0 0 1-7.09 2.86Zm0 144.24c-1.32 0-2.48-.5-3.48-1.5a4.77 4.77 0 0 1 0-6.96 4.77 4.77 0 0 1 6.97 0c1 1 1.49 2.16 1.49 3.49 0 1.32-.5 2.48-1.5 3.48-.99 1-2.15 1.49-3.48 1.49Zm0-179.05c-1.32 0-2.48-.5-3.48-1.5a4.77 4.77 0 0 1 0-6.96 4.77 4.77 0 0 1 6.97 0 4.77 4.77 0 0 1 0 6.97c-1 .99-2.16 1.49-3.48 1.49Zm39.8 154.18a9.63 9.63 0 0 1-7.1-2.86 9.62 9.62 0 0 1-2.85-7.09c0-2.81.95-5.18 2.86-7.08a9.62 9.62 0 0 1 7.08-2.86c2.82 0 5.19.95 7.1 2.86a9.63 9.63 0 0 1 2.85 7.08c0 2.82-.95 5.19-2.86 7.1a9.63 9.63 0 0 1-7.09 2.85Zm0-39.79a9.62 9.62 0 0 1-7.1-2.86 9.62 9.62 0 0 1-2.85-7.09c0-2.81.95-5.18 2.86-7.08a9.63 9.63 0 0 1 7.08-2.86c2.82 0 5.19.95 7.1 2.86a9.63 9.63 0 0 1 2.85 7.08c0 2.82-.95 5.19-2.86 7.1a9.62 9.62 0 0 1-7.09 2.85Zm0-39.79a9.62 9.62 0 0 1-7.1-2.86 9.62 9.62 0 0 1-2.85-7.08c0-2.82.95-5.19 2.86-7.1a9.62 9.62 0 0 1 7.08-2.85c2.82 0 5.19.95 7.1 2.86a9.63 9.63 0 0 1 2.85 7.09c0 2.81-.95 5.18-2.86 7.08a9.63 9.63 0 0 1-7.09 2.86Zm0-39.79a9.62 9.62 0 0 1-7.1-2.86 9.62 9.62 0 0 1-2.85-7.08c0-2.82.95-5.19 2.86-7.1a9.62 9.62 0 0 1 7.08-2.85c2.82 0 5.19.95 7.1 2.86a9.63 9.63 0 0 1 2.85 7.09c0 2.81-.95 5.18-2.86 7.08a9.63 9.63 0 0 1-7.09 2.86Zm29.84 74.6c-1.33 0-2.5-.49-3.49-1.48a4.77 4.77 0 0 1 0-6.96c1-1 2.16-1.5 3.49-1.5 1.32 0 2.48.5 3.48 1.5a4.77 4.77 0 0 1 0 6.96c-1 1-2.16 1.49-3.48 1.49Zm0-39.78c-1.33 0-2.5-.5-3.49-1.5a4.77 4.77 0 0 1 0-6.96c1-1 2.16-1.49 3.49-1.49 1.32 0 2.48.5 3.48 1.5a4.77 4.77 0 0 1 0 6.96c-1 1-2.16 1.49-3.48 1.49Z"/></g></svg>