<svg xmlns="http://www.w3.org/2000/svg" fill="none" viewBox="0 0 201 201"><mask id="a" width="201" height="201" x="0" y="0" maskUnits="userSpaceOnUse" style="mask-type:alpha"><path fill="#D9D9D9" d="M0 0h201v201H0z"/></mask><g mask="url(#a)"><path fill="#FAFAFA" d="m90.45 159.3-25.88 25.37a9.38 9.38 0 0 1-6.9 2.76c-2.77 0-5.08-1-6.92-3.01a8.98 8.98 0 0 1-3.01-6.91c0-2.77 1-5.15 3.01-7.16l39.7-39.7v-20.1h-20.1L30.4 150.5a9.38 9.38 0 0 1-6.9 2.76c-2.77 0-5.16-1-7.17-3.01a9.38 9.38 0 0 1-2.76-6.91c0-2.77.92-5.07 2.76-6.91l25.38-25.88H9.8c-2.85 0-5.2-.96-7.04-2.89A9.96 9.96 0 0 1 0 100.5c0-2.85.96-5.23 2.89-7.16a9.72 9.72 0 0 1 7.16-2.89h31.66L16.33 64.82a9.37 9.37 0 0 1-2.76-6.9c0-2.77 1-5.16 3.01-7.17A9.37 9.37 0 0 1 23.5 48c2.77 0 5.15.92 7.16 2.76l39.7 39.7h20.1v-20.1L50.5 30.65a9.37 9.37 0 0 1-2.76-6.9c0-2.77 1-5.16 3.01-7.17a9.37 9.37 0 0 1 6.91-2.76c2.77 0 5.07.92 6.91 2.76l25.88 25.13V10.05c0-2.85.96-5.23 2.89-7.16A9.72 9.72 0 0 1 100.5 0c2.85 0 5.23.96 7.16 2.89a9.72 9.72 0 0 1 2.89 7.16v31.66l25.63-25.13a9.37 9.37 0 0 1 6.9-2.76c2.77 0 5.16.92 7.17 2.76a10.24 10.24 0 0 1 2.76 7.16c0 2.77-.92 5.07-2.76 6.91l-39.7 39.7v20.1h20.1l39.7-39.7a9.37 9.37 0 0 1 6.9-2.76c2.77 0 5.16 1 7.17 3.01a9.38 9.38 0 0 1 2.76 6.91c0 2.77-.92 5.07-2.76 6.91l-25.13 25.63h31.66c2.85 0 5.23.96 7.16 2.89a9.72 9.72 0 0 1 2.89 7.16c0 2.85-.96 5.23-2.89 7.16a9.73 9.73 0 0 1-7.16 2.89h-31.66l25.13 25.88a9.37 9.37 0 0 1 2.76 6.9c0 2.77-.92 5.07-2.76 6.92a9.78 9.78 0 0 1-7.16 3.01c-2.77 0-5.07-1-6.91-3.01l-39.7-39.7h-20.1v20.1l39.7 39.95a9.37 9.37 0 0 1 2.76 6.9c0 2.77-1 5.16-3.01 7.17a9.37 9.37 0 0 1-6.91 2.76 9.37 9.37 0 0 1-6.91-2.76l-25.63-25.38v31.91c0 2.85-.96 5.2-2.89 7.04a9.96 9.96 0 0 1-7.16 2.76 9.72 9.72 0 0 1-7.16-2.89 9.73 9.73 0 0 1-2.89-7.16v-31.66Z"/></g></svg>