<svg xmlns="http://www.w3.org/2000/svg" fill="none" viewBox="0 0 201 201"><mask id="a" width="201" height="201" x="0" y="0" maskUnits="userSpaceOnUse" style="mask-type:alpha"><path fill="#D9D9D9" d="M0 0h201v201H0z"/></mask><g mask="url(#a)"><path fill="#29CDFF" d="M100.5 198c-23.14 0-42.84-8.03-59.1-24.09C25.13 157.85 17 138.3 17 115.26c0-11 2.13-21.52 6.4-31.55a81.54 81.54 0 0 1 18.13-26.58l53.35-52.6a8 8 0 0 1 11.24 0l53.35 52.6a81.54 81.54 0 0 1 18.14 26.58 79.91 79.91 0 0 1 6.39 31.55c0 23.04-8.13 42.6-24.4 58.65-16.26 16.06-35.96 24.09-59.1 24.09Z"/></g></svg>