<?xml version="1.0" encoding="UTF-8"?>
<svg
  xmlns="http://www.w3.org/2000/svg"
  xmlns:xlink="http://www.w3.org/1999/xlink"
  width="0"
  height="0"
>
  <defs>
    <symbol fill="none" viewBox="0 0 20 20" id="Warn">
      <path
        fill="currentColor"
        d="M1.756 18A.865.865 0 0 1 1 17.556a.976.976 0 0 1-.122-.434.798.798 0 0 1 .122-.455L9.222 2.444a.874.874 0 0 1 .345-.333A.92.92 0 0 1 10 2a.92.92 0 0 1 .433.111c.141.074.256.185.345.333L19 16.667c.089.148.13.3.122.455a.977.977 0 0 1-.122.434.866.866 0 0 1-.756.444H1.756ZM10 15.333a.86.86 0 0 0 .633-.255.86.86 0 0 0 .256-.634.86.86 0 0 0-.256-.633.86.86 0 0 0-.633-.255.86.86 0 0 0-.633.255.86.86 0 0 0-.256.633.86.86 0 0 0 .256.634.86.86 0 0 0 .633.255Zm0-2.666a.86.86 0 0 0 .633-.256.86.86 0 0 0 .256-.633V9.11a.86.86 0 0 0-.256-.633.86.86 0 0 0-.633-.256.86.86 0 0 0-.633.256.86.86 0 0 0-.256.633v2.667a.86.86 0 0 0 .256.633.86.86 0 0 0 .633.256Z"
      ></path>
    </symbol>
    <symbol fill="none" viewBox="0 0 24 24" id="Twitch">
      <path
        fill="currentColor"
        fill-rule="evenodd"
        d="M5.195 4 4 7.09v12.626h4.25V22h2.39l2.258-2.284h3.453L21 15.014V4H5.195Zm14.21 10.209-2.655 2.686H12.5l-2.258 2.284v-2.284H6.656V5.612h12.75v8.597ZM16.75 8.702v4.696h-1.594V8.702h1.594Zm-4.25 0v4.696h-1.594V8.702H12.5Z"
        clip-rule="evenodd"
      ></path>
    </symbol>
    <symbol fill="none" id="Train">
      <path
        fill="currentColor"
        d="M4.5 15.308V6c0-.768.208-1.382.625-1.843.417-.461.973-.813 1.668-1.056.696-.243 1.495-.404 2.4-.483C10.095 2.54 11.031 2.5 12 2.5c1.036 0 2.01.04 2.92.118.911.08 1.707.24 2.387.482.68.241 1.216.593 1.607 1.055.39.462.586 1.077.586 1.845v9.308c0 .893-.309 1.649-.926 2.266s-1.373.926-2.266.926l.846.846c.22.22.27.466.155.741-.116.276-.328.413-.637.413a.712.712 0 0 1-.26-.048.627.627 0 0 1-.22-.144L14.385 18.5h-4.77l-1.807 1.808a.635.635 0 0 1-.223.144.727.727 0 0 1-.262.048.634.634 0 0 1-.626-.413c-.12-.274-.07-.522.15-.74l.845-.847c-.893 0-1.649-.309-2.266-.926S4.5 16.201 4.5 15.308ZM6 10.5h5.25V6.77H6v3.73Zm6.75 0H18V6.77h-5.25v3.73Zm-4.252 5.308c.377 0 .69-.124.938-.37.248-.247.372-.559.372-.936s-.124-.69-.37-.938a1.264 1.264 0 0 0-.936-.372c-.377 0-.69.124-.938.37a1.264 1.264 0 0 0-.372.936c0 .377.124.69.37.938.247.248.559.372.936.372Zm7 0c.377 0 .69-.124.938-.37.248-.247.372-.559.372-.936s-.124-.69-.37-.938a1.264 1.264 0 0 0-.936-.372c-.377 0-.69.124-.938.37a1.264 1.264 0 0 0-.372.936c0 .377.124.69.37.938.247.248.559.372.936.372Z"
      ></path>
    </symbol>
    <symbol fill="none" viewBox="0 0 16 16" id="Timer">
      <path
        fill="currentColor"
        d="M6.67 2a.65.65 0 0 1-.48-.2.65.65 0 0 1-.19-.47c0-.19.06-.34.2-.47.12-.13.28-.2.47-.2h2.66c.2 0 .35.07.48.2s.19.28.19.47c0 .2-.06.35-.2.48a.65.65 0 0 1-.47.19H6.67ZM8 9.33c.19 0 .35-.06.47-.19.13-.13.2-.28.2-.47V6a.65.65 0 0 0-.2-.47.65.65 0 0 0-.47-.2.65.65 0 0 0-.47.2.65.65 0 0 0-.2.47v2.67c0 .19.07.34.2.47.12.13.28.2.47.2Zm0 5.34a6.13 6.13 0 0 1-5.53-3.68A5.76 5.76 0 0 1 2 8.67a6.13 6.13 0 0 1 3.67-5.53 5.95 5.95 0 0 1 6.1.83l.46-.47a.63.63 0 0 1 .47-.18c.19 0 .34.06.47.18.12.12.18.28.18.47 0 .19-.06.34-.18.46l-.47.47a5.95 5.95 0 0 1-.47 8A6.13 6.13 0 0 1 8 14.67Z"
      ></path>
    </symbol>
    <symbol fill="none" viewBox="0 0 24 24" id="Settings">
      <path
        fill="currentColor"
        d="M13.875 22h-3.75a.934.934 0 0 1-.65-.25.997.997 0 0 1-.325-.625l-.3-2.325a3.79 3.79 0 0 1-.613-.3 8.266 8.266 0 0 1-.562-.375l-2.175.9a1.119 1.119 0 0 1-.7.025.93.93 0 0 1-.55-.425L2.4 15.4a.94.94 0 0 1-.125-.7.96.96 0 0 1 .375-.6l1.875-1.425a2.387 2.387 0 0 1-.025-.338v-.675c0-.108.008-.22.025-.337L2.65 9.9a.96.96 0 0 1-.375-.6.94.94 0 0 1 .125-.7l1.85-3.225a.786.786 0 0 1 .537-.438c.242-.058.48-.045.713.038l2.175.9c.183-.133.375-.258.575-.375.2-.117.4-.217.6-.3l.3-2.325a.997.997 0 0 1 .325-.625c.183-.167.4-.25.65-.25h3.75c.25 0 .466.083.65.25a.996.996 0 0 1 .325.625l.3 2.325c.216.083.42.183.612.3.192.117.38.242.563.375l2.175-.9a1.12 1.12 0 0 1 .7-.025.929.929 0 0 1 .55.425L21.6 8.6a.94.94 0 0 1 .125.7.959.959 0 0 1-.375.6l-1.875 1.425c.016.117.025.23.025.338v.675c0 .108-.017.22-.05.337l1.875 1.425c.2.15.325.35.375.6a.94.94 0 0 1-.125.7l-1.85 3.2a.982.982 0 0 1-.563.438c-.241.075-.479.07-.712-.013l-2.125-.9a6.826 6.826 0 0 1-.575.375c-.2.117-.4.217-.6.3l-.3 2.325a.996.996 0 0 1-.325.625.934.934 0 0 1-.65.25Zm-1.825-6.5c.966 0 1.791-.342 2.475-1.025A3.372 3.372 0 0 0 15.55 12c0-.967-.342-1.792-1.025-2.475A3.372 3.372 0 0 0 12.05 8.5c-.984 0-1.813.342-2.488 1.025A3.393 3.393 0 0 0 8.55 12c0 .967.337 1.792 1.012 2.475S11.067 15.5 12.05 15.5Z"
      ></path>
    </symbol>
    <symbol fill="none" id="Search">
      <path
        fill="currentColor"
        d="M9.52 15.615c-1.708 0-3.155-.592-4.34-1.777-1.184-1.184-1.776-2.63-1.776-4.338 0-1.708.592-3.154 1.777-4.338 1.184-1.185 2.63-1.777 4.338-1.777 1.708 0 3.154.592 4.339 1.777 1.184 1.184 1.777 2.63 1.777 4.338 0 .714-.12 1.396-.36 2.046-.24.65-.56 1.216-.96 1.696l5.754 5.754c.139.139.21.313.213.522a.707.707 0 0 1-.213.532.718.718 0 0 1-.527.217.718.718 0 0 1-.527-.217l-5.754-5.754c-.5.413-1.074.736-1.724.97-.65.233-1.323.35-2.018.35Zm0-1.5c1.288 0 2.379-.447 3.273-1.34.895-.895 1.342-1.986 1.342-3.275 0-1.288-.447-2.38-1.342-3.274-.894-.894-1.985-1.341-3.274-1.341-1.288 0-2.38.447-3.274 1.341-.894.894-1.341 1.986-1.341 3.274 0 1.289.447 2.38 1.341 3.274.894.894 1.986 1.341 3.274 1.341Z"
      ></path>
    </symbol>
    <symbol fill="none" viewBox="0 0 24 24" id="QuestionMark">
      <path
        fill="currentColor"
        d="M14.956 8.017c0-.825-.276-1.488-.828-1.99-.552-.5-1.28-.75-2.186-.75-.573 0-1.08.117-1.524.35-.443.235-.825.587-1.147 1.058-.19.268-.443.426-.76.475a.988.988 0 0 1-.832-.233.858.858 0 0 1-.301-.574.987.987 0 0 1 .16-.655c.508-.768 1.136-1.352 1.884-1.752.748-.4 1.588-.6 2.52-.6 1.489 0 2.7.426 3.635 1.279.935.853 1.402 1.963 1.402 3.33 0 .725-.155 1.389-.466 1.992-.31.603-.839 1.252-1.586 1.947-.7.635-1.178 1.15-1.433 1.545-.255.396-.403.84-.444 1.334a1.203 1.203 0 0 1-.354.712.972.972 0 0 1-.704.284.978.978 0 0 1-.704-.281.925.925 0 0 1-.292-.694c0-.669.153-1.28.459-1.835.306-.555.818-1.151 1.535-1.79.767-.673 1.286-1.234 1.558-1.684.272-.45.408-.94.408-1.468ZM11.942 21.5c-.409 0-.76-.148-1.056-.443A1.443 1.443 0 0 1 10.442 20c0-.409.148-.761.444-1.057a1.443 1.443 0 0 1 1.056-.443c.41 0 .761.148 1.057.443.295.296.443.648.443 1.057 0 .409-.148.761-.443 1.057a1.443 1.443 0 0 1-1.057.443Z"
      ></path>
    </symbol>
    <symbol fill="none" id="More">
      <path
        fill="currentColor"
        d="M12 19.27c-.412 0-.766-.148-1.06-.441a1.445 1.445 0 0 1-.44-1.06c0-.412.147-.765.44-1.06.294-.293.648-.44 1.06-.44.412 0 .766.147 1.06.44.293.295.44.648.44 1.06 0 .413-.147.766-.44 1.06-.294.293-.648.44-1.06.44Zm0-5.77c-.412 0-.766-.147-1.06-.44A1.445 1.445 0 0 1 10.5 12c0-.412.147-.766.44-1.06.294-.293.648-.44 1.06-.44.412 0 .766.147 1.06.44.293.294.44.648.44 1.06 0 .412-.147.766-.44 1.06-.294.293-.648.44-1.06.44Zm0-5.77c-.412 0-.766-.146-1.06-.44a1.444 1.444 0 0 1-.44-1.06c0-.412.147-.765.44-1.059.294-.293.648-.44 1.06-.44.412 0 .766.147 1.06.44.293.294.44.647.44 1.06 0 .412-.147.765-.44 1.06-.294.293-.648.44-1.06.44Z"
      ></path>
    </symbol>
    <symbol fill="none" id="Menu">
      <path
        fill="currentColor"
        d="M4.25 17.635a.726.726 0 0 1-.534-.216.726.726 0 0 1-.216-.535c0-.212.072-.39.216-.534a.726.726 0 0 1 .534-.215h15.5c.212 0 .39.071.534.215a.726.726 0 0 1 .216.535c0 .212-.072.39-.216.534a.726.726 0 0 1-.534.216H4.25Zm0-4.885a.726.726 0 0 1-.534-.216A.726.726 0 0 1 3.5 12c0-.213.072-.391.216-.535a.726.726 0 0 1 .534-.215h15.5c.212 0 .39.072.534.216A.726.726 0 0 1 20.5 12c0 .213-.072.391-.216.535a.726.726 0 0 1-.534.215H4.25Zm0-4.885a.726.726 0 0 1-.534-.215.726.726 0 0 1-.216-.535c0-.213.072-.39.216-.534a.726.726 0 0 1 .534-.216h15.5c.212 0 .39.072.534.216a.726.726 0 0 1 .216.535c0 .212-.072.39-.216.534a.726.726 0 0 1-.534.215H4.25Z"
      ></path>
    </symbol>
    <symbol viewBox="0 0 2000 1080" fill="none" id="Logo">
      <path
        fill="currentcolor"
        d="m1097.92 414.167-44.94-155.562a8.208 8.208 0 0 0-8.85-5.867l-23.38 2.792a16.367 16.367 0 0 0-10.33 5.408l-5.66 6.38a16.453 16.453 0 0 0-4.03 9.159L986.613 411.17c-.5 4.785.057 9.619 1.631 14.161l5.244 15.125a8.21 8.21 0 0 0 3.352 4.234 8.211 8.211 0 0 0 5.26 1.232l79.08-8.352a8.159 8.159 0 0 0 3.18-1.023 8.119 8.119 0 0 0 2.51-2.212l9.73-12.972a8.252 8.252 0 0 0 1.51-3.443 8.214 8.214 0 0 0-.19-3.753Zm52.43-206.824-37.22 36.03a8.164 8.164 0 0 0-2.32 4.163 8.278 8.278 0 0 0 .39 4.747l13.64 34.472a16.518 16.518 0 0 0 4.7 6.52 16.443 16.443 0 0 0 7.24 3.505l81.16 16.777a8.19 8.19 0 0 1 3.71 1.839 8.193 8.193 0 0 1 2.35 3.426l5.15 14.42c.33.934.31 1.957-.05 2.88a4.085 4.085 0 0 1-1.92 2.142l-41.35 21.463c-.91.472-1.96.587-2.95.323a4.087 4.087 0 0 1-2.39-1.75l-1.56-2.435a4.042 4.042 0 0 1-.63-1.775l-3.04-28.208a8.202 8.202 0 0 0-1.77-4.276 8.238 8.238 0 0 0-3.82-2.629l-21.16-6.961a8.215 8.215 0 0 0-4.9-.072 8.21 8.21 0 0 0-4.06 2.728l-30.14 37.585a8.077 8.077 0 0 0-1.53 3.026 8.23 8.23 0 0 0-.17 3.386l4.42 27.91a16.437 16.437 0 0 0 6.18 10.413l49.59 38.29a16.407 16.407 0 0 0 13.09 3.128l81.61-15.518a16.398 16.398 0 0 0 10.4-6.753l22.38-32.197a16.407 16.407 0 0 0 2.68-12.206l-12.78-72.574a16.39 16.39 0 0 0-2.97-6.904 16.415 16.415 0 0 0-5.73-4.859l-32.32-16.506a16.426 16.426 0 0 0-9.04-1.718l-48.99 4.731c-3.36.322-6.73-.396-9.67-2.058l-7.42-4.21a4.087 4.087 0 0 1-1.69-1.82 4.167 4.167 0 0 1-.33-2.461l2.96-16.745c.17-.999.71-1.898 1.51-2.522.8-.624 1.81-.929 2.82-.856l57.96 4.15 13 12.779 26.43-2.48 1.06-27.614-19.59-25.232a8.215 8.215 0 0 1-1.67-4.042 8.127 8.127 0 0 1 .66-4.322l18.97-42.562a8.122 8.122 0 0 1 2.14-2.872 8.16 8.16 0 0 1 3.15-1.687l39.72-11.045c2.19-.607 4.47-.756 6.71-.438s4.39 1.097 6.32 2.287l21.6 13.37c.65.409 1.18.996 1.52 1.693.34.698.47 1.477.39 2.247l-.36 3.202a4.119 4.119 0 0 1-1.32 2.593 4.122 4.122 0 0 1-2.72 1.06l-27.25.267c-3.21.028-6.34 1-9 2.792l-10.67 7.179a8.22 8.22 0 0 0-3.61 6.802v39.725c0 3.51 2.23 6.63 5.55 7.761l9 3.059c2.89.988 6 1.147 8.98.459l18.06-4.17c2.75-.64 5.31 1.632 5 4.44l-15.87 143.074c-.37 3.411.33 6.855 2.01 9.846a16.39 16.39 0 0 0 7.37 6.829l49.69 23.148a16.386 16.386 0 0 0 11.35.927l77.44-21.714a16.389 16.389 0 0 0 9.91-7.83l17.89-32.223a16.406 16.406 0 0 0 1.89-10.344l-7.37-50.155a8.217 8.217 0 0 0-2.34-4.631 8.253 8.253 0 0 0-4.66-2.299l-47.22-6.518a4.076 4.076 0 0 0-1.6.097 4.086 4.086 0 0 0-2.51 1.914c-.27.469-.45.986-.52 1.523l-5.9 45.481a6.26 6.26 0 0 1-1.51 3.326 6.257 6.257 0 0 1-3.12 1.902l-7.43 1.902a4.097 4.097 0 0 1-5.11-3.813l-4.22-109.056a4.07 4.07 0 0 1 .28-1.655c.2-.526.52-1.004.92-1.404.4-.4.88-.712 1.4-.918.53-.206 1.09-.3 1.66-.278l31.84 1.254c3.83.151 7.59-1.044 10.63-3.378l10.1-7.741a8.11 8.11 0 0 0 2.36-2.88c.56-1.129.85-2.371.85-3.63v-40.763a8.23 8.23 0 0 0-1.46-4.68 8.237 8.237 0 0 0-3.88-3.008l-7.86-2.931a16.383 16.383 0 0 0-8.92-.722l-37.4 7.417c-.57.113-1.17.103-1.73-.031a4.09 4.09 0 0 1-2.69-2.063 4.05 4.05 0 0 1-.47-1.666l-1.83-28.142a8.212 8.212 0 0 0-4.67-6.884l-40.05-18.979a16.436 16.436 0 0 0-8.75-1.488l-72.04 7.614c-2.19.232-4.31.902-6.24 1.972a16.286 16.286 0 0 0-4.97 4.252l-53.69 68.85a16.387 16.387 0 0 0-2.98 6.133 16.156 16.156 0 0 0-.23 6.816l.73 4.124c.1.599.07 1.214-.09 1.8-.16.587-.45 1.13-.85 1.59a4.01 4.01 0 0 1-1.45 1.073c-.55.245-1.16.364-1.76.347l-47.16-1.292a16.37 16.37 0 0 0-6.39 1.109 16.38 16.38 0 0 0-5.47 3.504Zm481.75 65.091 2.63 7.368c.29.813.32 1.697.08 2.526-.25.828-.74 1.56-1.42 2.091l-38.86 30.274c-.68.528-1.51.83-2.37.862-.86.032-1.7-.206-2.42-.682l-1.62-1.078c-.5-.332-.92-.769-1.23-1.28a4.047 4.047 0 0 1-.58-1.68l-2.86-25.633c-.09-.78-.4-1.518-.9-2.127a4.059 4.059 0 0 0-1.9-1.309l-23.68-7.794a8.224 8.224 0 0 0-4.9-.073 8.24 8.24 0 0 0-4.07 2.73l-30.01 37.424a8.152 8.152 0 0 0-1.57 3.192 8.058 8.058 0 0 0-.07 3.557l3.25 16.138a16.385 16.385 0 0 0 5.42 9.237l51.5 43.972a16.437 16.437 0 0 0 6.44 3.378c2.38.629 4.86.718 7.28.259l74.41-14.15a16.427 16.427 0 0 0 10.11-6.342l26.76-36.08a16.398 16.398 0 0 0 3.06-12.156l-11.07-75.272a16.403 16.403 0 0 0-3.95-8.492 16.424 16.424 0 0 0-7.96-4.944l-51.85-14.153a32.736 32.736 0 0 0-14.5-.623l-31.95 5.797c-.59.107-1.19.084-1.77-.067a4.136 4.136 0 0 1-1.57-.806c-.46-.38-.84-.857-1.09-1.395a3.974 3.974 0 0 1-.4-1.725l-.14-13.768a4.097 4.097 0 0 1 3.86-4.137l51.78-3.022c3.67-.213 7.31.82 10.33 2.92l14.43 10.053a8.257 8.257 0 0 0 3.24 1.343c1.17.209 2.36.165 3.51-.13l14.53-3.763a8.231 8.231 0 0 0 6.12-7.294l2.46-31.28a8.177 8.177 0 0 0-3.26-7.215l-8.35-6.232a8.171 8.171 0 0 0-4.54-1.616l-104.7-4.764c-2.77-.127-5.52.45-8.01 1.677a16.41 16.41 0 0 0-6.2 5.338l-37.57 54.001a8.114 8.114 0 0 0-1.43 3.938 8.154 8.154 0 0 0 .7 4.132l13.23 29.175a16.465 16.465 0 0 0 5.48 6.616 16.36 16.36 0 0 0 8.06 2.944l86.59 7.438a4.096 4.096 0 0 1 3.51 2.702Zm36.87 358.541 10.53-18.405a8.15 8.15 0 0 0 .81-6.166l-12.64-47.761a16.403 16.403 0 0 0-3.31-6.37 16.498 16.498 0 0 0-5.72-4.343l-60.58-27.684a32.776 32.776 0 0 0-20.97-2.136l-51.67 11.857a32.826 32.826 0 0 0-18.24 11.444l-38.69 48.22a16.421 16.421 0 0 0-3.61 9.913l-1.69 79.536a16.382 16.382 0 0 0 3.4 10.345l44.39 57.736a16.341 16.341 0 0 0 5.76 4.713 16.372 16.372 0 0 0 7.24 1.687h71.73c3.3 0 6.51-.996 9.24-2.854l60.49-41.237a16.44 16.44 0 0 0 5.66-6.695 16.408 16.408 0 0 0 1.4-8.655l-1.85-16.753a32.92 32.92 0 0 0-2.9-10.332l-6.04-12.858a8.198 8.198 0 0 0-8.65-4.629l-36.14 5.506c-1 .152-1.91.669-2.55 1.45a4.081 4.081 0 0 0-.93 2.782l.45 10.209a8.233 8.233 0 0 1-1.53 5.148 8.23 8.23 0 0 1-4.4 3.092l-33.81 9.722c-4.18 1.196-8.65.69-12.45-1.407L1536.22 672a8.263 8.263 0 0 1-3.36-3.478 8.252 8.252 0 0 1-.81-4.763l1.46-11.214c.12-.909.54-1.753 1.2-2.395a4.069 4.069 0 0 1 2.41-1.147l125.64-13.953a8.198 8.198 0 0 0 6.21-4.075Zm-127.59-38.765 8.23-9.373a8.24 8.24 0 0 1 4.42-2.608l15.89-3.44c2.11-.459 4.3-.495 6.43-.105s4.16 1.198 5.97 2.377l22.19 14.395a4.098 4.098 0 0 1 1.58 1.925c.31.789.38 1.656.18 2.482l-1.81 7.434c-.2.823-.65 1.564-1.29 2.122-.63.557-1.43.903-2.27.99l-59.08 6.113a4.11 4.11 0 0 1-3.17-1.032 3.995 3.995 0 0 1-1-1.378 4.148 4.148 0 0 1-.35-1.666v-7.408c0-3.986 1.45-7.835 4.08-10.828Zm-993.61 78.158-49.75-31.37a16.403 16.403 0 0 0-12.911-1.992l-66.74 17.507a32.85 32.85 0 0 0-16.806 10.644l-37.023 44.124a32.812 32.812 0 0 0-7.589 18.77l-3.411 48.208a32.79 32.79 0 0 0 4.01 18.17l32.533 58.893a16.407 16.407 0 0 0 12.89 8.41l69.368 6.203a32.795 32.795 0 0 0 25.818-9.189l65.723-64.074a16.398 16.398 0 0 0 4.797-13.953l-13.403-98.687a16.396 16.396 0 0 0-7.507-11.664h.001ZM447.626 794.59l-16.462-16.556a16.407 16.407 0 0 1-4.469-8.444 16.409 16.409 0 0 1 .996-9.502l18.143-42.927a8.204 8.204 0 0 1 8.762-4.916l28.232 4.203a8.205 8.205 0 0 1 6.99 8.466l-1.385 31.98a32.795 32.795 0 0 1-12.235 24.157l-17.625 14.154a8.196 8.196 0 0 1-10.947-.615ZM1832.15 587.552l33.56-19.508a8.187 8.187 0 0 0 3.24-3.488c.72-1.458.98-3.095.76-4.704l-5.63-41.524a16.392 16.392 0 0 0-4.46-9.194 16.374 16.374 0 0 0-9.03-4.771l-36.22-6.183a16.434 16.434 0 0 0-6.73.254 16.34 16.34 0 0 0-6.05 2.932l-16.17 12.472a16.402 16.402 0 0 0-5.55 7.827l-5.56 16.798c-.16.495-.51.908-.97 1.157-.46.249-.99.315-1.49.183l-2.12-.553a2.05 2.05 0 0 1-1.16-.805 2.01 2.01 0 0 1-.36-1.364l2.21-24.3a8.227 8.227 0 0 0-1.16-5.009 8.175 8.175 0 0 0-3.92-3.331l-16.27-6.61a16.386 16.386 0 0 0-16.86 2.756l-36.79 31.62a16.376 16.376 0 0 0-5.42 9.38c-.69 3.65-.13 7.427 1.61 10.713l21.98 41.627a32.805 32.805 0 0 1 3.7 17.737l-3.22 43.649c-.2 2.596-.7 5.16-1.49 7.638l-13.21 40.98a8.187 8.187 0 0 0-.29 3.838 8.24 8.24 0 0 0 1.5 3.546l7.57 10.266a16.41 16.41 0 0 0 14.99 6.568l56.34-6.195a16.38 16.38 0 0 0 11.5-6.716l7.22-10.008a8.245 8.245 0 0 0 1.52-5.482l-1.8-21.447a16.439 16.439 0 0 0-5.03-10.5l-6.12-5.834a16.341 16.341 0 0 1-4.98-9.975l-3.3-28.307c-.6-5.16.03-10.389 1.85-15.256l10.82-29.024c.21-.552.53-1.053.95-1.469.41-.416.91-.737 1.47-.942a4.083 4.083 0 0 1 3.4.255l19.01 10.483a16.386 16.386 0 0 0 8.1 2.039c2.83-.031 5.61-.796 8.06-2.219ZM666.042 299.203l-2.124-.553a2.18 2.18 0 0 1-1.624-2.28l1.862-23.96a8.191 8.191 0 0 0-5.609-8.426l-18.643-6.133a16.396 16.396 0 0 0-16.506 3.767l-36.002 34.703a16.397 16.397 0 0 0-3.453 18.798l20.476 43.448a32.837 32.837 0 0 1 3.128 14.043l-.078 40.758a32.68 32.68 0 0 1-1.578 9.995l-12.719 39.471a8.206 8.206 0 0 0 1.575 7.848l9.245 10.803a16.416 16.416 0 0 0 14.22 5.642l52.988-5.712a16.39 16.39 0 0 0 13.111-9.389l10.5-22.566a8.199 8.199 0 0 0-.848-8.348l-15.187-20.442a16.413 16.413 0 0 1-3.124-7.88l-3.477-29.84a32.813 32.813 0 0 1 1.85-15.252l10.82-29.024a4.1 4.1 0 0 1 5.821-2.157l17.729 9.779a16.393 16.393 0 0 0 17.925-1.366l25.682-19.77a16.406 16.406 0 0 0 5.76-17.523l-8.507-29.627a16.385 16.385 0 0 0-10.422-10.98l-9.557-3.292a16.389 16.389 0 0 0-9.86-.262l-35.662 10.221a16.417 16.417 0 0 0-11.193 11.062l-3.879 12.96a2.182 2.182 0 0 1-2.64 1.484Zm713.598 464.895 73.2-7.733a8.22 8.22 0 0 0 7.1-6.17l2.31-9.303c.57-2.28.64-4.656.21-6.967a16.265 16.265 0 0 0-2.71-6.423l-11.85-16.868a16.402 16.402 0 0 1-2.91-7.856l-13.36-138.358a16.378 16.378 0 0 0-4.26-9.531 16.4 16.4 0 0 0-9.14-5.032l-31.56-5.72a16.407 16.407 0 0 0-10.93 1.825l-31.9 17.835a16.409 16.409 0 0 0-7.71 9.618l-7.21 24.141a2.07 2.07 0 0 1-.81 1.102c-.38.265-.85.389-1.31.353l-2.34-.18c-1.11-.086-1.9-1.009-1.89-2.148l-1.26-92.07a16.356 16.356 0 0 0-1.47-6.565 16.392 16.392 0 0 0-3.98-5.423l-27.63-24.764a16.396 16.396 0 0 0-16.16-3.338l-37.05 12.415a8.186 8.186 0 0 0-4.45 3.61 8.145 8.145 0 0 0-1 5.648l7.08 38.503a8.186 8.186 0 0 0 3.1 5.045 8.183 8.183 0 0 0 5.69 1.642l5.22-.463c2.49-.222 4.61 1.824 4.46 4.321l-10.02 170.642a32.795 32.795 0 0 1-1.66 8.549l-16.08 47.752a8.227 8.227 0 0 0-.12 4.862 8.224 8.224 0 0 0 2.66 4.072l6.91 5.712a8.18 8.18 0 0 0 2.87 1.534c1.04.314 2.14.416 3.23.298l74.96-8.036a8.206 8.206 0 0 0 3.83-1.432 8.205 8.205 0 0 0 2.65-3.102l4.49-9.102c.7-1.43.97-3.035.78-4.617l-9.2-75.108c-.34-2.802.04-5.645 1.12-8.253l5.52-13.37a16.457 16.457 0 0 1 4.45-6.158l30.35-26.175c1.35-1.164 3.44-.164 3.38 1.62l-3.85 120.26a8.158 8.158 0 0 0 2.03 5.675l9.2 10.484a8.11 8.11 0 0 0 3.18 2.23c1.22.478 2.54.655 3.84.517Zm-367.94-65.969 8.86-15.482a16.367 16.367 0 0 0 1.62-12.34l-11.78-44.506a16.303 16.303 0 0 0-3.32-6.373 16.319 16.319 0 0 0-5.72-4.344L940.791 587.4a32.8 32.8 0 0 0-20.976-2.136l-57.223 13.137a16.405 16.405 0 0 0-9.123 5.72l-42.254 52.664a16.358 16.358 0 0 0-3.604 9.913l-1.468 69.241a16.411 16.411 0 0 0 3.28 10.193l44.067 58.704a16.418 16.418 0 0 0 11.377 6.461l83.431 8.922a16.41 16.41 0 0 0 11.066-2.813l56.846-39.274a8.28 8.28 0 0 0 2.91-3.602c.6-1.456.77-3.055.49-4.606l-8.02-44.251a8.218 8.218 0 0 0-1.54-3.5 8.239 8.239 0 0 0-2.97-2.42l-11.136-5.38a8.177 8.177 0 0 0-5.633-.55l-28.138 7.332a8.206 8.206 0 0 0-6.134 7.982l.045 8.77a4.093 4.093 0 0 1-2.866 3.932l-31.312 9.869a16.39 16.39 0 0 1-12.87-1.292l-31.664-17.515a4.109 4.109 0 0 1-2.09-4.038l1.008-9.094a4.098 4.098 0 0 1 3.624-3.62l125.576-13.945a8.198 8.198 0 0 0 6.21-4.075Zm-129.634-36.44 8.488-9.669a16.39 16.39 0 0 1 8.848-5.202l13.243-2.875a16.403 16.403 0 0 1 12.402 2.268l22.193 14.399a4.097 4.097 0 0 1 1.751 4.407l-1.8 7.434a4.094 4.094 0 0 1-3.563 3.112l-59.08 6.117a4.112 4.112 0 0 1-3.169-1.034 4.111 4.111 0 0 1-1.354-3.046v-10.5c0-1.992.726-3.915 2.042-5.412l-.001.001Z"
      ></path>
      <path
        fill="#fff"
        d="m1494.53 817.386-176.84 76.133a32.825 32.825 0 0 1-13.27 2.669l-158.06-1.423c-2.38-.02-4.74-.3-7.06-.832l-360.332-82.87a16.35 16.35 0 0 0-8.434.288l-38.74 11.746a16.382 16.382 0 0 1-7.467.48l-32.226-5.392a16.46 16.46 0 0 0-6.043.12l-34.612 7.186c-2.899.603-5.904.41-8.7-.557l-2.624-.91a4.095 4.095 0 0 1-2.76-3.875v-9.848a4.1 4.1 0 0 1 2.337-3.702l9.902-4.711a8.197 8.197 0 0 1 4.247-.771l29.119 2.583a16.345 16.345 0 0 0 6.133-.627l64.366-19.205a16.395 16.395 0 0 0 9.59-7.65l27.946-49.475a16.357 16.357 0 0 0 2.058-9.516l-3.456-38.934a16.366 16.366 0 0 0-4.982-10.381l-34.547-33.153a16.402 16.402 0 0 1-4.727-8.638l-6.179-31.086c-.356-1.8 1.653-3.129 3.17-2.091l15.37 10.508a16.388 16.388 0 0 0 10.054 2.845l29.167-1.422a8.189 8.189 0 0 0 7.278-5.302l16.502-43.898a8.194 8.194 0 0 0-1.332-8.086l-20.46-24.944a16.399 16.399 0 0 0-14.403-5.908l-42.381 4.477a16.41 16.41 0 0 0-10.791 5.707l-15.453 18.233a32.835 32.835 0 0 0-5.613 9.487l-24.12 63.005a4.085 4.085 0 0 1-3.35 2.608l-37.228 4.37a32.846 32.846 0 0 0-19.467 9.484l-28.229 28.478a16.356 16.356 0 0 0-4.358 7.97l-11.328 50.68a16.413 16.413 0 0 0 1.923 11.985l24.018 40.217a4.099 4.099 0 0 1-1.058 5.379l-23.817 17.892a8.23 8.23 0 0 0-3.05 4.65l-9.422 39.479a4.095 4.095 0 0 0 2.603 4.805l24.756 8.893a2.052 2.052 0 0 1 1.353 2.038l-.14 2.648a2.052 2.052 0 0 1-2.095 1.94l-23.546-.55a8.198 8.198 0 0 0-7.335 4.174l-24.112 42.808a16.413 16.413 0 0 0-.73 14.625l27.954 63.84a16.424 16.424 0 0 0 11.702 9.488l119.658 24.753c2.722.56 5.543.42 8.2-.4l46.141-14.37a16.321 16.321 0 0 0 7.028-4.37l44.075-48.63a16.388 16.388 0 0 0 3.198-16.773l-23.747-63.239c-.574-1.517.762-3.066 2.349-2.722l123.582 26.712a32.764 32.764 0 0 1 5.74 1.804l141.795 59.363a32.829 32.829 0 0 0 12.15 2.542l197.07 3.108a32.765 32.765 0 0 0 15.56-3.649l231.34-119.384c4.47-2.308 5.83-8.06 2.86-12.123l-3.95-5.4a16.389 16.389 0 0 0-19.72-5.383Zm-829.591-126.81 21.935-15.33a8.203 8.203 0 0 1 9.401.01l23.132 16.186a4.112 4.112 0 0 1 1.44 4.924l-15.187 36.925a8.205 8.205 0 0 1-6.133 4.952l-20.714 3.72a8.194 8.194 0 0 1-5.818-1.132l-14.067-8.856a8.197 8.197 0 0 1-3.624-8.766l6.334-27.737a8.21 8.21 0 0 1 3.3-4.895l.001-.001Zm62.279 233.373-12.686 17.659a8.206 8.206 0 0 1-7.322 3.394l-56.33-4.575a16.394 16.394 0 0 1-14.575-12.35l-7.139-28.396a8.204 8.204 0 0 1 5.347-9.775l34.17-11.455a16.399 16.399 0 0 1 8.228-.57l24.9 4.662a16.4 16.4 0 0 1 11.07 7.728l14.722 24.695a8.207 8.207 0 0 1-.385 8.983Zm345.372-756.344-7.62-35.063a4.109 4.109 0 0 0-1.6-2.444 4.098 4.098 0 0 0-2.81-.77l-2.26.225c-.72.07-1.41.33-2 .753-.59.423-1.05.993-1.34 1.654l-21.79 48.86a32.804 32.804 0 0 1-17.8 17.1l-59.77 23.867a4.097 4.097 0 0 0-2.579 3.805v3.079a4.1 4.1 0 0 0 2.838 3.9 4.099 4.099 0 0 0 1.697.175l98.294-10.512a8.203 8.203 0 0 1 8.89 6.408l6.39 29.352a4.06 4.06 0 0 0 1.6 2.45 4.1 4.1 0 0 0 2.83.752l3.43-.365a4.09 4.09 0 0 0 3.37-2.546l16.09-39.905a32.731 32.731 0 0 1 14.46-16.384l44.35-24.71a4.08 4.08 0 0 0 2.1-3.58v-3.411a4.17 4.17 0 0 0-.35-1.67 4.179 4.179 0 0 0-1.01-1.381 4.108 4.108 0 0 0-1.48-.852c-.55-.177-1.12-.238-1.7-.177l-73.35 7.807a8.185 8.185 0 0 1-5.66-1.509 8.213 8.213 0 0 1-3.22-4.908ZM555.276 422.818 480.41 207.724a16.397 16.397 0 0 0-17.212-10.923l-44.583 4.715a16.41 16.41 0 0 0-13.596 10.447L319.563 435.27a32.672 32.672 0 0 1-2.546 5.22l-34.157 56.624a16.403 16.403 0 0 0-1.476 13.78l1.808 5.277a8.203 8.203 0 0 0 8.594 5.502l101.171-10.36a8.2 8.2 0 0 0 7.183-6.446l1.98-9.294a8.204 8.204 0 0 0-.475-4.933L388.3 459.398a16.4 16.4 0 0 1-.476-11.64l8.81-26.408a4.104 4.104 0 0 1 3.445-2.775l59.335-6.425a4.097 4.097 0 0 1 2.844.752 4.097 4.097 0 0 1 1.609 2.462l1.73 8.06a16.33 16.33 0 0 1 .012 6.82l-11.414 54.205a8.182 8.182 0 0 0 .967 5.86l5.322 9.007a8.226 8.226 0 0 0 3.39 3.159 8.226 8.226 0 0 0 4.56.822l105.222-11.464a8.204 8.204 0 0 0 7.315-8.155v-22.422c0-4.092-1.53-8.036-4.289-11.062l-14.649-16.04a32.797 32.797 0 0 1-6.757-11.336Zm-144.078-45.096L435.97 303.5c.66-1.98 3.514-1.825 3.949.217l15.133 70.549a4.094 4.094 0 0 1-1.948 4.405 4.093 4.093 0 0 1-1.619.531l-35.957 3.895c-2.969.32-5.277-2.542-4.33-5.375Zm-24.916 175.652-23.669 9.537a32.734 32.734 0 0 1-8.737 2.181l-156.489 16.884c-1.8.193-3.612.238-5.42.131l-39.84-2.32a8.232 8.232 0 0 0-4.645 1.127l-16.429 9.688a8.216 8.216 0 0 0-3.825 5.24l-12.808 56.154a8.198 8.198 0 0 0 5.137 9.508l16.45 6.117a8.176 8.176 0 0 0 5.727-.004l40.47-15.133c2.6-.972 5.31-1.616 8.07-1.903l35.436-3.71c5.047-.53 9.356 3.604 9.04 8.667l-8.663 138.375a32.786 32.786 0 0 1-1.336 7.442l-17.676 58.466a8.195 8.195 0 0 0 1.489 7.54l12.062 14.85a8.192 8.192 0 0 0 7.236 2.985l79.774-8.54a8.198 8.198 0 0 0 6.244-4.084l8.299-14.51a16.402 16.402 0 0 0 1.025-14.15l-14.276-27.527a32.786 32.786 0 0 1-3.653-16.53l6.793-155.338a8.21 8.21 0 0 1 7.434-7.806l25.608-2.37a32.734 32.734 0 0 1 11.041.849l38.458 9.692a8.184 8.184 0 0 0 4.478-.127l20.467-6.474a8.193 8.193 0 0 0 5.67-8.802l-7.42-61.275a8.205 8.205 0 0 0-5.073-6.617l-20.315-8.204a8.2 8.2 0 0 0-6.134-.009Zm557.756-228.488-35.715 3.936a4.102 4.102 0 0 0-3.58 3.333l-8.597 47.027a8.2 8.2 0 0 1-7.778 6.72l-6.662.233a4.098 4.098 0 0 1-4.24-3.907l-4.862-105.112a4.096 4.096 0 0 1 1.188-3.08 4.1 4.1 0 0 1 3.072-1.208l31.812 1.25a16.411 16.411 0 0 0 10.627-3.37l10.102-7.745a8.208 8.208 0 0 0 3.215-6.506V215.69a8.203 8.203 0 0 0-5.339-7.687l-7.872-2.932a16.382 16.382 0 0 0-8.913-.717l-37.412 7.413c-2.428.483-4.724-1.288-4.884-3.76l-2.345-36.093a16.375 16.375 0 0 0-4.46-10.217l-7.938-8.38a8.204 8.204 0 0 0-6.814-2.517l-24.317 2.57a4.103 4.103 0 0 0-3.641 3.625l-6.441 57.92a4.102 4.102 0 0 1-4.178 3.65l-26.658-.669a16.414 16.414 0 0 0-9.57 2.788l-10.402 7.003a8.196 8.196 0 0 0-3.624 6.802v36.043a8.213 8.213 0 0 0 4.207 7.167l9.938 5.547a16.418 16.418 0 0 0 11.68 1.652l15.536-3.587c2.82-.652 5.408 1.746 4.977 4.608l-20.065 132.278a16.41 16.41 0 0 0 7.819 16.552l55.411 33.022a16.394 16.394 0 0 0 12.345 1.828l68.63-17.027a16.4 16.4 0 0 0 8.585-5.338l24.789-29.369a16.376 16.376 0 0 0 3.846-9.827l1.697-37.384a16.378 16.378 0 0 0-1.152-6.827l-13.505-33.833a8.191 8.191 0 0 0-8.512-5.108Z"
      ></path>
      <path
        fill="#fff"
        d="m1189.47 662.438-28.12 2.952a8.225 8.225 0 0 0-5.11 2.533 8.224 8.224 0 0 0-2.22 5.249l-1.65 35.814a4.095 4.095 0 0 1-3.97 3.907l-6.61.201a8.176 8.176 0 0 1-5.78-2.142 8.19 8.19 0 0 1-2.66-5.562l-5.82-96.817c-.04-.573.05-1.148.25-1.686s.51-1.027.92-1.437c.4-.41.88-.73 1.42-.941.53-.211 1.1-.307 1.68-.282l32.75 1.422c4.15.18 8.2-1.216 11.36-3.907l8.75-7.466a8.152 8.152 0 0 0 2.09-2.736c.5-1.049.76-2.192.78-3.353l.75-41.487a8.224 8.224 0 0 0-1.56-4.954 8.171 8.171 0 0 0-4.22-3.025l-8.63-2.67c-2.6-.803-5.36-.946-8.03-.417l-37.9 7.51c-.57.114-1.16.104-1.73-.028a4.045 4.045 0 0 1-1.56-.741 4.072 4.072 0 0 1-1.12-1.321 3.904 3.904 0 0 1-.47-1.665l-2.44-37.543a16.492 16.492 0 0 0-4.84-10.607l-6.19-6.105a8.185 8.185 0 0 0-6.61-2.32l-22.29 2.332a8.229 8.229 0 0 0-4.93 2.337 8.253 8.253 0 0 0-2.37 4.908l-6.03 53.903a4.146 4.146 0 0 1-1.4 2.651 4.104 4.104 0 0 1-2.83.994l-27.1-.997a16.4 16.4 0 0 0-9.25 2.456l-11.6 7.196a8.208 8.208 0 0 0-2.9 3.083 8.197 8.197 0 0 0-.97 4.117l1.08 38.572a8.16 8.16 0 0 0 1.59 4.636 8.16 8.16 0 0 0 3.96 2.896l9.55 3.255c2.64.9 5.48 1.109 8.23.607l18.93-3.456c2.7-.492 5.12 1.759 4.81 4.49l-16.5 147.443c-.4 3.542.37 7.117 2.18 10.184a16.416 16.416 0 0 0 7.89 6.811l45.3 18.593a16.377 16.377 0 0 0 9.93.804l85.53-19.82a16.398 16.398 0 0 0 12.37-12.705l13.41-65.883c1-4.912-.3-10.012-3.53-13.846l-19.45-23.067a8.169 8.169 0 0 0-3.2-2.321 8.202 8.202 0 0 0-3.92-.549Z"
      ></path>
    </symbol>
    <symbol fill="none" viewBox="0 0 24 24" id="Instagram">
      <path
        fill="currentColor"
        d="M12 5.442c2.136 0 2.39.008 3.233.047 2.168.098 3.181 1.127 3.28 3.279.038.843.046 1.097.046 3.233s-.008 2.389-.046 3.232c-.1 2.15-1.11 3.181-3.28 3.28-.844.038-1.096.046-3.233.046-2.136 0-2.39-.008-3.233-.046-2.173-.1-3.18-1.133-3.279-3.28-.039-.844-.047-1.096-.047-3.233 0-2.136.009-2.389.047-3.233.1-2.151 1.11-3.18 3.28-3.279.843-.038 1.096-.046 3.232-.046ZM12 4c-2.173 0-2.445.01-3.298.048-2.905.133-4.52 1.745-4.653 4.653C4.009 9.555 4 9.827 4 12s.01 2.445.048 3.299c.133 2.905 1.745 4.52 4.653 4.653.854.039 1.126.048 3.299.048s2.445-.01 3.299-.048c2.902-.133 4.521-1.745 4.652-4.653.04-.854.049-1.126.049-3.299s-.01-2.445-.048-3.298c-.13-2.903-1.745-4.52-4.653-4.653C14.445 4.009 14.173 4 12 4Zm0 3.892a4.108 4.108 0 1 0 0 8.216 4.108 4.108 0 0 0 0-8.216Zm0 6.775a2.666 2.666 0 1 1 0-5.333 2.666 2.666 0 0 1 0 5.333Zm4.27-7.897a.96.96 0 1 0 0 1.92.96.96 0 0 0 0-1.92Z"
      ></path>
    </symbol>
    <symbol fill="none" id="Info">
      <path
        fill="currentColor"
        d="M6.965 11.2a.845.845 0 0 0 .621-.254.845.845 0 0 0 .254-.621.845.845 0 0 0-.254-.621.845.845 0 0 0-.621-.254.845.845 0 0 0-.621.254.845.845 0 0 0-.254.621c0 .245.085.452.254.621.169.17.376.254.621.254ZM7 14a6.816 6.816 0 0 1-2.73-.551 7.069 7.069 0 0 1-2.222-1.496A7.069 7.069 0 0 1 .55 9.73 6.816 6.816 0 0 1 0 7c0-.968.184-1.878.551-2.73a7.069 7.069 0 0 1 1.496-2.222A7.069 7.069 0 0 1 4.27.55 6.816 6.816 0 0 1 7 0c.968 0 1.878.184 2.73.551a7.069 7.069 0 0 1 2.223 1.496c.63.63 1.128 1.371 1.496 2.223.367.852.551 1.762.551 2.73s-.184 1.878-.551 2.73a7.068 7.068 0 0 1-1.496 2.223 7.068 7.068 0 0 1-2.223 1.496A6.816 6.816 0 0 1 7 14Zm.07-10.01c.292 0 .545.093.761.28.216.187.324.42.324.7 0 .257-.079.484-.236.683a4.378 4.378 0 0 1-.534.56c-.268.233-.505.49-.709.77-.204.28-.306.595-.306.945 0 .163.061.3.184.41.122.112.265.167.428.167a.623.623 0 0 0 .447-.175.806.806 0 0 0 .236-.438c.047-.245.152-.463.315-.656.163-.192.338-.376.525-.551.268-.257.499-.537.691-.84.193-.303.289-.642.289-1.015 0-.595-.242-1.082-.726-1.461A2.66 2.66 0 0 0 7.07 2.8a2.98 2.98 0 0 0-1.269.28 1.957 1.957 0 0 0-.918.857.631.631 0 0 0-.08.447c.03.157.109.277.237.358a.697.697 0 0 0 .945-.21c.128-.175.289-.309.481-.402.193-.093.394-.14.604-.14Z"
      ></path>
    </symbol>
    <symbol fill="none" viewBox="0 0 16 16" id="HowToReg">
      <path
        fill="currentColor"
        d="M10.37 13.32a.74.74 0 0 1-.25-.04.59.59 0 0 1-.22-.15l-1.37-1.36a.63.63 0 0 1-.18-.47c0-.19.06-.34.18-.47a.63.63 0 0 1 .47-.18c.19 0 .34.06.47.18l.9.9 2.9-2.9a.63.63 0 0 1 .46-.18c.2 0 .35.06.47.18.12.13.18.28.18.47 0 .19-.06.34-.18.47l-3.37 3.36a.58.58 0 0 1-.21.15.74.74 0 0 1-.25.04ZM6.67 8c-.74 0-1.36-.26-1.89-.78A2.57 2.57 0 0 1 4 5.33c0-.73.26-1.36.78-1.88a2.57 2.57 0 0 1 1.89-.78c.73 0 1.36.26 1.88.78.52.52.78 1.15.78 1.88 0 .74-.26 1.36-.78 1.89-.52.52-1.15.78-1.88.78ZM2 13.33a.65.65 0 0 1-.47-.19.64.64 0 0 1-.2-.47v-1.2c0-.37.1-.71.29-1.04.19-.32.45-.56.78-.73.57-.29 1.2-.53 1.92-.73a8.66 8.66 0 0 1 3.32-.25c.32.03.63.08.93.15l-1.5 1.5c-.26.25-.38.57-.38.94s.14.68.4.94l1.08 1.08H2Z"
      ></path>
    </symbol>
    <symbol fill="none" id="Home">
      <path
        fill="currentColor"
        d="M4.5 19v-8.846a1.795 1.795 0 0 1 .723-1.446l5.692-4.289a1.738 1.738 0 0 1 1.083-.361c.407 0 .769.12 1.087.361l5.692 4.289c.226.165.403.376.53.632.129.257.193.528.193.814V19c0 .409-.148.761-.443 1.057A1.443 1.443 0 0 1 18 20.5h-3.192a.874.874 0 0 1-.644-.26.874.874 0 0 1-.26-.644v-4.885a.874.874 0 0 0-.26-.643.874.874 0 0 0-.644-.26h-2a.875.875 0 0 0-.644.26.874.874 0 0 0-.26.643v4.885c0 .256-.087.47-.26.644a.874.874 0 0 1-.644.26H6c-.409 0-.761-.148-1.057-.443A1.443 1.443 0 0 1 4.5 19Z"
      ></path>
    </symbol>
    <symbol fill="none" id="Help">
      <path
        fill="currentColor"
        d="M12.02 17.567a.984.984 0 0 0 .723-.295.985.985 0 0 0 .296-.724.984.984 0 0 0-.296-.724.984.984 0 0 0-.724-.295.985.985 0 0 0-.724.295.985.985 0 0 0-.295.724c0 .286.098.527.295.724a.985.985 0 0 0 .724.295Zm3.234-8.434c0-.83-.282-1.5-.845-2.01-.564-.512-1.297-.767-2.201-.767-.654 0-1.248.143-1.781.429a3.22 3.22 0 0 0-1.271 1.227.471.471 0 0 0-.017.475c.079.171.21.294.392.369a.7.7 0 0 0 .5.007.858.858 0 0 0 .425-.32c.196-.29.435-.506.716-.653.282-.146.6-.219.955-.219.511 0 .926.141 1.243.423.318.282.476.644.476 1.085 0 .3-.09.604-.271.911-.18.308-.465.629-.852.962-.433.396-.757.76-.97 1.094a2.711 2.711 0 0 0-.401 1.137.566.566 0 0 0 .16.483c.133.147.3.22.503.22.182 0 .345-.06.489-.18a.794.794 0 0 0 .271-.483c.05-.273.145-.518.285-.737.14-.217.376-.493.71-.826.575-.576.966-1.047 1.173-1.415.207-.367.31-.771.31-1.212ZM5.308 20.5c-.505 0-.933-.175-1.283-.525a1.745 1.745 0 0 1-.525-1.283V5.308c0-.505.175-.933.525-1.283.35-.35.778-.525 1.283-.525h13.384c.505 0 .933.175 1.283.525.35.35.525.778.525 1.283v13.384c0 .505-.175.933-.525 1.283-.35.35-.778.525-1.283.525H5.308Z"
      ></path>
    </symbol>
    <symbol viewBox="0 0 24 24" fill="none" id="Face">
      <path
        fill="currentColor"
        d="M8.75 14c-.35 0-.646-.12-.888-.363a1.207 1.207 0 0 1-.362-.887c0-.35.12-.646.362-.887.242-.242.538-.363.888-.363s.646.12.887.363c.242.241.363.537.363.887s-.12.646-.363.887A1.207 1.207 0 0 1 8.75 14Zm6 0c-.35 0-.646-.12-.887-.363a1.207 1.207 0 0 1-.363-.887c0-.35.12-.646.363-.887.241-.242.537-.363.887-.363s.646.12.887.363c.242.241.363.537.363.887s-.12.646-.363.887a1.207 1.207 0 0 1-.887.363Zm-3 5.75c2.233 0 4.125-.775 5.675-2.325 1.55-1.55 2.325-3.442 2.325-5.675 0-.4-.025-.787-.075-1.162A4.844 4.844 0 0 0 19.4 9.5c-.35.083-.7.146-1.05.187a9.31 9.31 0 0 1-1.1.063 9.787 9.787 0 0 1-4.3-.975A9.983 9.983 0 0 1 9.5 6.05a9.86 9.86 0 0 1-2.288 3.387A9.77 9.77 0 0 1 3.75 11.6v.15c0 2.233.775 4.125 2.325 5.675 1.55 1.55 3.442 2.325 5.675 2.325Zm.002 1.5a9.255 9.255 0 0 1-3.705-.748 9.598 9.598 0 0 1-3.018-2.03A9.591 9.591 0 0 1 3 15.456a9.245 9.245 0 0 1-.749-3.704c0-1.314.25-2.55.748-3.705a9.597 9.597 0 0 1 2.03-3.018A9.592 9.592 0 0 1 8.044 3a9.245 9.245 0 0 1 3.704-.749c1.314 0 2.55.25 3.705.748a9.597 9.597 0 0 1 3.018 2.03 9.592 9.592 0 0 1 2.03 3.016 9.245 9.245 0 0 1 .749 3.704c0 1.314-.25 2.55-.748 3.705a9.598 9.598 0 0 1-2.03 3.018 9.592 9.592 0 0 1-3.016 2.03 9.245 9.245 0 0 1-3.704.749Z"
      ></path>
    </symbol>
    <symbol fill="none" id="Diversity">
      <path
        fill="currentColor"
        d="M6.6 3.5c1.03 0 2.016.242 2.957.725A7.308 7.308 0 0 1 12 6.279a7.308 7.308 0 0 1 2.443-2.054A6.384 6.384 0 0 1 17.4 3.5c1.713 0 3.158.588 4.335 1.765S23.5 7.887 23.5 9.6c0 .62-.09 1.244-.27 1.87a9.617 9.617 0 0 1-.776 1.888 3.058 3.058 0 0 0-.51-.61 2.517 2.517 0 0 0-.66-.436c.234-.473.412-.933.533-1.38.122-.447.183-.891.183-1.332 0-1.294-.443-2.384-1.33-3.27C19.784 5.443 18.694 5 17.4 5c-1.19 0-2.176.34-2.959 1.021-.782.68-1.596 1.54-2.44 2.579-.846-1.049-1.66-1.91-2.442-2.587C8.776 5.338 7.789 5 6.6 5c-1.294 0-2.384.443-3.27 1.33C2.443 7.216 2 8.306 2 9.6c0 .454.061.906.183 1.356.122.45.296.905.523 1.365a2.705 2.705 0 0 0-.654.441c-.192.177-.36.378-.506.605A8.863 8.863 0 0 1 .77 11.5 6.929 6.929 0 0 1 .5 9.6c0-1.713.589-3.158 1.765-4.335C3.442 4.088 4.887 3.5 6.6 3.5ZM1.365 21.52a.837.837 0 0 1-.616-.25.837.837 0 0 1-.249-.616V20.3c0-.676.344-1.223 1.033-1.642.688-.42 1.594-.63 2.717-.63.204 0 .397.008.579.021.182.014.358.037.529.07-.189.295-.327.61-.417.945-.089.336-.133.691-.133 1.067v1.388H1.365Zm6.039 0a.875.875 0 0 1-.645-.26.875.875 0 0 1-.259-.645v-.446c0-.955.506-1.725 1.518-2.31 1.013-.586 2.34-.878 3.982-.878 1.653 0 2.982.292 3.99.878 1.007.585 1.51 1.355 1.51 2.31v.446a.876.876 0 0 1-.259.646.875.875 0 0 1-.645.258H7.404Zm11.788 0v-1.39a3.812 3.812 0 0 0-.55-2.012c.17-.032.347-.055.53-.069.181-.013.374-.02.578-.02 1.123 0 2.029.21 2.717.629.689.419 1.033.966 1.033 1.642v.354c0 .245-.083.45-.249.616a.837.837 0 0 1-.616.25h-3.443ZM4.25 17.057c-.473 0-.875-.167-1.206-.501a1.657 1.657 0 0 1-.496-1.21c0-.474.166-.877.496-1.211.331-.334.733-.501 1.206-.501s.877.167 1.21.5c.335.335.502.738.502 1.211 0 .473-.167.877-.501 1.21a1.65 1.65 0 0 1-1.21.502Zm15.5 0a1.65 1.65 0 0 1-1.21-.501 1.65 1.65 0 0 1-.502-1.21c0-.474.168-.877.502-1.211a1.65 1.65 0 0 1 1.21-.501c.473 0 .875.167 1.206.5.33.335.496.738.496 1.211 0 .473-.165.877-.496 1.21-.331.335-.733.502-1.206.502ZM12 16.23c-.718 0-1.33-.253-1.836-.76a2.502 2.502 0 0 1-.76-1.836c0-.718.253-1.33.76-1.837a2.502 2.502 0 0 1 1.836-.76c.718 0 1.33.254 1.837.76.506.507.76 1.119.76 1.837s-.254 1.33-.76 1.836a2.502 2.502 0 0 1-1.837.76Z"
      ></path>
    </symbol>
    <symbol fill="none" viewBox="0 0 24 24" id="Discord">
      <path
        fill="currentColor"
        d="M18.892 5.29a16.555 16.555 0 0 0-4.194-1.317c-.18.326-.392.766-.537 1.115a15.398 15.398 0 0 0-4.648 0c-.145-.35-.361-.789-.543-1.115a16.5 16.5 0 0 0-4.197 1.32c-2.654 4.011-3.374 7.922-3.014 11.778a16.766 16.766 0 0 0 5.143 2.635 12.79 12.79 0 0 0 1.102-1.814 10.824 10.824 0 0 1-1.735-.844c.146-.108.288-.22.426-.337 3.344 1.565 6.978 1.565 10.283 0 .139.116.281.229.425.337-.55.331-1.132.615-1.738.846.319.637.686 1.244 1.102 1.814a16.736 16.736 0 0 0 5.146-2.637c.422-4.47-.72-8.345-3.021-11.78ZM8.46 14.7c-1.004 0-1.828-.938-1.828-2.08 0-1.14.806-2.08 1.828-2.08 1.021 0 1.845.938 1.827 2.08.002 1.142-.806 2.08-1.827 2.08Zm6.753 0c-1.004 0-1.827-.938-1.827-2.08 0-1.14.805-2.08 1.827-2.08 1.022 0 1.845.938 1.827 2.08 0 1.142-.805 2.08-1.827 2.08Z"
      ></path>
    </symbol>
    <symbol fill="none" viewBox="0 0 32 32" id="CursorIdle">
      <path
        fill="#FAFAFA"
        d="m12.37 28.67-4.84-10.4L2 26V2l18.67 14.67H11.2l4.8 10.3-3.63 1.7Z"
      ></path>
      <path
        fill="#0D0D0D"
        fill-rule="evenodd"
        d="M11.68 30.55a1.998 1.998 0 0 1-1.13-1.04l-3.39-7.3-3.53 4.95A2 2 0 0 1 0 26V2A2 2 0 0 1 3.24.43L21.9 15.09a2 2 0 0 1-1.23 3.58h-6.33l3.47 7.45a2 2 0 0 1-.96 2.66l-3.64 1.7a2.002 2.002 0 0 1-1.53.07Zm-.48-13.88h9.47L2 2v24l5.53-7.73 4.84 10.4 3.63-1.7-4.8-10.3Z"
        clip-rule="evenodd"
      ></path>
    </symbol>
    <symbol fill="none" viewBox="0 0 24 24" id="ContactSupport">
      <path
        fill="currentColor"
        d="M12.942 19H11.5c-2.088 0-3.86-.728-5.316-2.183C4.728 15.362 4 13.591 4 11.504c0-2.087.728-3.86 2.183-5.317C7.64 4.729 9.41 4 11.498 4a7.35 7.35 0 0 1 2.93.586c.91.39 1.704.925 2.383 1.603a7.55 7.55 0 0 1 1.603 2.38c.39.907.586 1.884.586 2.931a9.884 9.884 0 0 1-1.33 4.985 12.789 12.789 0 0 1-3.435 3.913 1.053 1.053 0 0 1-.414.133.717.717 0 0 1-.402-.089.902.902 0 0 1-.32-.277.718.718 0 0 1-.128-.407L12.942 19Zm-1.406-2.429a.703.703 0 0 0 .52-.216.718.718 0 0 0 .213-.523.702.702 0 0 0-.216-.52.717.717 0 0 0-.523-.214.703.703 0 0 0-.52.216.718.718 0 0 0-.214.524c0 .204.072.377.217.52a.718.718 0 0 0 .523.213Zm-2.077-7.37a.438.438 0 0 0 .347-.008.643.643 0 0 0 .283-.245c.137-.226.33-.405.582-.54.251-.133.54-.2.867-.2.492 0 .89.128 1.198.385.307.257.46.604.46 1.041 0 .271-.066.524-.197.76s-.355.512-.672.83c-.43.417-.738.776-.925 1.075-.187.3-.28.59-.28.872 0 .131.042.243.128.336.086.093.19.14.31.14a.392.392 0 0 0 .305-.14.603.603 0 0 0 .146-.342c.033-.206.144-.435.335-.688.191-.253.423-.516.696-.789.376-.375.645-.73.807-1.062.162-.333.243-.666.243-1 0-.685-.237-1.236-.71-1.654-.474-.417-1.076-.626-1.805-.626-.49 0-.943.12-1.356.359-.414.239-.725.524-.932.856a.533.533 0 0 0-.065.388c.03.124.108.208.235.253Z"
      ></path>
    </symbol>
    <symbol viewBox="0 0 16 16" fill="none" id="Close">
      <path
        fill="currentColor"
        d="M8 8.933 4.733 12.2a.632.632 0 0 1-.466.183.632.632 0 0 1-.467-.183.632.632 0 0 1-.183-.467c0-.189.06-.344.183-.466L7.067 8 3.8 4.733a.632.632 0 0 1-.183-.466c0-.19.06-.345.183-.467a.632.632 0 0 1 .467-.183c.189 0 .344.06.466.183L8 7.067 11.267 3.8a.632.632 0 0 1 .466-.183c.19 0 .345.06.467.183a.632.632 0 0 1 .183.467.632.632 0 0 1-.183.466L8.933 8l3.267 3.267a.632.632 0 0 1 .183.466.632.632 0 0 1-.183.467.632.632 0 0 1-.467.183.632.632 0 0 1-.466-.183L8 8.933Z"
      ></path>
    </symbol>
    <symbol fill="none" id="Check">
      <path
        fill="currentColor"
        d="m9.55 18-5.7-5.7 1.425-1.425L9.55 15.15l9.175-9.175L20.15 7.4 9.55 18Z"
      ></path>
    </symbol>
    <symbol fill="none" id="CheckCircle">
      <path
        fill="currentColor"
        d="M6.02 8.26 4.515 6.755a.664.664 0 0 0-.49-.192.664.664 0 0 0-.49.192.664.664 0 0 0-.193.49c0 .198.065.362.193.49L5.53 9.73c.14.14.303.21.49.21s.35-.07.49-.21l3.955-3.955a.664.664 0 0 0 .193-.49.664.664 0 0 0-.193-.49.664.664 0 0 0-.49-.192.664.664 0 0 0-.49.192L6.02 8.26ZM7 14a6.816 6.816 0 0 1-2.73-.551 7.069 7.069 0 0 1-2.222-1.496A7.069 7.069 0 0 1 .55 9.73 6.816 6.816 0 0 1 0 7c0-.968.184-1.878.551-2.73a7.069 7.069 0 0 1 1.496-2.222A7.069 7.069 0 0 1 4.27.55 6.816 6.816 0 0 1 7 0c.968 0 1.878.184 2.73.551a7.069 7.069 0 0 1 2.223 1.496c.63.63 1.128 1.371 1.496 2.223.367.852.551 1.762.551 2.73s-.184 1.878-.551 2.73a7.068 7.068 0 0 1-1.496 2.223 7.068 7.068 0 0 1-2.223 1.496A6.816 6.816 0 0 1 7 14Z"
      ></path>
    </symbol>
    <symbol fill="none" viewBox="0 0 24 24" id="CaptivePortal">
      <path
        fill="currentColor"
        d="M9.4 19.55c-.3-.55-.563-1.12-.787-1.713A14.688 14.688 0 0 1 8.05 16H5.1a8.3 8.3 0 0 0 1.813 2.175A7.195 7.195 0 0 0 9.4 19.55ZM4.25 14h3.4a13.208 13.208 0 0 1-.15-2 13.208 13.208 0 0 1 .15-2h-3.4A7.959 7.959 0 0 0 4 12a7.959 7.959 0 0 0 .25 2Zm.85-6h2.95c.15-.633.337-1.246.563-1.838C8.838 5.571 9.1 5 9.4 4.45c-.933.3-1.763.758-2.488 1.375A8.298 8.298 0 0 0 5.1 8Zm5 0h3.8c-.2-.733-.458-1.425-.775-2.075A12.701 12.701 0 0 0 12 4.05c-.433.6-.808 1.225-1.125 1.875-.317.65-.575 1.342-.775 2.075Zm5.85 0h2.95a8.298 8.298 0 0 0-1.813-2.175A7.196 7.196 0 0 0 14.6 4.45c.3.55.563 1.12.787 1.712.226.592.413 1.205.563 1.838ZM12 22a9.676 9.676 0 0 1-3.875-.788 10.144 10.144 0 0 1-3.188-2.15 10.142 10.142 0 0 1-2.15-3.187A9.676 9.676 0 0 1 2 12c0-1.383.263-2.68.788-3.887a10.183 10.183 0 0 1 2.15-3.175 10.143 10.143 0 0 1 3.187-2.15A9.676 9.676 0 0 1 12 2c1.383 0 2.68.263 3.887.788a10.183 10.183 0 0 1 3.175 2.15 10.184 10.184 0 0 1 2.15 3.175A9.649 9.649 0 0 1 22 12a10.051 10.051 0 0 1-.05 1h-2.025c.033-.167.054-.33.063-.488.008-.158.012-.329.012-.512a7.953 7.953 0 0 0-.25-2h-3.4a13.208 13.208 0 0 1 .15 2v.512c0 .159-.008.321-.025.488h-2a4.89 4.89 0 0 0 .025-.488V12a13.208 13.208 0 0 0-.15-2h-4.7a13.208 13.208 0 0 0-.15 2 13.208 13.208 0 0 0 .15 2H13v2h-2.9c.2.733.458 1.425.775 2.075.317.65.692 1.275 1.125 1.875a16.913 16.913 0 0 0 1-1.65v3.65a10.307 10.307 0 0 1-1 .05Zm5-3.575v1.225c0 .283-.096.52-.288.713a.968.968 0 0 1-.712.287.968.968 0 0 1-.713-.287.968.968 0 0 1-.287-.713V16c0-.283.096-.52.287-.713A.968.968 0 0 1 16 15h3.65c.283 0 .52.096.713.287.191.192.287.43.287.713s-.096.52-.287.712a.968.968 0 0 1-.713.288H18.4l2.25 2.25a.933.933 0 0 1 .275.688c0 .274-.092.512-.275.712-.2.2-.438.3-.712.3a.973.973 0 0 1-.713-.3L17 18.425Z"
      ></path>
    </symbol>
    <symbol fill="none" id="CancelCircle">
      <path
        fill="currentColor"
        d="m7 7.98 2.03 2.03a.664.664 0 0 0 .49.193.664.664 0 0 0 .49-.193.664.664 0 0 0 .193-.49.664.664 0 0 0-.193-.49L7.98 7l2.03-2.03a.664.664 0 0 0 .193-.49.664.664 0 0 0-.193-.49.664.664 0 0 0-.49-.193.664.664 0 0 0-.49.193L7 6.02 4.97 3.99a.664.664 0 0 0-.49-.193.664.664 0 0 0-.49.193.664.664 0 0 0-.193.49c0 .198.065.362.193.49L6.02 7 3.99 9.03a.664.664 0 0 0-.193.49c0 .198.065.362.193.49a.664.664 0 0 0 .49.193.664.664 0 0 0 .49-.193L7 7.98ZM7 14a6.816 6.816 0 0 1-2.73-.551 7.069 7.069 0 0 1-2.222-1.496A7.069 7.069 0 0 1 .55 9.73 6.816 6.816 0 0 1 0 7c0-.968.184-1.878.551-2.73a7.069 7.069 0 0 1 1.496-2.222A7.069 7.069 0 0 1 4.27.55 6.816 6.816 0 0 1 7 0c.968 0 1.878.184 2.73.551a7.069 7.069 0 0 1 2.223 1.496c.63.63 1.128 1.371 1.496 2.223.367.852.551 1.762.551 2.73s-.184 1.878-.551 2.73a7.068 7.068 0 0 1-1.496 2.223 7.068 7.068 0 0 1-2.223 1.496A6.816 6.816 0 0 1 7 14Z"
      ></path>
    </symbol>
    <symbol fill="none" id="Calendar">
      <path
        fill="currentColor"
        d="M5.308 21.5c-.505 0-.933-.175-1.283-.525a1.745 1.745 0 0 1-.525-1.283V6.308c0-.505.175-.933.525-1.283.35-.35.778-.525 1.283-.525h1.384V3.154c0-.22.074-.402.22-.55a.745.745 0 0 1 .55-.22c.219 0 .402.074.549.22.146.148.22.33.22.55V4.5h7.577V3.135c0-.213.072-.391.215-.535a.726.726 0 0 1 .535-.215c.212 0 .39.071.534.215a.726.726 0 0 1 .216.535V4.5h1.384c.505 0 .933.175 1.283.525.35.35.525.778.525 1.283v13.384c0 .505-.175.933-.525 1.283-.35.35-.778.525-1.283.525H5.308Zm0-1.5h13.384a.294.294 0 0 0 .212-.096.294.294 0 0 0 .096-.212v-9.384H5v9.384c0 .077.032.148.096.212a.294.294 0 0 0 .212.096ZM12 14.077a.853.853 0 0 1-.626-.259.853.853 0 0 1-.259-.626c0-.245.087-.453.26-.626a.852.852 0 0 1 .625-.258c.245 0 .454.086.626.258a.853.853 0 0 1 .259.626.853.853 0 0 1-.259.626.853.853 0 0 1-.626.259Zm-4 0a.853.853 0 0 1-.626-.259.853.853 0 0 1-.259-.626c0-.245.087-.453.26-.626A.852.852 0 0 1 8 12.308c.245 0 .454.086.626.258a.853.853 0 0 1 .259.626.853.853 0 0 1-.259.626.853.853 0 0 1-.626.259Zm8 0a.853.853 0 0 1-.626-.259.853.853 0 0 1-.259-.626c0-.245.087-.453.26-.626a.852.852 0 0 1 .625-.258c.245 0 .454.086.626.258a.853.853 0 0 1 .259.626.853.853 0 0 1-.259.626.853.853 0 0 1-.626.259ZM12 18a.852.852 0 0 1-.626-.259.853.853 0 0 1-.259-.626c0-.244.087-.453.26-.626a.853.853 0 0 1 .625-.258c.245 0 .454.086.626.258a.853.853 0 0 1 .259.626.852.852 0 0 1-.259.626A.852.852 0 0 1 12 18Zm-4 0a.852.852 0 0 1-.626-.259.852.852 0 0 1-.259-.626c0-.244.087-.453.26-.626A.853.853 0 0 1 8 16.231c.245 0 .454.086.626.258a.853.853 0 0 1 .259.626.852.852 0 0 1-.259.626A.852.852 0 0 1 8 18Zm8 0a.852.852 0 0 1-.626-.259.853.853 0 0 1-.259-.626c0-.244.087-.453.26-.626a.853.853 0 0 1 .625-.258c.245 0 .454.086.626.258a.853.853 0 0 1 .259.626.852.852 0 0 1-.259.626A.852.852 0 0 1 16 18Z"
      ></path>
    </symbol>
    <symbol fill="none" viewBox="0 0 24 24" id="Arrow">
      <path
        fill="currentColor"
        d="m11.25 7.37-5.17 5.17a.7.7 0 0 1-.52.22.74.74 0 0 1-.53-.23.78.78 0 0 1-.23-.53c0-.2.07-.37.23-.53l6.34-6.34a.83.83 0 0 1 .63-.25c.12 0 .23.02.34.05.1.04.2.1.3.2l6.33 6.34c.14.14.21.31.22.52 0 .2-.07.38-.22.54a.74.74 0 0 1-.53.23.74.74 0 0 1-.54-.23l-5.15-5.16v11.38c0 .21-.07.4-.22.53a.73.73 0 0 1-.53.22.73.73 0 0 1-.53-.22.73.73 0 0 1-.22-.53V7.37Z"
      ></path>
      <path
        fill="#000"
        fill-opacity=".2"
        d="m11.25 7.37-5.17 5.17a.7.7 0 0 1-.52.22.74.74 0 0 1-.53-.23.78.78 0 0 1-.23-.53c0-.2.07-.37.23-.53l6.34-6.34a.83.83 0 0 1 .63-.25c.12 0 .23.02.34.05.1.04.2.1.3.2l6.33 6.34c.14.14.21.31.22.52 0 .2-.07.38-.22.54a.74.74 0 0 1-.53.23.74.74 0 0 1-.54-.23l-5.15-5.16v11.38c0 .21-.07.4-.22.53a.73.73 0 0 1-.53.22.73.73 0 0 1-.53-.22.73.73 0 0 1-.22-.53V7.37Z"
      ></path>
    </symbol>
    <symbol fill="none" viewBox="0 0 32 32" id="Add">
      <path
        fill="currentColor"
        d="M4.12 17.32v-2.64h10.56V4.12h2.64v10.56h10.56v2.64H17.32v10.56h-2.64V17.32H4.12Z"
      ></path>
    </symbol>
  </defs>
</svg>
