<?xml version="1.0" encoding="UTF-8"?>
<svg
  xmlns="http://www.w3.org/2000/svg"
  xmlns:xlink="http://www.w3.org/1999/xlink"
  width="0"
  height="0"
>
  <defs>
    <symbol fill="none" viewBox="0 0 20 20" id="Warn">
      <path
        fill="currentColor"
        d="M1.756 18A.865.865 0 0 1 1 17.556a.976.976 0 0 1-.122-.434.798.798 0 0 1 .122-.455L9.222 2.444a.874.874 0 0 1 .345-.333A.92.92 0 0 1 10 2a.92.92 0 0 1 .433.111c.141.074.256.185.345.333L19 16.667c.089.148.13.3.122.455a.977.977 0 0 1-.122.434.866.866 0 0 1-.756.444H1.756ZM10 15.333a.86.86 0 0 0 .633-.255.86.86 0 0 0 .256-.634.86.86 0 0 0-.256-.633.86.86 0 0 0-.633-.255.86.86 0 0 0-.633.255.86.86 0 0 0-.256.633.86.86 0 0 0 .256.634.86.86 0 0 0 .633.255Zm0-2.666a.86.86 0 0 0 .633-.256.86.86 0 0 0 .256-.633V9.11a.86.86 0 0 0-.256-.633.86.86 0 0 0-.633-.256.86.86 0 0 0-.633.256.86.86 0 0 0-.256.633v2.667a.86.86 0 0 0 .256.633.86.86 0 0 0 .633.256Z"
      ></path>
    </symbol>
    <symbol fill="none" viewBox="0 0 24 24" id="Twitch">
      <path
        fill="currentColor"
        fill-rule="evenodd"
        d="M5.195 4 4 7.09v12.626h4.25V22h2.39l2.258-2.284h3.453L21 15.014V4H5.195Zm14.21 10.209-2.655 2.686H12.5l-2.258 2.284v-2.284H6.656V5.612h12.75v8.597ZM16.75 8.702v4.696h-1.594V8.702h1.594Zm-4.25 0v4.696h-1.594V8.702H12.5Z"
        clip-rule="evenodd"
      ></path>
    </symbol>
    <symbol fill="none" id="Train">
      <path
        fill="currentColor"
        d="M4.5 15.308V6c0-.768.208-1.382.625-1.843.417-.461.973-.813 1.668-1.056.696-.243 1.495-.404 2.4-.483C10.095 2.54 11.031 2.5 12 2.5c1.036 0 2.01.04 2.92.118.911.08 1.707.24 2.387.482.68.241 1.216.593 1.607 1.055.39.462.586 1.077.586 1.845v9.308c0 .893-.309 1.649-.926 2.266s-1.373.926-2.266.926l.846.846c.22.22.27.466.155.741-.116.276-.328.413-.637.413a.712.712 0 0 1-.26-.048.627.627 0 0 1-.22-.144L14.385 18.5h-4.77l-1.807 1.808a.635.635 0 0 1-.223.144.727.727 0 0 1-.262.048.634.634 0 0 1-.626-.413c-.12-.274-.07-.522.15-.74l.845-.847c-.893 0-1.649-.309-2.266-.926S4.5 16.201 4.5 15.308ZM6 10.5h5.25V6.77H6v3.73Zm6.75 0H18V6.77h-5.25v3.73Zm-4.252 5.308c.377 0 .69-.124.938-.37.248-.247.372-.559.372-.936s-.124-.69-.37-.938a1.264 1.264 0 0 0-.936-.372c-.377 0-.69.124-.938.37a1.264 1.264 0 0 0-.372.936c0 .377.124.69.37.938.247.248.559.372.936.372Zm7 0c.377 0 .69-.124.938-.37.248-.247.372-.559.372-.936s-.124-.69-.37-.938a1.264 1.264 0 0 0-.936-.372c-.377 0-.69.124-.938.37a1.264 1.264 0 0 0-.372.936c0 .377.124.69.37.938.247.248.559.372.936.372Z"
      ></path>
    </symbol>
    <symbol fill="none" viewBox="0 0 16 16" id="Timer">
      <path
        fill="currentColor"
        d="M6.67 2a.65.65 0 0 1-.48-.2.65.65 0 0 1-.19-.47c0-.19.06-.34.2-.47.12-.13.28-.2.47-.2h2.66c.2 0 .35.07.48.2s.19.28.19.47c0 .2-.06.35-.2.48a.65.65 0 0 1-.47.19H6.67ZM8 9.33c.19 0 .35-.06.47-.19.13-.13.2-.28.2-.47V6a.65.65 0 0 0-.2-.47.65.65 0 0 0-.47-.2.65.65 0 0 0-.47.2.65.65 0 0 0-.2.47v2.67c0 .19.07.34.2.47.12.13.28.2.47.2Zm0 5.34a6.13 6.13 0 0 1-5.53-3.68A5.76 5.76 0 0 1 2 8.67a6.13 6.13 0 0 1 3.67-5.53 5.95 5.95 0 0 1 6.1.83l.46-.47a.63.63 0 0 1 .47-.18c.19 0 .34.06.47.18.12.12.18.28.18.47 0 .19-.06.34-.18.46l-.47.47a5.95 5.95 0 0 1-.47 8A6.13 6.13 0 0 1 8 14.67Z"
      ></path>
    </symbol>
    <symbol fill="none" viewBox="0 0 24 24" id="Settings">
      <path
        fill="currentColor"
        d="M13.875 22h-3.75a.934.934 0 0 1-.65-.25.997.997 0 0 1-.325-.625l-.3-2.325a3.79 3.79 0 0 1-.613-.3 8.266 8.266 0 0 1-.562-.375l-2.175.9a1.119 1.119 0 0 1-.7.025.93.93 0 0 1-.55-.425L2.4 15.4a.94.94 0 0 1-.125-.7.96.96 0 0 1 .375-.6l1.875-1.425a2.387 2.387 0 0 1-.025-.338v-.675c0-.108.008-.22.025-.337L2.65 9.9a.96.96 0 0 1-.375-.6.94.94 0 0 1 .125-.7l1.85-3.225a.786.786 0 0 1 .537-.438c.242-.058.48-.045.713.038l2.175.9c.183-.133.375-.258.575-.375.2-.117.4-.217.6-.3l.3-2.325a.997.997 0 0 1 .325-.625c.183-.167.4-.25.65-.25h3.75c.25 0 .466.083.65.25a.996.996 0 0 1 .325.625l.3 2.325c.216.083.42.183.612.3.192.117.38.242.563.375l2.175-.9a1.12 1.12 0 0 1 .7-.025.929.929 0 0 1 .55.425L21.6 8.6a.94.94 0 0 1 .125.7.959.959 0 0 1-.375.6l-1.875 1.425c.016.117.025.23.025.338v.675c0 .108-.017.22-.05.337l1.875 1.425c.2.15.325.35.375.6a.94.94 0 0 1-.125.7l-1.85 3.2a.982.982 0 0 1-.563.438c-.241.075-.479.07-.712-.013l-2.125-.9a6.826 6.826 0 0 1-.575.375c-.2.117-.4.217-.6.3l-.3 2.325a.996.996 0 0 1-.325.625.934.934 0 0 1-.65.25Zm-1.825-6.5c.966 0 1.791-.342 2.475-1.025A3.372 3.372 0 0 0 15.55 12c0-.967-.342-1.792-1.025-2.475A3.372 3.372 0 0 0 12.05 8.5c-.984 0-1.813.342-2.488 1.025A3.393 3.393 0 0 0 8.55 12c0 .967.337 1.792 1.012 2.475S11.067 15.5 12.05 15.5Z"
      ></path>
    </symbol>
    <symbol fill="none" id="Search">
      <path
        fill="currentColor"
        d="M9.52 15.615c-1.708 0-3.155-.592-4.34-1.777-1.184-1.184-1.776-2.63-1.776-4.338 0-1.708.592-3.154 1.777-4.338 1.184-1.185 2.63-1.777 4.338-1.777 1.708 0 3.154.592 4.339 1.777 1.184 1.184 1.777 2.63 1.777 4.338 0 .714-.12 1.396-.36 2.046-.24.65-.56 1.216-.96 1.696l5.754 5.754c.139.139.21.313.213.522a.707.707 0 0 1-.213.532.718.718 0 0 1-.527.217.718.718 0 0 1-.527-.217l-5.754-5.754c-.5.413-1.074.736-1.724.97-.65.233-1.323.35-2.018.35Zm0-1.5c1.288 0 2.379-.447 3.273-1.34.895-.895 1.342-1.986 1.342-3.275 0-1.288-.447-2.38-1.342-3.274-.894-.894-1.985-1.341-3.274-1.341-1.288 0-2.38.447-3.274 1.341-.894.894-1.341 1.986-1.341 3.274 0 1.289.447 2.38 1.341 3.274.894.894 1.986 1.341 3.274 1.341Z"
      ></path>
    </symbol>
    <symbol fill="none" viewBox="0 0 24 24" id="QuestionMark">
      <path
        fill="currentColor"
        d="M14.956 8.017c0-.825-.276-1.488-.828-1.99-.552-.5-1.28-.75-2.186-.75-.573 0-1.08.117-1.524.35-.443.235-.825.587-1.147 1.058-.19.268-.443.426-.76.475a.988.988 0 0 1-.832-.233.858.858 0 0 1-.301-.574.987.987 0 0 1 .16-.655c.508-.768 1.136-1.352 1.884-1.752.748-.4 1.588-.6 2.52-.6 1.489 0 2.7.426 3.635 1.279.935.853 1.402 1.963 1.402 3.33 0 .725-.155 1.389-.466 1.992-.31.603-.839 1.252-1.586 1.947-.7.635-1.178 1.15-1.433 1.545-.255.396-.403.84-.444 1.334a1.203 1.203 0 0 1-.354.712.972.972 0 0 1-.704.284.978.978 0 0 1-.704-.281.925.925 0 0 1-.292-.694c0-.669.153-1.28.459-1.835.306-.555.818-1.151 1.535-1.79.767-.673 1.286-1.234 1.558-1.684.272-.45.408-.94.408-1.468ZM11.942 21.5c-.409 0-.76-.148-1.056-.443A1.443 1.443 0 0 1 10.442 20c0-.409.148-.761.444-1.057a1.443 1.443 0 0 1 1.056-.443c.41 0 .761.148 1.057.443.295.296.443.648.443 1.057 0 .409-.148.761-.443 1.057a1.443 1.443 0 0 1-1.057.443Z"
      ></path>
    </symbol>
    <symbol fill="none" id="More">
      <path
        fill="currentColor"
        d="M12 19.27c-.412 0-.766-.148-1.06-.441a1.445 1.445 0 0 1-.44-1.06c0-.412.147-.765.44-1.06.294-.293.648-.44 1.06-.44.412 0 .766.147 1.06.44.293.295.44.648.44 1.06 0 .413-.147.766-.44 1.06-.294.293-.648.44-1.06.44Zm0-5.77c-.412 0-.766-.147-1.06-.44A1.445 1.445 0 0 1 10.5 12c0-.412.147-.766.44-1.06.294-.293.648-.44 1.06-.44.412 0 .766.147 1.06.44.293.294.44.648.44 1.06 0 .412-.147.766-.44 1.06-.294.293-.648.44-1.06.44Zm0-5.77c-.412 0-.766-.146-1.06-.44a1.444 1.444 0 0 1-.44-1.06c0-.412.147-.765.44-1.059.294-.293.648-.44 1.06-.44.412 0 .766.147 1.06.44.293.294.44.647.44 1.06 0 .412-.147.765-.44 1.06-.294.293-.648.44-1.06.44Z"
      ></path>
    </symbol>
    <symbol fill="none" id="Menu">
      <path
        fill="currentColor"
        d="M4.25 17.635a.726.726 0 0 1-.534-.216.726.726 0 0 1-.216-.535c0-.212.072-.39.216-.534a.726.726 0 0 1 .534-.215h15.5c.212 0 .39.071.534.215a.726.726 0 0 1 .216.535c0 .212-.072.39-.216.534a.726.726 0 0 1-.534.216H4.25Zm0-4.885a.726.726 0 0 1-.534-.216A.726.726 0 0 1 3.5 12c0-.213.072-.391.216-.535a.726.726 0 0 1 .534-.215h15.5c.212 0 .39.072.534.216A.726.726 0 0 1 20.5 12c0 .213-.072.391-.216.535a.726.726 0 0 1-.534.215H4.25Zm0-4.885a.726.726 0 0 1-.534-.215.726.726 0 0 1-.216-.535c0-.213.072-.39.216-.534a.726.726 0 0 1 .534-.216h15.5c.212 0 .39.072.534.216a.726.726 0 0 1 .216.535c0 .212-.072.39-.216.534a.726.726 0 0 1-.534.215H4.25Z"
      ></path>
    </symbol>
    <symbol viewBox="0 0 600 324" fill="none" id="Logo">
      <path
        fill="currentColor"
        d="M329.011 125.261 315.854 79.67a2.406 2.406 0 0 0-2.591-1.72l-6.846.819a4.796 4.796 0 0 0-3.025 1.585l-1.655 1.87a4.8 4.8 0 0 0-1.181 2.684l-4.133 39.474a9.622 9.622 0 0 0 .477 4.151l1.536 4.432a2.396 2.396 0 0 0 2.52 1.602l23.153-2.448a2.39 2.39 0 0 0 1.668-.948l2.849-3.801a2.41 2.41 0 0 0 .385-2.109Zm15.352-60.614-10.9 10.559a2.404 2.404 0 0 0-.563 2.611l3.994 10.103a4.804 4.804 0 0 0 3.493 2.938l23.763 4.917a2.399 2.399 0 0 1 1.774 1.543l1.509 4.226a1.208 1.208 0 0 1-.578 1.472l-12.106 6.29a1.197 1.197 0 0 1-1.564-.418l-.456-.714a1.185 1.185 0 0 1-.183-.52l-.89-8.267a2.401 2.401 0 0 0-1.637-2.024l-6.196-2.04a2.4 2.4 0 0 0-2.623.779l-8.825 11.015a2.396 2.396 0 0 0-.497 1.879l1.294 8.179a4.81 4.81 0 0 0 1.808 3.052l14.521 11.222a4.794 4.794 0 0 0 3.83.917l23.896-4.548a4.806 4.806 0 0 0 3.045-1.979l6.551-9.436a4.818 4.818 0 0 0 .786-3.578l-3.743-21.269a4.808 4.808 0 0 0-2.546-3.447l-9.464-4.838a4.796 4.796 0 0 0-2.644-.503l-14.345 1.386a4.808 4.808 0 0 1-2.831-.603l-2.172-1.234a1.204 1.204 0 0 1-.591-1.254l.865-4.908a1.205 1.205 0 0 1 1.268-.99l16.97 1.216 3.806 3.745 7.737-.726.311-8.093-5.736-7.395a2.404 2.404 0 0 1-.296-2.451l5.555-12.474a2.402 2.402 0 0 1 1.55-1.336l11.63-3.237a4.799 4.799 0 0 1 3.814.542l6.322 3.918a1.199 1.199 0 0 1 .559 1.155l-.104.938a1.205 1.205 0 0 1-1.181 1.071l-7.981.078a4.784 4.784 0 0 0-2.633.819l-3.124 2.103a2.405 2.405 0 0 0-1.058 1.994v11.642c0 1.029.653 1.943 1.625 2.275l2.636.896c.846.29 1.757.337 2.628.135l5.289-1.222a1.2 1.2 0 0 1 1.463 1.3l-4.646 41.932a4.81 4.81 0 0 0 2.746 4.887l14.549 6.784a4.794 4.794 0 0 0 3.323.271l22.673-6.363a4.806 4.806 0 0 0 2.901-2.295l5.237-9.444a4.814 4.814 0 0 0 .554-3.031l-2.158-14.7a2.408 2.408 0 0 0-2.048-2.03l-13.826-1.91a1.2 1.2 0 0 0-1.355 1.035l-1.728 13.329a1.824 1.824 0 0 1-1.357 1.533l-2.174.557a1.2 1.2 0 0 1-1.497-1.117l-1.236-31.962a1.217 1.217 0 0 1 .351-.896 1.194 1.194 0 0 1 .896-.35l9.323.367a4.796 4.796 0 0 0 3.112-.99l2.957-2.269a2.407 2.407 0 0 0 .941-1.908V51.542a2.41 2.41 0 0 0-1.563-2.253l-2.304-.86a4.783 4.783 0 0 0-2.61-.21l-10.95 2.173a1.202 1.202 0 0 1-1.433-1.102l-.535-8.248a2.405 2.405 0 0 0-1.367-2.017l-11.726-5.563a4.804 4.804 0 0 0-2.56-.436l-21.094 2.232a4.8 4.8 0 0 0-3.282 1.824L363.583 57.26a4.802 4.802 0 0 0-.941 3.795l.214 1.209a1.206 1.206 0 0 1-.697 1.307 1.2 1.2 0 0 1-.518.102l-13.806-.379a4.79 4.79 0 0 0-3.472 1.353ZM485.41 83.722l.77 2.16a1.208 1.208 0 0 1-.393 1.352l-11.378 8.873a1.2 1.2 0 0 1-1.402.052l-.475-.316a1.2 1.2 0 0 1-.528-.867l-.84-7.512a1.195 1.195 0 0 0-.817-1.007l-6.935-2.284a2.402 2.402 0 0 0-2.625.778L452 95.92a2.4 2.4 0 0 0-.481 1.978l.952 4.73a4.806 4.806 0 0 0 1.588 2.707l15.078 12.887a4.812 4.812 0 0 0 4.015 1.066l21.788-4.147a4.813 4.813 0 0 0 2.959-1.859l7.836-10.574a4.811 4.811 0 0 0 .894-3.563l-3.24-22.06a4.803 4.803 0 0 0-3.485-3.937L484.721 69a9.57 9.57 0 0 0-4.244-.183l-9.354 1.7a1.199 1.199 0 0 1-1.416-1.171l-.041-4.035a1.206 1.206 0 0 1 1.131-1.213l15.16-.885a4.807 4.807 0 0 1 3.024.855l4.225 2.947a2.415 2.415 0 0 0 1.976.355l4.254-1.103a2.405 2.405 0 0 0 1.792-2.137l.722-9.167a2.407 2.407 0 0 0-.957-2.115l-2.442-1.826a2.399 2.399 0 0 0-1.329-.474l-30.656-1.396a4.799 4.799 0 0 0-4.16 2.056l-11 15.826a2.4 2.4 0 0 0-.215 2.365l3.876 8.55a4.797 4.797 0 0 0 3.963 2.802l25.351 2.18a1.198 1.198 0 0 1 1.029.792ZM496.205 188.8l3.084-5.394a2.4 2.4 0 0 0 .236-1.807l-3.7-13.998a4.81 4.81 0 0 0-2.646-3.139l-17.735-8.114a9.598 9.598 0 0 0-6.14-.626l-15.128 3.475a9.616 9.616 0 0 0-5.342 3.354l-11.326 14.132a4.807 4.807 0 0 0-1.057 2.905l-.495 23.31a4.816 4.816 0 0 0 .994 3.032l12.999 16.921a4.8 4.8 0 0 0 3.806 1.875h21c.965 0 1.907-.292 2.704-.836l17.711-12.086a4.807 4.807 0 0 0 2.069-4.498l-.542-4.91a9.63 9.63 0 0 0-.851-3.028l-1.767-3.768a2.403 2.403 0 0 0-2.534-1.357l-10.58 1.614a1.197 1.197 0 0 0-1.019 1.24l.133 2.992a2.402 2.402 0 0 1-1.736 2.415l-9.901 2.849a4.803 4.803 0 0 1-3.646-.412l-7.459-4.118a2.402 2.402 0 0 1-1.221-2.415l.429-3.287a1.21 1.21 0 0 1 .349-.702c.192-.188.442-.306.708-.336l36.784-4.089a2.4 2.4 0 0 0 1.819-1.194Zm-37.358-11.361 2.412-2.747a2.399 2.399 0 0 1 1.294-.764l4.65-1.009a4.794 4.794 0 0 1 3.633.666l6.496 4.219a1.204 1.204 0 0 1 .514 1.292l-.528 2.178a1.2 1.2 0 0 1-1.043.912l-17.298 1.792a1.192 1.192 0 0 1-.928-.302 1.209 1.209 0 0 1-.396-.893v-2.171c0-1.168.424-2.296 1.194-3.173Zm-290.91 22.906-14.566-9.194a4.81 4.81 0 0 0-3.78-.584l-19.54 5.131a9.62 9.62 0 0 0-4.921 3.12l-10.839 12.931a9.618 9.618 0 0 0-2.222 5.501l-.999 14.128a9.624 9.624 0 0 0 1.174 5.326l9.525 17.259a4.808 4.808 0 0 0 3.774 2.465l20.31 1.818a9.597 9.597 0 0 0 7.559-2.693l19.243-18.778a4.813 4.813 0 0 0 1.404-4.089l-3.924-28.923a4.794 4.794 0 0 0-2.198-3.418Zm-29.32 36.406-4.82-4.852a4.81 4.81 0 0 1-1.017-5.26l5.312-12.58a2.405 2.405 0 0 1 2.566-1.441l8.265 1.232a2.4 2.4 0 0 1 2.047 2.481l-.406 9.372a9.614 9.614 0 0 1-3.582 7.08l-5.16 4.148a2.4 2.4 0 0 1-3.205-.18Zm405.364-60.677 9.824-5.717a2.403 2.403 0 0 0 1.173-2.401l-1.648-12.17a4.81 4.81 0 0 0-3.951-4.092l-10.605-1.813a4.806 4.806 0 0 0-3.742.934l-4.732 3.655a4.808 4.808 0 0 0-1.625 2.294l-1.629 4.923a.597.597 0 0 1-.721.393l-.62-.162a.6.6 0 0 1-.445-.636l.648-7.121a2.407 2.407 0 0 0-1.487-2.445l-4.765-1.937a4.797 4.797 0 0 0-4.937.808l-10.77 9.267a4.808 4.808 0 0 0-1.116 5.888l6.435 12.2a9.624 9.624 0 0 1 1.085 5.198l-.945 12.793a9.588 9.588 0 0 1-.437 2.238l-3.865 12.01a2.41 2.41 0 0 0 .353 2.164l2.216 3.009a4.8 4.8 0 0 0 4.39 1.925l16.493-1.816a4.808 4.808 0 0 0 3.37-1.968l2.113-2.933a2.405 2.405 0 0 0 .445-1.607l-.528-6.285a4.8 4.8 0 0 0-1.473-3.077l-1.791-1.71a4.803 4.803 0 0 1-1.457-2.924l-.967-8.296a9.628 9.628 0 0 1 .542-4.471l3.168-8.506a1.202 1.202 0 0 1 1.704-.632l5.564 3.073a4.797 4.797 0 0 0 4.733-.053ZM202.565 91.568l-.622-.162a.638.638 0 0 1-.475-.668l.545-7.022a2.402 2.402 0 0 0-1.642-2.47l-5.459-1.797a4.794 4.794 0 0 0-4.832 1.104l-10.541 10.17a4.812 4.812 0 0 0-1.011 5.51l5.995 12.733a9.643 9.643 0 0 1 .916 4.115l-.023 11.945a9.587 9.587 0 0 1-.462 2.93l-3.724 11.568a2.41 2.41 0 0 0 .461 2.3l2.707 3.166a4.807 4.807 0 0 0 4.163 1.653l15.514-1.674a4.793 4.793 0 0 0 3.839-2.752l3.074-6.613c.183-.392.256-.827.212-1.257a2.397 2.397 0 0 0-.46-1.19l-4.447-5.99a4.816 4.816 0 0 1-.914-2.31l-1.018-8.745a9.622 9.622 0 0 1 .541-4.47l3.168-8.506a1.213 1.213 0 0 1 .708-.707 1.195 1.195 0 0 1 .997.075l5.19 2.866a4.8 4.8 0 0 0 5.249-.401l7.519-5.794a4.807 4.807 0 0 0 1.686-5.135l-2.491-8.683a4.799 4.799 0 0 0-3.051-3.218l-2.798-.965a4.794 4.794 0 0 0-2.887-.077l-10.441 2.996a4.806 4.806 0 0 0-3.277 3.242l-1.136 3.798a.638.638 0 0 1-.773.435Zm208.93 136.247 21.431-2.266a2.4 2.4 0 0 0 2.077-1.808l.677-2.727a4.796 4.796 0 0 0-.73-3.924l-3.471-4.943a4.801 4.801 0 0 1-.851-2.303l-3.912-40.548a4.802 4.802 0 0 0-3.924-4.268l-9.241-1.677a4.802 4.802 0 0 0-3.199.535l-9.339 5.227a4.802 4.802 0 0 0-2.257 2.819l-2.113 7.075a.601.601 0 0 1-.621.426l-.685-.053c-.325-.025-.556-.295-.553-.629l-.369-26.983a4.802 4.802 0 0 0-1.595-3.514l-8.09-7.257a4.797 4.797 0 0 0-4.73-.978l-10.847 3.638a2.402 2.402 0 0 0-1.598 2.713l2.073 11.284a2.403 2.403 0 0 0 2.574 1.96l1.529-.136a1.201 1.201 0 0 1 1.305 1.267l-2.934 50.01a9.564 9.564 0 0 1-.485 2.506l-4.709 13.994a2.405 2.405 0 0 0 .745 2.619l2.023 1.674a2.4 2.4 0 0 0 1.786.537l21.947-2.356a2.388 2.388 0 0 0 1.898-1.328l1.312-2.668c.206-.419.285-.889.229-1.353l-2.692-22.012a4.8 4.8 0 0 1 .328-2.419l1.617-3.918a4.814 4.814 0 0 1 1.301-1.805l8.885-7.671a.6.6 0 0 1 .992.475l-1.13 35.245c-.02.609.193 1.204.595 1.663l2.694 3.072a2.398 2.398 0 0 0 2.057.805Zm-107.728-19.333 2.595-4.538a4.802 4.802 0 0 0 .474-3.616l-3.449-13.043a4.804 4.804 0 0 0-2.646-3.141l-17.734-8.114a9.604 9.604 0 0 0-6.142-.626l-16.753 3.85a4.809 4.809 0 0 0-2.672 1.677l-12.371 15.434a4.803 4.803 0 0 0-1.055 2.905l-.43 20.293a4.815 4.815 0 0 0 .961 2.987l12.902 17.205a4.802 4.802 0 0 0 3.331 1.893l24.427 2.615a4.806 4.806 0 0 0 3.24-.825l16.642-11.51a2.4 2.4 0 0 0 .997-2.405l-2.35-12.969a2.4 2.4 0 0 0-1.318-1.735l-3.261-1.577a2.4 2.4 0 0 0-1.65-.161l-8.238 2.149a2.407 2.407 0 0 0-1.796 2.339l.013 2.571a1.198 1.198 0 0 1-.839 1.152l-9.167 2.892a4.8 4.8 0 0 1-3.768-.378l-9.271-5.134a1.202 1.202 0 0 1-.612-1.183l.295-2.665a1.202 1.202 0 0 1 1.061-1.061l36.766-4.087a2.394 2.394 0 0 0 1.818-1.194Zm-37.954-10.68 2.485-2.833a4.796 4.796 0 0 1 2.591-1.525l3.877-.843a4.795 4.795 0 0 1 3.631.665l6.498 4.22a1.2 1.2 0 0 1 .513 1.292l-.527 2.178a1.2 1.2 0 0 1-1.044.912l-17.297 1.793a1.209 1.209 0 0 1-.928-.303 1.196 1.196 0 0 1-.396-.893v-3.077c0-.584.212-1.147.597-1.586Z"
      ></path>
      <path
        fill="currentColor"
        d="m445.131 243.433-51.774 22.312a9.593 9.593 0 0 1-3.885.782l-46.279-.417a9.585 9.585 0 0 1-2.066-.244l-105.499-24.287a4.787 4.787 0 0 0-2.469.085l-11.343 3.442a4.786 4.786 0 0 1-2.186.141l-9.435-1.58a4.805 4.805 0 0 0-1.769.035l-10.134 2.106a4.796 4.796 0 0 1-2.547-.163l-.769-.267a1.204 1.204 0 0 1-.808-1.136v-2.886c0-.464.267-.885.684-1.085l2.9-1.38a2.38 2.38 0 0 1 1.243-.226l8.526.757a4.779 4.779 0 0 0 1.795-.184l18.845-5.629a4.798 4.798 0 0 0 2.808-2.242l8.182-14.499c.479-.847.689-1.82.603-2.789l-1.012-11.411a4.796 4.796 0 0 0-1.459-3.042l-10.114-9.716a4.802 4.802 0 0 1-1.384-2.532l-1.81-9.11a.601.601 0 0 1 .929-.613l4.5 3.08a4.792 4.792 0 0 0 2.943.833l8.54-.416a2.405 2.405 0 0 0 2.131-1.554l4.831-12.865a2.396 2.396 0 0 0-.39-2.37l-5.99-7.311a4.808 4.808 0 0 0-4.217-1.731l-12.408 1.312a4.802 4.802 0 0 0-3.16 1.673l-4.524 5.343a9.636 9.636 0 0 0-1.644 2.781l-7.061 18.465a1.2 1.2 0 0 1-.981.764l-10.9 1.281a9.609 9.609 0 0 0-5.7 2.779l-8.265 8.346a4.792 4.792 0 0 0-1.275 2.336l-3.317 14.853a4.812 4.812 0 0 0 .563 3.512l7.032 11.787a1.202 1.202 0 0 1-.31 1.576l-6.973 5.244a2.407 2.407 0 0 0-.893 1.363l-2.759 11.57c-.068.287-.028.59.112.85.141.259.373.458.651.558l7.248 2.606a.604.604 0 0 1 .396.597l-.041.777a.602.602 0 0 1-.614.568l-6.893-.161a2.401 2.401 0 0 0-2.148 1.223l-7.06 12.546a4.82 4.82 0 0 0-.213 4.286l8.184 18.71a4.8 4.8 0 0 0 3.426 2.78l35.034 7.255a4.815 4.815 0 0 0 2.401-.118l13.509-4.211a4.804 4.804 0 0 0 2.058-1.279l12.904-14.254a4.806 4.806 0 0 0 .936-4.915l-6.952-18.534a.6.6 0 0 1 .687-.798l36.183 7.829a9.534 9.534 0 0 1 1.681.529l41.516 17.397a9.574 9.574 0 0 0 3.557.745l57.698.911a9.594 9.594 0 0 0 4.556-1.069l67.73-34.988a2.404 2.404 0 0 0 .838-3.553l-1.154-1.583a4.804 4.804 0 0 0-5.776-1.577Zm-242.889-37.165 6.422-4.493a2.398 2.398 0 0 1 2.753.003l6.773 4.744a1.206 1.206 0 0 1 .421 1.443l-4.446 10.822a2.405 2.405 0 0 1-1.796 1.451l-6.065 1.09a2.398 2.398 0 0 1-1.703-.331l-4.119-2.596a2.4 2.4 0 0 1-1.061-2.569l1.855-8.129a2.401 2.401 0 0 1 .966-1.434v-.001Zm18.234 68.395-3.714 5.175a2.392 2.392 0 0 1-2.144.995l-16.492-1.341a4.8 4.8 0 0 1-4.267-3.619l-2.09-8.322a2.408 2.408 0 0 1 1.565-2.865l10.004-3.357a4.796 4.796 0 0 1 2.409-.167l7.291 1.366a4.811 4.811 0 0 1 3.241 2.265l4.31 7.237a2.412 2.412 0 0 1-.113 2.633ZM321.596 53l-2.232-10.276a1.205 1.205 0 0 0-1.291-.941l-.663.066a1.2 1.2 0 0 0-.978.705l-6.379 14.32a9.6 9.6 0 0 1-5.211 5.01l-17.499 6.996a1.2 1.2 0 0 0-.755 1.115v.902a1.194 1.194 0 0 0 .83 1.143c.161.052.33.07.497.051l28.78-3.08a2.397 2.397 0 0 1 2.601 1.878l1.871 8.602a1.195 1.195 0 0 0 1.298.938l1.004-.107a1.2 1.2 0 0 0 .988-.746l4.709-11.695a9.607 9.607 0 0 1 4.233-4.802l12.986-7.241c.187-.104.342-.257.45-.441.109-.184.166-.395.166-.609v-1a1.213 1.213 0 0 0-.399-.893 1.202 1.202 0 0 0-.93-.302l-21.476 2.288a2.4 2.4 0 0 1-2.6-1.88Zm-151.461 74.796-21.92-63.038a4.8 4.8 0 0 0-5.039-3.201l-13.053 1.382A4.805 4.805 0 0 0 126.142 66l-25.02 65.444a9.569 9.569 0 0 1-.745 1.53l-10 16.595a4.81 4.81 0 0 0-.433 4.039l.53 1.546a2.403 2.403 0 0 0 2.516 1.613l29.621-3.037a2.402 2.402 0 0 0 2.103-1.889l.58-2.724a2.403 2.403 0 0 0-.14-1.445l-3.907-9.156a4.813 4.813 0 0 1-.139-3.412l2.579-7.739a1.194 1.194 0 0 1 1.009-.813l17.372-1.883a1.197 1.197 0 0 1 1.304.941l.506 2.363c.142.658.143 1.34.004 1.998l-3.342 15.886a2.4 2.4 0 0 0 .283 1.718l1.558 2.639a2.409 2.409 0 0 0 2.328 1.167l30.807-3.36a2.398 2.398 0 0 0 2.142-2.39v-6.571a4.814 4.814 0 0 0-1.256-3.242l-4.289-4.701a9.627 9.627 0 0 1-1.978-3.322Zm-42.184-13.216 7.253-21.753c.193-.58 1.029-.534 1.156.064l4.431 20.676a1.199 1.199 0 0 1-1.044 1.446l-10.528 1.142a1.202 1.202 0 0 1-1.268-1.575Zm-7.295 51.478-6.929 2.795a9.58 9.58 0 0 1-2.558.639l-45.818 4.949a9.667 9.667 0 0 1-1.587.038l-11.664-.68a2.41 2.41 0 0 0-1.36.33l-4.81 2.84a2.398 2.398 0 0 0-1.12 1.535l-3.75 16.458a2.404 2.404 0 0 0 1.504 2.786l4.816 1.793c.541.202 1.137.201 1.677-.001l11.85-4.435a9.557 9.557 0 0 1 2.362-.558l10.375-1.087A2.401 2.401 0 0 1 76.29 196l-2.537 40.553a9.623 9.623 0 0 1-.39 2.181l-5.176 17.135a2.401 2.401 0 0 0 .436 2.21l3.531 4.352a2.403 2.403 0 0 0 2.119.875l23.356-2.503a2.405 2.405 0 0 0 1.829-1.197l2.429-4.252a4.813 4.813 0 0 0 .3-4.147l-4.18-8.068a9.615 9.615 0 0 1-1.069-4.844l1.989-45.525a2.406 2.406 0 0 1 2.176-2.288l7.498-.695a9.591 9.591 0 0 1 3.233.249l11.259 2.841c.432.109.886.097 1.312-.038l5.992-1.897a2.4 2.4 0 0 0 1.66-2.58l-2.172-17.958a2.401 2.401 0 0 0-1.486-1.939l-5.948-2.404a2.4 2.4 0 0 0-1.796-.003Zm163.301-66.963-10.456 1.153a1.203 1.203 0 0 0-1.048.977l-2.517 13.783a2.402 2.402 0 0 1-2.278 1.969l-1.95.068a1.201 1.201 0 0 1-1.242-1.145l-1.423-30.805a1.196 1.196 0 0 1 .348-.903 1.196 1.196 0 0 1 .899-.354l9.314.367a4.8 4.8 0 0 0 3.111-.988l2.958-2.27a2.397 2.397 0 0 0 .941-1.907V67.093a2.4 2.4 0 0 0-1.563-2.253l-2.304-.86a4.797 4.797 0 0 0-2.61-.21l-10.954 2.173a1.2 1.2 0 0 1-1.43-1.102l-.686-10.578a4.8 4.8 0 0 0-1.306-2.994l-2.324-2.456a2.408 2.408 0 0 0-1.995-.738l-7.12.753a1.2 1.2 0 0 0-1.066 1.063l-1.885 16.975a1.202 1.202 0 0 1-1.224 1.07l-7.805-.197a4.802 4.802 0 0 0-2.802.817l-3.045 2.053a2.397 2.397 0 0 0-1.061 1.993v10.563a2.403 2.403 0 0 0 1.232 2.1l2.909 1.626a4.803 4.803 0 0 0 3.42.485l4.549-1.052a1.201 1.201 0 0 1 1.457 1.35l-5.875 38.768a4.813 4.813 0 0 0 2.289 4.851l16.224 9.677a4.79 4.79 0 0 0 3.614.536l20.094-4.99a4.805 4.805 0 0 0 2.513-1.564l7.258-8.608a4.799 4.799 0 0 0 1.126-2.88l.497-10.956a4.822 4.822 0 0 0-.337-2.001l-3.954-9.915a2.405 2.405 0 0 0-2.493-1.497Z"
      ></path>
      <path
        fill="currentColor"
        d="m355.815 198.022-8.232.865a2.405 2.405 0 0 0-2.148 2.281l-.481 10.496a1.202 1.202 0 0 1-1.163 1.145l-1.937.059a2.402 2.402 0 0 1-2.469-2.258l-1.706-28.375a1.206 1.206 0 0 1 .759-1.191c.157-.061.324-.089.492-.082l9.59.417a4.801 4.801 0 0 0 3.325-1.146l2.562-2.188a2.389 2.389 0 0 0 .841-1.784l.218-12.159a2.4 2.4 0 0 0-1.692-2.338l-2.526-.783a4.808 4.808 0 0 0-2.352-.122l-11.094 2.201a1.187 1.187 0 0 1-.965-.225 1.2 1.2 0 0 1-.466-.875l-.715-11.003a4.814 4.814 0 0 0-1.417-3.109l-1.81-1.789a2.41 2.41 0 0 0-1.936-.68l-6.527.684a2.405 2.405 0 0 0-2.136 2.123l-1.767 15.797a1.204 1.204 0 0 1-1.237 1.069l-7.936-.293a4.803 4.803 0 0 0-2.707.72l-3.396 2.109a2.401 2.401 0 0 0-1.134 2.11l.315 11.305a2.407 2.407 0 0 0 1.626 2.207l2.795.954a4.805 4.805 0 0 0 2.411.178l5.543-1.013a1.202 1.202 0 0 1 1.409 1.316l-4.833 43.211a4.805 4.805 0 0 0 2.948 4.981l13.264 5.449a4.793 4.793 0 0 0 2.907.236l25.042-5.809a4.81 4.81 0 0 0 3.621-3.724l3.927-19.308a4.81 4.81 0 0 0-1.033-4.058l-5.694-6.76a2.392 2.392 0 0 0-2.086-.841Z"
      ></path>
    </symbol>
    <symbol fill="none" viewBox="0 0 24 24" id="Instagram">
      <path
        fill="currentColor"
        d="M12 5.442c2.136 0 2.39.008 3.233.047 2.168.098 3.181 1.127 3.28 3.279.038.843.046 1.097.046 3.233s-.008 2.389-.046 3.232c-.1 2.15-1.11 3.181-3.28 3.28-.844.038-1.096.046-3.233.046-2.136 0-2.39-.008-3.233-.046-2.173-.1-3.18-1.133-3.279-3.28-.039-.844-.047-1.096-.047-3.233 0-2.136.009-2.389.047-3.233.1-2.151 1.11-3.18 3.28-3.279.843-.038 1.096-.046 3.232-.046ZM12 4c-2.173 0-2.445.01-3.298.048-2.905.133-4.52 1.745-4.653 4.653C4.009 9.555 4 9.827 4 12s.01 2.445.048 3.299c.133 2.905 1.745 4.52 4.653 4.653.854.039 1.126.048 3.299.048s2.445-.01 3.299-.048c2.902-.133 4.521-1.745 4.652-4.653.04-.854.049-1.126.049-3.299s-.01-2.445-.048-3.298c-.13-2.903-1.745-4.52-4.653-4.653C14.445 4.009 14.173 4 12 4Zm0 3.892a4.108 4.108 0 1 0 0 8.216 4.108 4.108 0 0 0 0-8.216Zm0 6.775a2.666 2.666 0 1 1 0-5.333 2.666 2.666 0 0 1 0 5.333Zm4.27-7.897a.96.96 0 1 0 0 1.92.96.96 0 0 0 0-1.92Z"
      ></path>
    </symbol>
    <symbol fill="none" id="Info">
      <path
        fill="currentColor"
        d="M6.965 11.2a.845.845 0 0 0 .621-.254.845.845 0 0 0 .254-.621.845.845 0 0 0-.254-.621.845.845 0 0 0-.621-.254.845.845 0 0 0-.621.254.845.845 0 0 0-.254.621c0 .245.085.452.254.621.169.17.376.254.621.254ZM7 14a6.816 6.816 0 0 1-2.73-.551 7.069 7.069 0 0 1-2.222-1.496A7.069 7.069 0 0 1 .55 9.73 6.816 6.816 0 0 1 0 7c0-.968.184-1.878.551-2.73a7.069 7.069 0 0 1 1.496-2.222A7.069 7.069 0 0 1 4.27.55 6.816 6.816 0 0 1 7 0c.968 0 1.878.184 2.73.551a7.069 7.069 0 0 1 2.223 1.496c.63.63 1.128 1.371 1.496 2.223.367.852.551 1.762.551 2.73s-.184 1.878-.551 2.73a7.068 7.068 0 0 1-1.496 2.223 7.068 7.068 0 0 1-2.223 1.496A6.816 6.816 0 0 1 7 14Zm.07-10.01c.292 0 .545.093.761.28.216.187.324.42.324.7 0 .257-.079.484-.236.683a4.378 4.378 0 0 1-.534.56c-.268.233-.505.49-.709.77-.204.28-.306.595-.306.945 0 .163.061.3.184.41.122.112.265.167.428.167a.623.623 0 0 0 .447-.175.806.806 0 0 0 .236-.438c.047-.245.152-.463.315-.656.163-.192.338-.376.525-.551.268-.257.499-.537.691-.84.193-.303.289-.642.289-1.015 0-.595-.242-1.082-.726-1.461A2.66 2.66 0 0 0 7.07 2.8a2.98 2.98 0 0 0-1.269.28 1.957 1.957 0 0 0-.918.857.631.631 0 0 0-.08.447c.03.157.109.277.237.358a.697.697 0 0 0 .945-.21c.128-.175.289-.309.481-.402.193-.093.394-.14.604-.14Z"
      ></path>
    </symbol>
    <symbol fill="none" viewBox="0 0 16 16" id="HowToReg">
      <path
        fill="currentColor"
        d="M10.37 13.32a.74.74 0 0 1-.25-.04.59.59 0 0 1-.22-.15l-1.37-1.36a.63.63 0 0 1-.18-.47c0-.19.06-.34.18-.47a.63.63 0 0 1 .47-.18c.19 0 .34.06.47.18l.9.9 2.9-2.9a.63.63 0 0 1 .46-.18c.2 0 .35.06.47.18.12.13.18.28.18.47 0 .19-.06.34-.18.47l-3.37 3.36a.58.58 0 0 1-.21.15.74.74 0 0 1-.25.04ZM6.67 8c-.74 0-1.36-.26-1.89-.78A2.57 2.57 0 0 1 4 5.33c0-.73.26-1.36.78-1.88a2.57 2.57 0 0 1 1.89-.78c.73 0 1.36.26 1.88.78.52.52.78 1.15.78 1.88 0 .74-.26 1.36-.78 1.89-.52.52-1.15.78-1.88.78ZM2 13.33a.65.65 0 0 1-.47-.19.64.64 0 0 1-.2-.47v-1.2c0-.37.1-.71.29-1.04.19-.32.45-.56.78-.73.57-.29 1.2-.53 1.92-.73a8.66 8.66 0 0 1 3.32-.25c.32.03.63.08.93.15l-1.5 1.5c-.26.25-.38.57-.38.94s.14.68.4.94l1.08 1.08H2Z"
      ></path>
    </symbol>
    <symbol fill="none" id="Home">
      <path
        fill="currentColor"
        d="M4.5 19v-8.846a1.795 1.795 0 0 1 .723-1.446l5.692-4.289a1.738 1.738 0 0 1 1.083-.361c.407 0 .769.12 1.087.361l5.692 4.289c.226.165.403.376.53.632.129.257.193.528.193.814V19c0 .409-.148.761-.443 1.057A1.443 1.443 0 0 1 18 20.5h-3.192a.874.874 0 0 1-.644-.26.874.874 0 0 1-.26-.644v-4.885a.874.874 0 0 0-.26-.643.874.874 0 0 0-.644-.26h-2a.875.875 0 0 0-.644.26.874.874 0 0 0-.26.643v4.885c0 .256-.087.47-.26.644a.874.874 0 0 1-.644.26H6c-.409 0-.761-.148-1.057-.443A1.443 1.443 0 0 1 4.5 19Z"
      ></path>
    </symbol>
    <symbol fill="none" id="Help">
      <path
        fill="currentColor"
        d="M12.02 17.567a.984.984 0 0 0 .723-.295.985.985 0 0 0 .296-.724.984.984 0 0 0-.296-.724.984.984 0 0 0-.724-.295.985.985 0 0 0-.724.295.985.985 0 0 0-.295.724c0 .286.098.527.295.724a.985.985 0 0 0 .724.295Zm3.234-8.434c0-.83-.282-1.5-.845-2.01-.564-.512-1.297-.767-2.201-.767-.654 0-1.248.143-1.781.429a3.22 3.22 0 0 0-1.271 1.227.471.471 0 0 0-.017.475c.079.171.21.294.392.369a.7.7 0 0 0 .5.007.858.858 0 0 0 .425-.32c.196-.29.435-.506.716-.653.282-.146.6-.219.955-.219.511 0 .926.141 1.243.423.318.282.476.644.476 1.085 0 .3-.09.604-.271.911-.18.308-.465.629-.852.962-.433.396-.757.76-.97 1.094a2.711 2.711 0 0 0-.401 1.137.566.566 0 0 0 .16.483c.133.147.3.22.503.22.182 0 .345-.06.489-.18a.794.794 0 0 0 .271-.483c.05-.273.145-.518.285-.737.14-.217.376-.493.71-.826.575-.576.966-1.047 1.173-1.415.207-.367.31-.771.31-1.212ZM5.308 20.5c-.505 0-.933-.175-1.283-.525a1.745 1.745 0 0 1-.525-1.283V5.308c0-.505.175-.933.525-1.283.35-.35.778-.525 1.283-.525h13.384c.505 0 .933.175 1.283.525.35.35.525.778.525 1.283v13.384c0 .505-.175.933-.525 1.283-.35.35-.778.525-1.283.525H5.308Z"
      ></path>
    </symbol>
    <symbol viewBox="0 0 24 24" fill="none" id="Face">
      <path
        fill="currentColor"
        d="M8.75 14c-.35 0-.646-.12-.888-.363a1.207 1.207 0 0 1-.362-.887c0-.35.12-.646.362-.887.242-.242.538-.363.888-.363s.646.12.887.363c.242.241.363.537.363.887s-.12.646-.363.887A1.207 1.207 0 0 1 8.75 14Zm6 0c-.35 0-.646-.12-.887-.363a1.207 1.207 0 0 1-.363-.887c0-.35.12-.646.363-.887.241-.242.537-.363.887-.363s.646.12.887.363c.242.241.363.537.363.887s-.12.646-.363.887a1.207 1.207 0 0 1-.887.363Zm-3 5.75c2.233 0 4.125-.775 5.675-2.325 1.55-1.55 2.325-3.442 2.325-5.675 0-.4-.025-.787-.075-1.162A4.844 4.844 0 0 0 19.4 9.5c-.35.083-.7.146-1.05.187a9.31 9.31 0 0 1-1.1.063 9.787 9.787 0 0 1-4.3-.975A9.983 9.983 0 0 1 9.5 6.05a9.86 9.86 0 0 1-2.288 3.387A9.77 9.77 0 0 1 3.75 11.6v.15c0 2.233.775 4.125 2.325 5.675 1.55 1.55 3.442 2.325 5.675 2.325Zm.002 1.5a9.255 9.255 0 0 1-3.705-.748 9.598 9.598 0 0 1-3.018-2.03A9.591 9.591 0 0 1 3 15.456a9.245 9.245 0 0 1-.749-3.704c0-1.314.25-2.55.748-3.705a9.597 9.597 0 0 1 2.03-3.018A9.592 9.592 0 0 1 8.044 3a9.245 9.245 0 0 1 3.704-.749c1.314 0 2.55.25 3.705.748a9.597 9.597 0 0 1 3.018 2.03 9.592 9.592 0 0 1 2.03 3.016 9.245 9.245 0 0 1 .749 3.704c0 1.314-.25 2.55-.748 3.705a9.598 9.598 0 0 1-2.03 3.018 9.592 9.592 0 0 1-3.016 2.03 9.245 9.245 0 0 1-3.704.749Z"
      ></path>
    </symbol>
    <symbol fill="none" id="Diversity">
      <path
        fill="currentColor"
        d="M6.6 3.5c1.03 0 2.016.242 2.957.725A7.308 7.308 0 0 1 12 6.279a7.308 7.308 0 0 1 2.443-2.054A6.384 6.384 0 0 1 17.4 3.5c1.713 0 3.158.588 4.335 1.765S23.5 7.887 23.5 9.6c0 .62-.09 1.244-.27 1.87a9.617 9.617 0 0 1-.776 1.888 3.058 3.058 0 0 0-.51-.61 2.517 2.517 0 0 0-.66-.436c.234-.473.412-.933.533-1.38.122-.447.183-.891.183-1.332 0-1.294-.443-2.384-1.33-3.27C19.784 5.443 18.694 5 17.4 5c-1.19 0-2.176.34-2.959 1.021-.782.68-1.596 1.54-2.44 2.579-.846-1.049-1.66-1.91-2.442-2.587C8.776 5.338 7.789 5 6.6 5c-1.294 0-2.384.443-3.27 1.33C2.443 7.216 2 8.306 2 9.6c0 .454.061.906.183 1.356.122.45.296.905.523 1.365a2.705 2.705 0 0 0-.654.441c-.192.177-.36.378-.506.605A8.863 8.863 0 0 1 .77 11.5 6.929 6.929 0 0 1 .5 9.6c0-1.713.589-3.158 1.765-4.335C3.442 4.088 4.887 3.5 6.6 3.5ZM1.365 21.52a.837.837 0 0 1-.616-.25.837.837 0 0 1-.249-.616V20.3c0-.676.344-1.223 1.033-1.642.688-.42 1.594-.63 2.717-.63.204 0 .397.008.579.021.182.014.358.037.529.07-.189.295-.327.61-.417.945-.089.336-.133.691-.133 1.067v1.388H1.365Zm6.039 0a.875.875 0 0 1-.645-.26.875.875 0 0 1-.259-.645v-.446c0-.955.506-1.725 1.518-2.31 1.013-.586 2.34-.878 3.982-.878 1.653 0 2.982.292 3.99.878 1.007.585 1.51 1.355 1.51 2.31v.446a.876.876 0 0 1-.259.646.875.875 0 0 1-.645.258H7.404Zm11.788 0v-1.39a3.812 3.812 0 0 0-.55-2.012c.17-.032.347-.055.53-.069.181-.013.374-.02.578-.02 1.123 0 2.029.21 2.717.629.689.419 1.033.966 1.033 1.642v.354c0 .245-.083.45-.249.616a.837.837 0 0 1-.616.25h-3.443ZM4.25 17.057c-.473 0-.875-.167-1.206-.501a1.657 1.657 0 0 1-.496-1.21c0-.474.166-.877.496-1.211.331-.334.733-.501 1.206-.501s.877.167 1.21.5c.335.335.502.738.502 1.211 0 .473-.167.877-.501 1.21a1.65 1.65 0 0 1-1.21.502Zm15.5 0a1.65 1.65 0 0 1-1.21-.501 1.65 1.65 0 0 1-.502-1.21c0-.474.168-.877.502-1.211a1.65 1.65 0 0 1 1.21-.501c.473 0 .875.167 1.206.5.33.335.496.738.496 1.211 0 .473-.165.877-.496 1.21-.331.335-.733.502-1.206.502ZM12 16.23c-.718 0-1.33-.253-1.836-.76a2.502 2.502 0 0 1-.76-1.836c0-.718.253-1.33.76-1.837a2.502 2.502 0 0 1 1.836-.76c.718 0 1.33.254 1.837.76.506.507.76 1.119.76 1.837s-.254 1.33-.76 1.836a2.502 2.502 0 0 1-1.837.76Z"
      ></path>
    </symbol>
    <symbol fill="none" viewBox="0 0 24 24" id="Discord">
      <path
        fill="currentColor"
        d="M18.892 5.29a16.555 16.555 0 0 0-4.194-1.317c-.18.326-.392.766-.537 1.115a15.398 15.398 0 0 0-4.648 0c-.145-.35-.361-.789-.543-1.115a16.5 16.5 0 0 0-4.197 1.32c-2.654 4.011-3.374 7.922-3.014 11.778a16.766 16.766 0 0 0 5.143 2.635 12.79 12.79 0 0 0 1.102-1.814 10.824 10.824 0 0 1-1.735-.844c.146-.108.288-.22.426-.337 3.344 1.565 6.978 1.565 10.283 0 .139.116.281.229.425.337-.55.331-1.132.615-1.738.846.319.637.686 1.244 1.102 1.814a16.736 16.736 0 0 0 5.146-2.637c.422-4.47-.72-8.345-3.021-11.78ZM8.46 14.7c-1.004 0-1.828-.938-1.828-2.08 0-1.14.806-2.08 1.828-2.08 1.021 0 1.845.938 1.827 2.08.002 1.142-.806 2.08-1.827 2.08Zm6.753 0c-1.004 0-1.827-.938-1.827-2.08 0-1.14.805-2.08 1.827-2.08 1.022 0 1.845.938 1.827 2.08 0 1.142-.805 2.08-1.827 2.08Z"
      ></path>
    </symbol>
    <symbol fill="none" viewBox="0 0 32 32" id="CursorIdle">
      <path
        fill="#FAFAFA"
        d="m12.37 28.67-4.84-10.4L2 26V2l18.67 14.67H11.2l4.8 10.3-3.63 1.7Z"
      ></path>
      <path
        fill="#0D0D0D"
        fill-rule="evenodd"
        d="M11.68 30.55a1.998 1.998 0 0 1-1.13-1.04l-3.39-7.3-3.53 4.95A2 2 0 0 1 0 26V2A2 2 0 0 1 3.24.43L21.9 15.09a2 2 0 0 1-1.23 3.58h-6.33l3.47 7.45a2 2 0 0 1-.96 2.66l-3.64 1.7a2.002 2.002 0 0 1-1.53.07Zm-.48-13.88h9.47L2 2v24l5.53-7.73 4.84 10.4 3.63-1.7-4.8-10.3Z"
        clip-rule="evenodd"
      ></path>
    </symbol>
    <symbol fill="none" viewBox="0 0 24 24" id="ContactSupport">
      <path
        fill="currentColor"
        d="M12.942 19H11.5c-2.088 0-3.86-.728-5.316-2.183C4.728 15.362 4 13.591 4 11.504c0-2.087.728-3.86 2.183-5.317C7.64 4.729 9.41 4 11.498 4a7.35 7.35 0 0 1 2.93.586c.91.39 1.704.925 2.383 1.603a7.55 7.55 0 0 1 1.603 2.38c.39.907.586 1.884.586 2.931a9.884 9.884 0 0 1-1.33 4.985 12.789 12.789 0 0 1-3.435 3.913 1.053 1.053 0 0 1-.414.133.717.717 0 0 1-.402-.089.902.902 0 0 1-.32-.277.718.718 0 0 1-.128-.407L12.942 19Zm-1.406-2.429a.703.703 0 0 0 .52-.216.718.718 0 0 0 .213-.523.702.702 0 0 0-.216-.52.717.717 0 0 0-.523-.214.703.703 0 0 0-.52.216.718.718 0 0 0-.214.524c0 .204.072.377.217.52a.718.718 0 0 0 .523.213Zm-2.077-7.37a.438.438 0 0 0 .347-.008.643.643 0 0 0 .283-.245c.137-.226.33-.405.582-.54.251-.133.54-.2.867-.2.492 0 .89.128 1.198.385.307.257.46.604.46 1.041 0 .271-.066.524-.197.76s-.355.512-.672.83c-.43.417-.738.776-.925 1.075-.187.3-.28.59-.28.872 0 .131.042.243.128.336.086.093.19.14.31.14a.392.392 0 0 0 .305-.14.603.603 0 0 0 .146-.342c.033-.206.144-.435.335-.688.191-.253.423-.516.696-.789.376-.375.645-.73.807-1.062.162-.333.243-.666.243-1 0-.685-.237-1.236-.71-1.654-.474-.417-1.076-.626-1.805-.626-.49 0-.943.12-1.356.359-.414.239-.725.524-.932.856a.533.533 0 0 0-.065.388c.03.124.108.208.235.253Z"
      ></path>
    </symbol>
    <symbol viewBox="0 0 16 16" fill="none" id="Close">
      <path
        fill="currentColor"
        d="M8 8.933 4.733 12.2a.632.632 0 0 1-.466.183.632.632 0 0 1-.467-.183.632.632 0 0 1-.183-.467c0-.189.06-.344.183-.466L7.067 8 3.8 4.733a.632.632 0 0 1-.183-.466c0-.19.06-.345.183-.467a.632.632 0 0 1 .467-.183c.189 0 .344.06.466.183L8 7.067 11.267 3.8a.632.632 0 0 1 .466-.183c.19 0 .345.06.467.183a.632.632 0 0 1 .183.467.632.632 0 0 1-.183.466L8.933 8l3.267 3.267a.632.632 0 0 1 .183.466.632.632 0 0 1-.183.467.632.632 0 0 1-.467.183.632.632 0 0 1-.466-.183L8 8.933Z"
      ></path>
    </symbol>
    <symbol fill="none" id="Check">
      <path
        fill="currentColor"
        d="m9.55 18-5.7-5.7 1.425-1.425L9.55 15.15l9.175-9.175L20.15 7.4 9.55 18Z"
      ></path>
    </symbol>
    <symbol fill="none" id="CheckCircle">
      <path
        fill="currentColor"
        d="M6.02 8.26 4.515 6.755a.664.664 0 0 0-.49-.192.664.664 0 0 0-.49.192.664.664 0 0 0-.193.49c0 .198.065.362.193.49L5.53 9.73c.14.14.303.21.49.21s.35-.07.49-.21l3.955-3.955a.664.664 0 0 0 .193-.49.664.664 0 0 0-.193-.49.664.664 0 0 0-.49-.192.664.664 0 0 0-.49.192L6.02 8.26ZM7 14a6.816 6.816 0 0 1-2.73-.551 7.069 7.069 0 0 1-2.222-1.496A7.069 7.069 0 0 1 .55 9.73 6.816 6.816 0 0 1 0 7c0-.968.184-1.878.551-2.73a7.069 7.069 0 0 1 1.496-2.222A7.069 7.069 0 0 1 4.27.55 6.816 6.816 0 0 1 7 0c.968 0 1.878.184 2.73.551a7.069 7.069 0 0 1 2.223 1.496c.63.63 1.128 1.371 1.496 2.223.367.852.551 1.762.551 2.73s-.184 1.878-.551 2.73a7.068 7.068 0 0 1-1.496 2.223 7.068 7.068 0 0 1-2.223 1.496A6.816 6.816 0 0 1 7 14Z"
      ></path>
    </symbol>
    <symbol fill="none" viewBox="0 0 24 24" id="CaptivePortal">
      <path
        fill="currentColor"
        d="M9.4 19.55c-.3-.55-.563-1.12-.787-1.713A14.688 14.688 0 0 1 8.05 16H5.1a8.3 8.3 0 0 0 1.813 2.175A7.195 7.195 0 0 0 9.4 19.55ZM4.25 14h3.4a13.208 13.208 0 0 1-.15-2 13.208 13.208 0 0 1 .15-2h-3.4A7.959 7.959 0 0 0 4 12a7.959 7.959 0 0 0 .25 2Zm.85-6h2.95c.15-.633.337-1.246.563-1.838C8.838 5.571 9.1 5 9.4 4.45c-.933.3-1.763.758-2.488 1.375A8.298 8.298 0 0 0 5.1 8Zm5 0h3.8c-.2-.733-.458-1.425-.775-2.075A12.701 12.701 0 0 0 12 4.05c-.433.6-.808 1.225-1.125 1.875-.317.65-.575 1.342-.775 2.075Zm5.85 0h2.95a8.298 8.298 0 0 0-1.813-2.175A7.196 7.196 0 0 0 14.6 4.45c.3.55.563 1.12.787 1.712.226.592.413 1.205.563 1.838ZM12 22a9.676 9.676 0 0 1-3.875-.788 10.144 10.144 0 0 1-3.188-2.15 10.142 10.142 0 0 1-2.15-3.187A9.676 9.676 0 0 1 2 12c0-1.383.263-2.68.788-3.887a10.183 10.183 0 0 1 2.15-3.175 10.143 10.143 0 0 1 3.187-2.15A9.676 9.676 0 0 1 12 2c1.383 0 2.68.263 3.887.788a10.183 10.183 0 0 1 3.175 2.15 10.184 10.184 0 0 1 2.15 3.175A9.649 9.649 0 0 1 22 12a10.051 10.051 0 0 1-.05 1h-2.025c.033-.167.054-.33.063-.488.008-.158.012-.329.012-.512a7.953 7.953 0 0 0-.25-2h-3.4a13.208 13.208 0 0 1 .15 2v.512c0 .159-.008.321-.025.488h-2a4.89 4.89 0 0 0 .025-.488V12a13.208 13.208 0 0 0-.15-2h-4.7a13.208 13.208 0 0 0-.15 2 13.208 13.208 0 0 0 .15 2H13v2h-2.9c.2.733.458 1.425.775 2.075.317.65.692 1.275 1.125 1.875a16.913 16.913 0 0 0 1-1.65v3.65a10.307 10.307 0 0 1-1 .05Zm5-3.575v1.225c0 .283-.096.52-.288.713a.968.968 0 0 1-.712.287.968.968 0 0 1-.713-.287.968.968 0 0 1-.287-.713V16c0-.283.096-.52.287-.713A.968.968 0 0 1 16 15h3.65c.283 0 .52.096.713.287.191.192.287.43.287.713s-.096.52-.287.712a.968.968 0 0 1-.713.288H18.4l2.25 2.25a.933.933 0 0 1 .275.688c0 .274-.092.512-.275.712-.2.2-.438.3-.712.3a.973.973 0 0 1-.713-.3L17 18.425Z"
      ></path>
    </symbol>
    <symbol fill="none" id="CancelCircle">
      <path
        fill="currentColor"
        d="m7 7.98 2.03 2.03a.664.664 0 0 0 .49.193.664.664 0 0 0 .49-.193.664.664 0 0 0 .193-.49.664.664 0 0 0-.193-.49L7.98 7l2.03-2.03a.664.664 0 0 0 .193-.49.664.664 0 0 0-.193-.49.664.664 0 0 0-.49-.193.664.664 0 0 0-.49.193L7 6.02 4.97 3.99a.664.664 0 0 0-.49-.193.664.664 0 0 0-.49.193.664.664 0 0 0-.193.49c0 .198.065.362.193.49L6.02 7 3.99 9.03a.664.664 0 0 0-.193.49c0 .198.065.362.193.49a.664.664 0 0 0 .49.193.664.664 0 0 0 .49-.193L7 7.98ZM7 14a6.816 6.816 0 0 1-2.73-.551 7.069 7.069 0 0 1-2.222-1.496A7.069 7.069 0 0 1 .55 9.73 6.816 6.816 0 0 1 0 7c0-.968.184-1.878.551-2.73a7.069 7.069 0 0 1 1.496-2.222A7.069 7.069 0 0 1 4.27.55 6.816 6.816 0 0 1 7 0c.968 0 1.878.184 2.73.551a7.069 7.069 0 0 1 2.223 1.496c.63.63 1.128 1.371 1.496 2.223.367.852.551 1.762.551 2.73s-.184 1.878-.551 2.73a7.068 7.068 0 0 1-1.496 2.223 7.068 7.068 0 0 1-2.223 1.496A6.816 6.816 0 0 1 7 14Z"
      ></path>
    </symbol>
    <symbol fill="none" id="Calendar">
      <path
        fill="currentColor"
        d="M5.308 21.5c-.505 0-.933-.175-1.283-.525a1.745 1.745 0 0 1-.525-1.283V6.308c0-.505.175-.933.525-1.283.35-.35.778-.525 1.283-.525h1.384V3.154c0-.22.074-.402.22-.55a.745.745 0 0 1 .55-.22c.219 0 .402.074.549.22.146.148.22.33.22.55V4.5h7.577V3.135c0-.213.072-.391.215-.535a.726.726 0 0 1 .535-.215c.212 0 .39.071.534.215a.726.726 0 0 1 .216.535V4.5h1.384c.505 0 .933.175 1.283.525.35.35.525.778.525 1.283v13.384c0 .505-.175.933-.525 1.283-.35.35-.778.525-1.283.525H5.308Zm0-1.5h13.384a.294.294 0 0 0 .212-.096.294.294 0 0 0 .096-.212v-9.384H5v9.384c0 .077.032.148.096.212a.294.294 0 0 0 .212.096ZM12 14.077a.853.853 0 0 1-.626-.259.853.853 0 0 1-.259-.626c0-.245.087-.453.26-.626a.852.852 0 0 1 .625-.258c.245 0 .454.086.626.258a.853.853 0 0 1 .259.626.853.853 0 0 1-.259.626.853.853 0 0 1-.626.259Zm-4 0a.853.853 0 0 1-.626-.259.853.853 0 0 1-.259-.626c0-.245.087-.453.26-.626A.852.852 0 0 1 8 12.308c.245 0 .454.086.626.258a.853.853 0 0 1 .259.626.853.853 0 0 1-.259.626.853.853 0 0 1-.626.259Zm8 0a.853.853 0 0 1-.626-.259.853.853 0 0 1-.259-.626c0-.245.087-.453.26-.626a.852.852 0 0 1 .625-.258c.245 0 .454.086.626.258a.853.853 0 0 1 .259.626.853.853 0 0 1-.259.626.853.853 0 0 1-.626.259ZM12 18a.852.852 0 0 1-.626-.259.853.853 0 0 1-.259-.626c0-.244.087-.453.26-.626a.853.853 0 0 1 .625-.258c.245 0 .454.086.626.258a.853.853 0 0 1 .259.626.852.852 0 0 1-.259.626A.852.852 0 0 1 12 18Zm-4 0a.852.852 0 0 1-.626-.259.852.852 0 0 1-.259-.626c0-.244.087-.453.26-.626A.853.853 0 0 1 8 16.231c.245 0 .454.086.626.258a.853.853 0 0 1 .259.626.852.852 0 0 1-.259.626A.852.852 0 0 1 8 18Zm8 0a.852.852 0 0 1-.626-.259.853.853 0 0 1-.259-.626c0-.244.087-.453.26-.626a.853.853 0 0 1 .625-.258c.245 0 .454.086.626.258a.853.853 0 0 1 .259.626.852.852 0 0 1-.259.626A.852.852 0 0 1 16 18Z"
      ></path>
    </symbol>
    <symbol fill="none" viewBox="0 0 24 24" id="Arrow">
      <path
        fill="currentColor"
        d="m11.25 7.37-5.17 5.17a.7.7 0 0 1-.52.22.74.74 0 0 1-.53-.23.78.78 0 0 1-.23-.53c0-.2.07-.37.23-.53l6.34-6.34a.83.83 0 0 1 .63-.25c.12 0 .23.02.34.05.1.04.2.1.3.2l6.33 6.34c.14.14.21.31.22.52 0 .2-.07.38-.22.54a.74.74 0 0 1-.53.23.74.74 0 0 1-.54-.23l-5.15-5.16v11.38c0 .21-.07.4-.22.53a.73.73 0 0 1-.53.22.73.73 0 0 1-.53-.22.73.73 0 0 1-.22-.53V7.37Z"
      ></path>
      <path
        fill="#000"
        fill-opacity=".2"
        d="m11.25 7.37-5.17 5.17a.7.7 0 0 1-.52.22.74.74 0 0 1-.53-.23.78.78 0 0 1-.23-.53c0-.2.07-.37.23-.53l6.34-6.34a.83.83 0 0 1 .63-.25c.12 0 .23.02.34.05.1.04.2.1.3.2l6.33 6.34c.14.14.21.31.22.52 0 .2-.07.38-.22.54a.74.74 0 0 1-.53.23.74.74 0 0 1-.54-.23l-5.15-5.16v11.38c0 .21-.07.4-.22.53a.73.73 0 0 1-.53.22.73.73 0 0 1-.53-.22.73.73 0 0 1-.22-.53V7.37Z"
      ></path>
    </symbol>
    <symbol fill="none" viewBox="0 0 32 32" id="Add">
      <path
        fill="currentColor"
        d="M4.12 17.32v-2.64h10.56V4.12h2.64v10.56h10.56v2.64H17.32v10.56h-2.64V17.32H4.12Z"
      ></path>
    </symbol>
  </defs>
</svg>
