<svg width="32" height="32" fill="none" xmlns="http://www.w3.org/2000/svg">
  <path d="M17.8046 11.7249L16.7334 6.94016C16.6711 6.66226 16.4047 6.47516 16.1142 6.50268L15.7968 6.53295C15.59 6.55221 15.4114 6.67877 15.3264 6.86174L12.2645 13.5285C11.7756 14.5933 10.8787 15.4311 9.76362 15.8631L1.36273 19.1167C1.14311 19.202 1 19.407 1 19.6367V20.0577C1 20.3906 1.29755 20.6493 1.63761 20.6135L15.4525 19.1786C16.0377 19.1181 16.5761 19.495 16.7008 20.0536L17.5992 24.0583C17.6615 24.3376 17.9307 24.5261 18.2226 24.4958L18.7044 24.4463C18.9169 24.4243 19.0983 24.2908 19.1776 24.0996L21.439 18.6545C21.8329 17.7052 22.5499 16.9155 23.4709 16.4175L29.7039 13.0456C29.8866 12.9466 30 12.7595 30 12.5572V12.0923C30 11.7593 29.7039 11.5007 29.3624 11.5365L19.0529 12.6013C18.4677 12.6618 17.9293 12.2849 17.8046 11.7263V11.7249Z" />
  <style>
    path { fill: #6600DB; }
    @media (prefers-color-scheme: dark) { path { fill: #FFDC48; } }
  </style>
</svg>