<svg xmlns="http://www.w3.org/2000/svg" width="14" height="14" fill="none"><path fill="currentColor" d="m7 7.98 2.03 2.03a.664.664 0 0 0 .49.193.664.664 0 0 0 .49-.193.664.664 0 0 0 .193-.49.664.664 0 0 0-.193-.49L7.98 7l2.03-2.03a.664.664 0 0 0 .193-.49.664.664 0 0 0-.193-.49.664.664 0 0 0-.49-.193.664.664 0 0 0-.49.193L7 6.02 4.97 3.99a.664.664 0 0 0-.49-.193.664.664 0 0 0-.49.193.664.664 0 0 0-.193.49c0 .198.065.362.193.49L6.02 7 3.99 9.03a.664.664 0 0 0-.193.49c0 .198.065.362.193.49a.664.664 0 0 0 .49.193.664.664 0 0 0 .49-.193L7 7.98ZM7 14a6.816 6.816 0 0 1-2.73-.551 7.069 7.069 0 0 1-2.222-1.496A7.069 7.069 0 0 1 .55 9.73 6.816 6.816 0 0 1 0 7c0-.968.184-1.878.551-2.73a7.069 7.069 0 0 1 1.496-2.222A7.069 7.069 0 0 1 4.27.55 6.816 6.816 0 0 1 7 0c.968 0 1.878.184 2.73.551a7.069 7.069 0 0 1 2.223 1.496c.63.63 1.128 1.371 1.496 2.223.367.852.551 1.762.551 2.73s-.184 1.878-.551 2.73a7.068 7.068 0 0 1-1.496 2.223 7.068 7.068 0 0 1-2.223 1.496A6.816 6.816 0 0 1 7 14Z"/></svg>