<svg xmlns="http://www.w3.org/2000/svg" viewBox="0 0 16 16" fill="none"><path fill="currentColor" d="M8 8.933 4.733 12.2a.632.632 0 0 1-.466.183.632.632 0 0 1-.467-.183.632.632 0 0 1-.183-.467c0-.189.06-.344.183-.466L7.067 8 3.8 4.733a.632.632 0 0 1-.183-.466c0-.19.06-.345.183-.467a.632.632 0 0 1 .467-.183c.189 0 .344.06.466.183L8 7.067 11.267 3.8a.632.632 0 0 1 .466-.183c.19 0 .345.06.467.183a.632.632 0 0 1 .183.467.632.632 0 0 1-.183.466L8.933 8l3.267 3.267a.632.632 0 0 1 .183.466.632.632 0 0 1-.183.467.632.632 0 0 1-.467.183.632.632 0 0 1-.466-.183L8 8.933Z"/></svg>