<svg xmlns="http://www.w3.org/2000/svg" fill="none" viewBox="0 0 24 24"><path fill="currentColor" d="M14.956 8.017c0-.825-.276-1.488-.828-1.99-.552-.5-1.28-.75-2.186-.75-.573 0-1.08.117-1.524.35-.443.235-.825.587-1.147 1.058-.19.268-.443.426-.76.475a.988.988 0 0 1-.832-.233.858.858 0 0 1-.301-.574.987.987 0 0 1 .16-.655c.508-.768 1.136-1.352 1.884-1.752.748-.4 1.588-.6 2.52-.6 1.489 0 2.7.426 3.635 1.279.935.853 1.402 1.963 1.402 3.33 0 .725-.155 1.389-.466 1.992-.31.603-.839 1.252-1.586 1.947-.7.635-1.178 1.15-1.433 1.545-.255.396-.403.84-.444 1.334a1.203 1.203 0 0 1-.354.712.972.972 0 0 1-.704.284.978.978 0 0 1-.704-.281.925.925 0 0 1-.292-.694c0-.669.153-1.28.459-1.835.306-.555.818-1.151 1.535-1.79.767-.673 1.286-1.234 1.558-1.684.272-.45.408-.94.408-1.468ZM11.942 21.5c-.409 0-.76-.148-1.056-.443A1.443 1.443 0 0 1 10.442 20c0-.409.148-.761.444-1.057a1.443 1.443 0 0 1 1.056-.443c.41 0 .761.148 1.057.443.295.296.443.648.443 1.057 0 .409-.148.761-.443 1.057a1.443 1.443 0 0 1-1.057.443Z"/></svg>