<svg xmlns="http://www.w3.org/2000/svg" fill="none" viewBox="0 0 20 20"><path fill="currentColor" d="M1.756 18A.865.865 0 0 1 1 17.556a.976.976 0 0 1-.122-.434.798.798 0 0 1 .122-.455L9.222 2.444a.874.874 0 0 1 .345-.333A.92.92 0 0 1 10 2a.92.92 0 0 1 .433.111c.141.074.256.185.345.333L19 16.667c.089.148.13.3.122.455a.977.977 0 0 1-.122.434.866.866 0 0 1-.756.444H1.756ZM10 15.333a.86.86 0 0 0 .633-.255.86.86 0 0 0 .256-.634.86.86 0 0 0-.256-.633.86.86 0 0 0-.633-.255.86.86 0 0 0-.633.255.86.86 0 0 0-.256.633.86.86 0 0 0 .256.634.86.86 0 0 0 .633.255Zm0-2.666a.86.86 0 0 0 .633-.256.86.86 0 0 0 .256-.633V9.11a.86.86 0 0 0-.256-.633.86.86 0 0 0-.633-.256.86.86 0 0 0-.633.256.86.86 0 0 0-.256.633v2.667a.86.86 0 0 0 .256.633.86.86 0 0 0 .633.256Z"/></svg>