<svg xmlns="http://www.w3.org/2000/svg" fill="none" width="24" height="24" viewBox="0 0 24 24"><path fill="currentColor" d="M9.4 19.55c-.3-.55-.563-1.12-.787-1.713A14.688 14.688 0 0 1 8.05 16H5.1a8.3 8.3 0 0 0 1.813 2.175A7.195 7.195 0 0 0 9.4 19.55ZM4.25 14h3.4a13.208 13.208 0 0 1-.15-2 13.208 13.208 0 0 1 .15-2h-3.4A7.959 7.959 0 0 0 4 12a7.959 7.959 0 0 0 .25 2Zm.85-6h2.95c.15-.633.337-1.246.563-1.838C8.838 5.571 9.1 5 9.4 4.45c-.933.3-1.763.758-2.488 1.375A8.298 8.298 0 0 0 5.1 8Zm5 0h3.8c-.2-.733-.458-1.425-.775-2.075A12.701 12.701 0 0 0 12 4.05c-.433.6-.808 1.225-1.125 1.875-.317.65-.575 1.342-.775 2.075Zm5.85 0h2.95a8.298 8.298 0 0 0-1.813-2.175A7.196 7.196 0 0 0 14.6 4.45c.3.55.563 1.12.787 1.712.226.592.413 1.205.563 1.838ZM12 22a9.676 9.676 0 0 1-3.875-.788 10.144 10.144 0 0 1-3.188-2.15 10.142 10.142 0 0 1-2.15-3.187A9.676 9.676 0 0 1 2 12c0-1.383.263-2.68.788-3.887a10.183 10.183 0 0 1 2.15-3.175 10.143 10.143 0 0 1 3.187-2.15A9.676 9.676 0 0 1 12 2c1.383 0 2.68.263 3.887.788a10.183 10.183 0 0 1 3.175 2.15 10.184 10.184 0 0 1 2.15 3.175A9.649 9.649 0 0 1 22 12a10.051 10.051 0 0 1-.05 1h-2.025c.033-.167.054-.33.063-.488.008-.158.012-.329.012-.512a7.953 7.953 0 0 0-.25-2h-3.4a13.208 13.208 0 0 1 .15 2v.512c0 .159-.008.321-.025.488h-2a4.89 4.89 0 0 0 .025-.488V12a13.208 13.208 0 0 0-.15-2h-4.7a13.208 13.208 0 0 0-.15 2 13.208 13.208 0 0 0 .15 2H13v2h-2.9c.2.733.458 1.425.775 2.075.317.65.692 1.275 1.125 1.875a16.913 16.913 0 0 0 1-1.65v3.65a10.307 10.307 0 0 1-1 .05Zm5-3.575v1.225c0 .283-.096.52-.288.713a.968.968 0 0 1-.712.287.968.968 0 0 1-.713-.287.968.968 0 0 1-.287-.713V16c0-.283.096-.52.287-.713A.968.968 0 0 1 16 15h3.65c.283 0 .52.096.713.287.191.192.287.43.287.713s-.096.52-.287.712a.968.968 0 0 1-.713.288H18.4l2.25 2.25a.933.933 0 0 1 .275.688c0 .274-.092.512-.275.712-.2.2-.438.3-.712.3a.973.973 0 0 1-.713-.3L17 18.425Z"/></svg>