<svg xmlns="http://www.w3.org/2000/svg" width="14" height="14" fill="none"><path fill="currentColor" d="M6.02 8.26 4.515 6.755a.664.664 0 0 0-.49-.192.664.664 0 0 0-.49.192.664.664 0 0 0-.193.49c0 .198.065.362.193.49L5.53 9.73c.14.14.303.21.49.21s.35-.07.49-.21l3.955-3.955a.664.664 0 0 0 .193-.49.664.664 0 0 0-.193-.49.664.664 0 0 0-.49-.192.664.664 0 0 0-.49.192L6.02 8.26ZM7 14a6.816 6.816 0 0 1-2.73-.551 7.069 7.069 0 0 1-2.222-1.496A7.069 7.069 0 0 1 .55 9.73 6.816 6.816 0 0 1 0 7c0-.968.184-1.878.551-2.73a7.069 7.069 0 0 1 1.496-2.222A7.069 7.069 0 0 1 4.27.55 6.816 6.816 0 0 1 7 0c.968 0 1.878.184 2.73.551a7.069 7.069 0 0 1 2.223 1.496c.63.63 1.128 1.371 1.496 2.223.367.852.551 1.762.551 2.73s-.184 1.878-.551 2.73a7.068 7.068 0 0 1-1.496 2.223 7.068 7.068 0 0 1-2.223 1.496A6.816 6.816 0 0 1 7 14Z"/></svg>