<svg xmlns="http://www.w3.org/2000/svg" fill="none" width="24" height="24" viewBox="0 0 24 24"><path fill="currentColor" d="M12.942 19H11.5c-2.088 0-3.86-.728-5.316-2.183C4.728 15.362 4 13.591 4 11.504c0-2.087.728-3.86 2.183-5.317C7.64 4.729 9.41 4 11.498 4a7.35 7.35 0 0 1 2.93.586c.91.39 1.704.925 2.383 1.603a7.55 7.55 0 0 1 1.603 2.38c.39.907.586 1.884.586 2.931a9.884 9.884 0 0 1-1.33 4.985 12.789 12.789 0 0 1-3.435 3.913 1.053 1.053 0 0 1-.414.133.717.717 0 0 1-.402-.089.902.902 0 0 1-.32-.277.718.718 0 0 1-.128-.407L12.942 19Zm-1.406-2.429a.703.703 0 0 0 .52-.216.718.718 0 0 0 .213-.523.702.702 0 0 0-.216-.52.717.717 0 0 0-.523-.214.703.703 0 0 0-.52.216.718.718 0 0 0-.214.524c0 .204.072.377.217.52a.718.718 0 0 0 .523.213Zm-2.077-7.37a.438.438 0 0 0 .347-.008.643.643 0 0 0 .283-.245c.137-.226.33-.405.582-.54.251-.133.54-.2.867-.2.492 0 .89.128 1.198.385.307.257.46.604.46 1.041 0 .271-.066.524-.197.76s-.355.512-.672.83c-.43.417-.738.776-.925 1.075-.187.3-.28.59-.28.872 0 .131.042.243.128.336.086.093.19.14.31.14a.392.392 0 0 0 .305-.14.603.603 0 0 0 .146-.342c.033-.206.144-.435.335-.688.191-.253.423-.516.696-.789.376-.375.645-.73.807-1.062.162-.333.243-.666.243-1 0-.685-.237-1.236-.71-1.654-.474-.417-1.076-.626-1.805-.626-.49 0-.943.12-1.356.359-.414.239-.725.524-.932.856a.533.533 0 0 0-.065.388c.03.124.108.208.235.253Z"/></svg>