<svg xmlns="http://www.w3.org/2000/svg" fill="none" viewBox="0 0 24 24"><path fill="currentColor" d="M18.892 5.29a16.555 16.555 0 0 0-4.194-1.317c-.18.326-.392.766-.537 1.115a15.398 15.398 0 0 0-4.648 0c-.145-.35-.361-.789-.543-1.115a16.5 16.5 0 0 0-4.197 1.32c-2.654 4.011-3.374 7.922-3.014 11.778a16.766 16.766 0 0 0 5.143 2.635 12.79 12.79 0 0 0 1.102-1.814 10.824 10.824 0 0 1-1.735-.844c.146-.108.288-.22.426-.337 3.344 1.565 6.978 1.565 10.283 0 .139.116.281.229.425.337-.55.331-1.132.615-1.738.846.319.637.686 1.244 1.102 1.814a16.736 16.736 0 0 0 5.146-2.637c.422-4.47-.72-8.345-3.021-11.78ZM8.46 14.7c-1.004 0-1.828-.938-1.828-2.08 0-1.14.806-2.08 1.828-2.08 1.021 0 1.845.938 1.827 2.08.002 1.142-.806 2.08-1.827 2.08Zm6.753 0c-1.004 0-1.827-.938-1.827-2.08 0-1.14.805-2.08 1.827-2.08 1.022 0 1.845.938 1.827 2.08 0 1.142-.805 2.08-1.827 2.08Z"/></svg>