<svg xmlns="http://www.w3.org/2000/svg" width="24" height="24" fill="none"><path fill="currentColor" d="M12.02 17.567a.984.984 0 0 0 .723-.295.985.985 0 0 0 .296-.724.984.984 0 0 0-.296-.724.984.984 0 0 0-.724-.295.985.985 0 0 0-.724.295.985.985 0 0 0-.295.724c0 .286.098.527.295.724a.985.985 0 0 0 .724.295Zm3.234-8.434c0-.83-.282-1.5-.845-2.01-.564-.512-1.297-.767-2.201-.767-.654 0-1.248.143-1.781.429a3.22 3.22 0 0 0-1.271 1.227.471.471 0 0 0-.017.475c.079.171.21.294.392.369a.7.7 0 0 0 .5.007.858.858 0 0 0 .425-.32c.196-.29.435-.506.716-.653.282-.146.6-.219.955-.219.511 0 .926.141 1.243.423.318.282.476.644.476 1.085 0 .3-.09.604-.271.911-.18.308-.465.629-.852.962-.433.396-.757.76-.97 1.094a2.711 2.711 0 0 0-.401 1.137.566.566 0 0 0 .16.483c.133.147.3.22.503.22.182 0 .345-.06.489-.18a.794.794 0 0 0 .271-.483c.05-.273.145-.518.285-.737.14-.217.376-.493.71-.826.575-.576.966-1.047 1.173-1.415.207-.367.31-.771.31-1.212ZM5.308 20.5c-.505 0-.933-.175-1.283-.525a1.745 1.745 0 0 1-.525-1.283V5.308c0-.505.175-.933.525-1.283.35-.35.778-.525 1.283-.525h13.384c.505 0 .933.175 1.283.525.35.35.525.778.525 1.283v13.384c0 .505-.175.933-.525 1.283-.35.35-.778.525-1.283.525H5.308Z"/></svg>