<svg xmlns="http://www.w3.org/2000/svg" fill="none" viewBox="0 0 16 16"><path fill="currentColor" d="M10.37 13.32a.74.74 0 0 1-.25-.04.59.59 0 0 1-.22-.15l-1.37-1.36a.63.63 0 0 1-.18-.47c0-.19.06-.34.18-.47a.63.63 0 0 1 .47-.18c.19 0 .34.06.47.18l.9.9 2.9-2.9a.63.63 0 0 1 .46-.18c.2 0 .35.06.47.18.12.13.18.28.18.47 0 .19-.06.34-.18.47l-3.37 3.36a.58.58 0 0 1-.21.15.74.74 0 0 1-.25.04ZM6.67 8c-.74 0-1.36-.26-1.89-.78A2.57 2.57 0 0 1 4 5.33c0-.73.26-1.36.78-1.88a2.57 2.57 0 0 1 1.89-.78c.73 0 1.36.26 1.88.78.52.52.78 1.15.78 1.88 0 .74-.26 1.36-.78 1.89-.52.52-1.15.78-1.88.78ZM2 13.33a.65.65 0 0 1-.47-.19.64.64 0 0 1-.2-.47v-1.2c0-.37.1-.71.29-1.04.19-.32.45-.56.78-.73.57-.29 1.2-.53 1.92-.73a8.66 8.66 0 0 1 3.32-.25c.32.03.63.08.93.15l-1.5 1.5c-.26.25-.38.57-.38.94s.14.68.4.94l1.08 1.08H2Z"/></svg>