<svg xmlns="http://www.w3.org/2000/svg" viewBox="0 0 2000 1080" fill="none"><path fill="currentcolor" d="m1097.92 414.167-44.94-155.562a8.208 8.208 0 0 0-8.85-5.867l-23.38 2.792a16.367 16.367 0 0 0-10.33 5.408l-5.66 6.38a16.453 16.453 0 0 0-4.03 9.159L986.613 411.17c-.5 4.785.057 9.619 1.631 14.161l5.244 15.125a8.21 8.21 0 0 0 3.352 4.234 8.211 8.211 0 0 0 5.26 1.232l79.08-8.352a8.159 8.159 0 0 0 3.18-1.023 8.119 8.119 0 0 0 2.51-2.212l9.73-12.972a8.252 8.252 0 0 0 1.51-3.443 8.214 8.214 0 0 0-.19-3.753Zm52.43-206.824-37.22 36.03a8.164 8.164 0 0 0-2.32 4.163 8.278 8.278 0 0 0 .39 4.747l13.64 34.472a16.518 16.518 0 0 0 4.7 6.52 16.443 16.443 0 0 0 7.24 3.505l81.16 16.777a8.19 8.19 0 0 1 3.71 1.839 8.193 8.193 0 0 1 2.35 3.426l5.15 14.42c.33.934.31 1.957-.05 2.88a4.085 4.085 0 0 1-1.92 2.142l-41.35 21.463c-.91.472-1.96.587-2.95.323a4.087 4.087 0 0 1-2.39-1.75l-1.56-2.435a4.042 4.042 0 0 1-.63-1.775l-3.04-28.208a8.202 8.202 0 0 0-1.77-4.276 8.238 8.238 0 0 0-3.82-2.629l-21.16-6.961a8.215 8.215 0 0 0-4.9-.072 8.21 8.21 0 0 0-4.06 2.728l-30.14 37.585a8.077 8.077 0 0 0-1.53 3.026 8.23 8.23 0 0 0-.17 3.386l4.42 27.91a16.437 16.437 0 0 0 6.18 10.413l49.59 38.29a16.407 16.407 0 0 0 13.09 3.128l81.61-15.518a16.398 16.398 0 0 0 10.4-6.753l22.38-32.197a16.407 16.407 0 0 0 2.68-12.206l-12.78-72.574a16.39 16.39 0 0 0-2.97-6.904 16.415 16.415 0 0 0-5.73-4.859l-32.32-16.506a16.426 16.426 0 0 0-9.04-1.718l-48.99 4.731c-3.36.322-6.73-.396-9.67-2.058l-7.42-4.21a4.087 4.087 0 0 1-1.69-1.82 4.167 4.167 0 0 1-.33-2.461l2.96-16.745c.17-.999.71-1.898 1.51-2.522.8-.624 1.81-.929 2.82-.856l57.96 4.15 13 12.779 26.43-2.48 1.06-27.614-19.59-25.232a8.215 8.215 0 0 1-1.67-4.042 8.127 8.127 0 0 1 .66-4.322l18.97-42.562a8.122 8.122 0 0 1 2.14-2.872 8.16 8.16 0 0 1 3.15-1.687l39.72-11.045c2.19-.607 4.47-.756 6.71-.438s4.39 1.097 6.32 2.287l21.6 13.37c.65.409 1.18.996 1.52 1.693.34.698.47 1.477.39 2.247l-.36 3.202a4.119 4.119 0 0 1-1.32 2.593 4.122 4.122 0 0 1-2.72 1.06l-27.25.267c-3.21.028-6.34 1-9 2.792l-10.67 7.179a8.22 8.22 0 0 0-3.61 6.802v39.725c0 3.51 2.23 6.63 5.55 7.761l9 3.059c2.89.988 6 1.147 8.98.459l18.06-4.17c2.75-.64 5.31 1.632 5 4.44l-15.87 143.074c-.37 3.411.33 6.855 2.01 9.846a16.39 16.39 0 0 0 7.37 6.829l49.69 23.148a16.386 16.386 0 0 0 11.35.927l77.44-21.714a16.389 16.389 0 0 0 9.91-7.83l17.89-32.223a16.406 16.406 0 0 0 1.89-10.344l-7.37-50.155a8.217 8.217 0 0 0-2.34-4.631 8.253 8.253 0 0 0-4.66-2.299l-47.22-6.518a4.076 4.076 0 0 0-1.6.097 4.086 4.086 0 0 0-2.51 1.914c-.27.469-.45.986-.52 1.523l-5.9 45.481a6.26 6.26 0 0 1-1.51 3.326 6.257 6.257 0 0 1-3.12 1.902l-7.43 1.902a4.097 4.097 0 0 1-5.11-3.813l-4.22-109.056a4.07 4.07 0 0 1 .28-1.655c.2-.526.52-1.004.92-1.404.4-.4.88-.712 1.4-.918.53-.206 1.09-.3 1.66-.278l31.84 1.254c3.83.151 7.59-1.044 10.63-3.378l10.1-7.741a8.11 8.11 0 0 0 2.36-2.88c.56-1.129.85-2.371.85-3.63v-40.763a8.23 8.23 0 0 0-1.46-4.68 8.237 8.237 0 0 0-3.88-3.008l-7.86-2.931a16.383 16.383 0 0 0-8.92-.722l-37.4 7.417c-.57.113-1.17.103-1.73-.031a4.09 4.09 0 0 1-2.69-2.063 4.05 4.05 0 0 1-.47-1.666l-1.83-28.142a8.212 8.212 0 0 0-4.67-6.884l-40.05-18.979a16.436 16.436 0 0 0-8.75-1.488l-72.04 7.614c-2.19.232-4.31.902-6.24 1.972a16.286 16.286 0 0 0-4.97 4.252l-53.69 68.85a16.387 16.387 0 0 0-2.98 6.133 16.156 16.156 0 0 0-.23 6.816l.73 4.124c.1.599.07 1.214-.09 1.8-.16.587-.45 1.13-.85 1.59a4.01 4.01 0 0 1-1.45 1.073c-.55.245-1.16.364-1.76.347l-47.16-1.292a16.37 16.37 0 0 0-6.39 1.109 16.38 16.38 0 0 0-5.47 3.504Zm481.75 65.091 2.63 7.368c.29.813.32 1.697.08 2.526-.25.828-.74 1.56-1.42 2.091l-38.86 30.274c-.68.528-1.51.83-2.37.862-.86.032-1.7-.206-2.42-.682l-1.62-1.078c-.5-.332-.92-.769-1.23-1.28a4.047 4.047 0 0 1-.58-1.68l-2.86-25.633c-.09-.78-.4-1.518-.9-2.127a4.059 4.059 0 0 0-1.9-1.309l-23.68-7.794a8.224 8.224 0 0 0-4.9-.073 8.24 8.24 0 0 0-4.07 2.73l-30.01 37.424a8.152 8.152 0 0 0-1.57 3.192 8.058 8.058 0 0 0-.07 3.557l3.25 16.138a16.385 16.385 0 0 0 5.42 9.237l51.5 43.972a16.437 16.437 0 0 0 6.44 3.378c2.38.629 4.86.718 7.28.259l74.41-14.15a16.427 16.427 0 0 0 10.11-6.342l26.76-36.08a16.398 16.398 0 0 0 3.06-12.156l-11.07-75.272a16.403 16.403 0 0 0-3.95-8.492 16.424 16.424 0 0 0-7.96-4.944l-51.85-14.153a32.736 32.736 0 0 0-14.5-.623l-31.95 5.797c-.59.107-1.19.084-1.77-.067a4.136 4.136 0 0 1-1.57-.806c-.46-.38-.84-.857-1.09-1.395a3.974 3.974 0 0 1-.4-1.725l-.14-13.768a4.097 4.097 0 0 1 3.86-4.137l51.78-3.022c3.67-.213 7.31.82 10.33 2.92l14.43 10.053a8.257 8.257 0 0 0 3.24 1.343c1.17.209 2.36.165 3.51-.13l14.53-3.763a8.231 8.231 0 0 0 6.12-7.294l2.46-31.28a8.177 8.177 0 0 0-3.26-7.215l-8.35-6.232a8.171 8.171 0 0 0-4.54-1.616l-104.7-4.764c-2.77-.127-5.52.45-8.01 1.677a16.41 16.41 0 0 0-6.2 5.338l-37.57 54.001a8.114 8.114 0 0 0-1.43 3.938 8.154 8.154 0 0 0 .7 4.132l13.23 29.175a16.465 16.465 0 0 0 5.48 6.616 16.36 16.36 0 0 0 8.06 2.944l86.59 7.438a4.096 4.096 0 0 1 3.51 2.702Zm36.87 358.541 10.53-18.405a8.15 8.15 0 0 0 .81-6.166l-12.64-47.761a16.403 16.403 0 0 0-3.31-6.37 16.498 16.498 0 0 0-5.72-4.343l-60.58-27.684a32.776 32.776 0 0 0-20.97-2.136l-51.67 11.857a32.826 32.826 0 0 0-18.24 11.444l-38.69 48.22a16.421 16.421 0 0 0-3.61 9.913l-1.69 79.536a16.382 16.382 0 0 0 3.4 10.345l44.39 57.736a16.341 16.341 0 0 0 5.76 4.713 16.372 16.372 0 0 0 7.24 1.687h71.73c3.3 0 6.51-.996 9.24-2.854l60.49-41.237a16.44 16.44 0 0 0 5.66-6.695 16.408 16.408 0 0 0 1.4-8.655l-1.85-16.753a32.92 32.92 0 0 0-2.9-10.332l-6.04-12.858a8.198 8.198 0 0 0-8.65-4.629l-36.14 5.506c-1 .152-1.91.669-2.55 1.45a4.081 4.081 0 0 0-.93 2.782l.45 10.209a8.233 8.233 0 0 1-1.53 5.148 8.23 8.23 0 0 1-4.4 3.092l-33.81 9.722c-4.18 1.196-8.65.69-12.45-1.407L1536.22 672a8.263 8.263 0 0 1-3.36-3.478 8.252 8.252 0 0 1-.81-4.763l1.46-11.214c.12-.909.54-1.753 1.2-2.395a4.069 4.069 0 0 1 2.41-1.147l125.64-13.953a8.198 8.198 0 0 0 6.21-4.075Zm-127.59-38.765 8.23-9.373a8.24 8.24 0 0 1 4.42-2.608l15.89-3.44c2.11-.459 4.3-.495 6.43-.105s4.16 1.198 5.97 2.377l22.19 14.395a4.098 4.098 0 0 1 1.58 1.925c.31.789.38 1.656.18 2.482l-1.81 7.434c-.2.823-.65 1.564-1.29 2.122-.63.557-1.43.903-2.27.99l-59.08 6.113a4.11 4.11 0 0 1-3.17-1.032 3.995 3.995 0 0 1-1-1.378 4.148 4.148 0 0 1-.35-1.666v-7.408c0-3.986 1.45-7.835 4.08-10.828Zm-993.61 78.158-49.75-31.37a16.403 16.403 0 0 0-12.911-1.992l-66.74 17.507a32.85 32.85 0 0 0-16.806 10.644l-37.023 44.124a32.812 32.812 0 0 0-7.589 18.77l-3.411 48.208a32.79 32.79 0 0 0 4.01 18.17l32.533 58.893a16.407 16.407 0 0 0 12.89 8.41l69.368 6.203a32.795 32.795 0 0 0 25.818-9.189l65.723-64.074a16.398 16.398 0 0 0 4.797-13.953l-13.403-98.687a16.396 16.396 0 0 0-7.507-11.664h.001ZM447.626 794.59l-16.462-16.556a16.407 16.407 0 0 1-4.469-8.444 16.409 16.409 0 0 1 .996-9.502l18.143-42.927a8.204 8.204 0 0 1 8.762-4.916l28.232 4.203a8.205 8.205 0 0 1 6.99 8.466l-1.385 31.98a32.795 32.795 0 0 1-12.235 24.157l-17.625 14.154a8.196 8.196 0 0 1-10.947-.615ZM1832.15 587.552l33.56-19.508a8.187 8.187 0 0 0 3.24-3.488c.72-1.458.98-3.095.76-4.704l-5.63-41.524a16.392 16.392 0 0 0-4.46-9.194 16.374 16.374 0 0 0-9.03-4.771l-36.22-6.183a16.434 16.434 0 0 0-6.73.254 16.34 16.34 0 0 0-6.05 2.932l-16.17 12.472a16.402 16.402 0 0 0-5.55 7.827l-5.56 16.798c-.16.495-.51.908-.97 1.157-.46.249-.99.315-1.49.183l-2.12-.553a2.05 2.05 0 0 1-1.16-.805 2.01 2.01 0 0 1-.36-1.364l2.21-24.3a8.227 8.227 0 0 0-1.16-5.009 8.175 8.175 0 0 0-3.92-3.331l-16.27-6.61a16.386 16.386 0 0 0-16.86 2.756l-36.79 31.62a16.376 16.376 0 0 0-5.42 9.38c-.69 3.65-.13 7.427 1.61 10.713l21.98 41.627a32.805 32.805 0 0 1 3.7 17.737l-3.22 43.649c-.2 2.596-.7 5.16-1.49 7.638l-13.21 40.98a8.187 8.187 0 0 0-.29 3.838 8.24 8.24 0 0 0 1.5 3.546l7.57 10.266a16.41 16.41 0 0 0 14.99 6.568l56.34-6.195a16.38 16.38 0 0 0 11.5-6.716l7.22-10.008a8.245 8.245 0 0 0 1.52-5.482l-1.8-21.447a16.439 16.439 0 0 0-5.03-10.5l-6.12-5.834a16.341 16.341 0 0 1-4.98-9.975l-3.3-28.307c-.6-5.16.03-10.389 1.85-15.256l10.82-29.024c.21-.552.53-1.053.95-1.469.41-.416.91-.737 1.47-.942a4.083 4.083 0 0 1 3.4.255l19.01 10.483a16.386 16.386 0 0 0 8.1 2.039c2.83-.031 5.61-.796 8.06-2.219ZM666.042 299.203l-2.124-.553a2.18 2.18 0 0 1-1.624-2.28l1.862-23.96a8.191 8.191 0 0 0-5.609-8.426l-18.643-6.133a16.396 16.396 0 0 0-16.506 3.767l-36.002 34.703a16.397 16.397 0 0 0-3.453 18.798l20.476 43.448a32.837 32.837 0 0 1 3.128 14.043l-.078 40.758a32.68 32.68 0 0 1-1.578 9.995l-12.719 39.471a8.206 8.206 0 0 0 1.575 7.848l9.245 10.803a16.416 16.416 0 0 0 14.22 5.642l52.988-5.712a16.39 16.39 0 0 0 13.111-9.389l10.5-22.566a8.199 8.199 0 0 0-.848-8.348l-15.187-20.442a16.413 16.413 0 0 1-3.124-7.88l-3.477-29.84a32.813 32.813 0 0 1 1.85-15.252l10.82-29.024a4.1 4.1 0 0 1 5.821-2.157l17.729 9.779a16.393 16.393 0 0 0 17.925-1.366l25.682-19.77a16.406 16.406 0 0 0 5.76-17.523l-8.507-29.627a16.385 16.385 0 0 0-10.422-10.98l-9.557-3.292a16.389 16.389 0 0 0-9.86-.262l-35.662 10.221a16.417 16.417 0 0 0-11.193 11.062l-3.879 12.96a2.182 2.182 0 0 1-2.64 1.484Zm713.598 464.895 73.2-7.733a8.22 8.22 0 0 0 7.1-6.17l2.31-9.303c.57-2.28.64-4.656.21-6.967a16.265 16.265 0 0 0-2.71-6.423l-11.85-16.868a16.402 16.402 0 0 1-2.91-7.856l-13.36-138.358a16.378 16.378 0 0 0-4.26-9.531 16.4 16.4 0 0 0-9.14-5.032l-31.56-5.72a16.407 16.407 0 0 0-10.93 1.825l-31.9 17.835a16.409 16.409 0 0 0-7.71 9.618l-7.21 24.141a2.07 2.07 0 0 1-.81 1.102c-.38.265-.85.389-1.31.353l-2.34-.18c-1.11-.086-1.9-1.009-1.89-2.148l-1.26-92.07a16.356 16.356 0 0 0-1.47-6.565 16.392 16.392 0 0 0-3.98-5.423l-27.63-24.764a16.396 16.396 0 0 0-16.16-3.338l-37.05 12.415a8.186 8.186 0 0 0-4.45 3.61 8.145 8.145 0 0 0-1 5.648l7.08 38.503a8.186 8.186 0 0 0 3.1 5.045 8.183 8.183 0 0 0 5.69 1.642l5.22-.463c2.49-.222 4.61 1.824 4.46 4.321l-10.02 170.642a32.795 32.795 0 0 1-1.66 8.549l-16.08 47.752a8.227 8.227 0 0 0-.12 4.862 8.224 8.224 0 0 0 2.66 4.072l6.91 5.712a8.18 8.18 0 0 0 2.87 1.534c1.04.314 2.14.416 3.23.298l74.96-8.036a8.206 8.206 0 0 0 3.83-1.432 8.205 8.205 0 0 0 2.65-3.102l4.49-9.102c.7-1.43.97-3.035.78-4.617l-9.2-75.108c-.34-2.802.04-5.645 1.12-8.253l5.52-13.37a16.457 16.457 0 0 1 4.45-6.158l30.35-26.175c1.35-1.164 3.44-.164 3.38 1.62l-3.85 120.26a8.158 8.158 0 0 0 2.03 5.675l9.2 10.484a8.11 8.11 0 0 0 3.18 2.23c1.22.478 2.54.655 3.84.517Zm-367.94-65.969 8.86-15.482a16.367 16.367 0 0 0 1.62-12.34l-11.78-44.506a16.303 16.303 0 0 0-3.32-6.373 16.319 16.319 0 0 0-5.72-4.344L940.791 587.4a32.8 32.8 0 0 0-20.976-2.136l-57.223 13.137a16.405 16.405 0 0 0-9.123 5.72l-42.254 52.664a16.358 16.358 0 0 0-3.604 9.913l-1.468 69.241a16.411 16.411 0 0 0 3.28 10.193l44.067 58.704a16.418 16.418 0 0 0 11.377 6.461l83.431 8.922a16.41 16.41 0 0 0 11.066-2.813l56.846-39.274a8.28 8.28 0 0 0 2.91-3.602c.6-1.456.77-3.055.49-4.606l-8.02-44.251a8.218 8.218 0 0 0-1.54-3.5 8.239 8.239 0 0 0-2.97-2.42l-11.136-5.38a8.177 8.177 0 0 0-5.633-.55l-28.138 7.332a8.206 8.206 0 0 0-6.134 7.982l.045 8.77a4.093 4.093 0 0 1-2.866 3.932l-31.312 9.869a16.39 16.39 0 0 1-12.87-1.292l-31.664-17.515a4.109 4.109 0 0 1-2.09-4.038l1.008-9.094a4.098 4.098 0 0 1 3.624-3.62l125.576-13.945a8.198 8.198 0 0 0 6.21-4.075Zm-129.634-36.44 8.488-9.669a16.39 16.39 0 0 1 8.848-5.202l13.243-2.875a16.403 16.403 0 0 1 12.402 2.268l22.193 14.399a4.097 4.097 0 0 1 1.751 4.407l-1.8 7.434a4.094 4.094 0 0 1-3.563 3.112l-59.08 6.117a4.112 4.112 0 0 1-3.169-1.034 4.111 4.111 0 0 1-1.354-3.046v-10.5c0-1.992.726-3.915 2.042-5.412l-.001.001Z"/><path fill="#fff" d="m1494.53 817.386-176.84 76.133a32.825 32.825 0 0 1-13.27 2.669l-158.06-1.423c-2.38-.02-4.74-.3-7.06-.832l-360.332-82.87a16.35 16.35 0 0 0-8.434.288l-38.74 11.746a16.382 16.382 0 0 1-7.467.48l-32.226-5.392a16.46 16.46 0 0 0-6.043.12l-34.612 7.186c-2.899.603-5.904.41-8.7-.557l-2.624-.91a4.095 4.095 0 0 1-2.76-3.875v-9.848a4.1 4.1 0 0 1 2.337-3.702l9.902-4.711a8.197 8.197 0 0 1 4.247-.771l29.119 2.583a16.345 16.345 0 0 0 6.133-.627l64.366-19.205a16.395 16.395 0 0 0 9.59-7.65l27.946-49.475a16.357 16.357 0 0 0 2.058-9.516l-3.456-38.934a16.366 16.366 0 0 0-4.982-10.381l-34.547-33.153a16.402 16.402 0 0 1-4.727-8.638l-6.179-31.086c-.356-1.8 1.653-3.129 3.17-2.091l15.37 10.508a16.388 16.388 0 0 0 10.054 2.845l29.167-1.422a8.189 8.189 0 0 0 7.278-5.302l16.502-43.898a8.194 8.194 0 0 0-1.332-8.086l-20.46-24.944a16.399 16.399 0 0 0-14.403-5.908l-42.381 4.477a16.41 16.41 0 0 0-10.791 5.707l-15.453 18.233a32.835 32.835 0 0 0-5.613 9.487l-24.12 63.005a4.085 4.085 0 0 1-3.35 2.608l-37.228 4.37a32.846 32.846 0 0 0-19.467 9.484l-28.229 28.478a16.356 16.356 0 0 0-4.358 7.97l-11.328 50.68a16.413 16.413 0 0 0 1.923 11.985l24.018 40.217a4.099 4.099 0 0 1-1.058 5.379l-23.817 17.892a8.23 8.23 0 0 0-3.05 4.65l-9.422 39.479a4.095 4.095 0 0 0 2.603 4.805l24.756 8.893a2.052 2.052 0 0 1 1.353 2.038l-.14 2.648a2.052 2.052 0 0 1-2.095 1.94l-23.546-.55a8.198 8.198 0 0 0-7.335 4.174l-24.112 42.808a16.413 16.413 0 0 0-.73 14.625l27.954 63.84a16.424 16.424 0 0 0 11.702 9.488l119.658 24.753c2.722.56 5.543.42 8.2-.4l46.141-14.37a16.321 16.321 0 0 0 7.028-4.37l44.075-48.63a16.388 16.388 0 0 0 3.198-16.773l-23.747-63.239c-.574-1.517.762-3.066 2.349-2.722l123.582 26.712a32.764 32.764 0 0 1 5.74 1.804l141.795 59.363a32.829 32.829 0 0 0 12.15 2.542l197.07 3.108a32.765 32.765 0 0 0 15.56-3.649l231.34-119.384c4.47-2.308 5.83-8.06 2.86-12.123l-3.95-5.4a16.389 16.389 0 0 0-19.72-5.383Zm-829.591-126.81 21.935-15.33a8.203 8.203 0 0 1 9.401.01l23.132 16.186a4.112 4.112 0 0 1 1.44 4.924l-15.187 36.925a8.205 8.205 0 0 1-6.133 4.952l-20.714 3.72a8.194 8.194 0 0 1-5.818-1.132l-14.067-8.856a8.197 8.197 0 0 1-3.624-8.766l6.334-27.737a8.21 8.21 0 0 1 3.3-4.895l.001-.001Zm62.279 233.373-12.686 17.659a8.206 8.206 0 0 1-7.322 3.394l-56.33-4.575a16.394 16.394 0 0 1-14.575-12.35l-7.139-28.396a8.204 8.204 0 0 1 5.347-9.775l34.17-11.455a16.399 16.399 0 0 1 8.228-.57l24.9 4.662a16.4 16.4 0 0 1 11.07 7.728l14.722 24.695a8.207 8.207 0 0 1-.385 8.983Zm345.372-756.344-7.62-35.063a4.109 4.109 0 0 0-1.6-2.444 4.098 4.098 0 0 0-2.81-.77l-2.26.225c-.72.07-1.41.33-2 .753-.59.423-1.05.993-1.34 1.654l-21.79 48.86a32.804 32.804 0 0 1-17.8 17.1l-59.77 23.867a4.097 4.097 0 0 0-2.579 3.805v3.079a4.1 4.1 0 0 0 2.838 3.9 4.099 4.099 0 0 0 1.697.175l98.294-10.512a8.203 8.203 0 0 1 8.89 6.408l6.39 29.352a4.06 4.06 0 0 0 1.6 2.45 4.1 4.1 0 0 0 2.83.752l3.43-.365a4.09 4.09 0 0 0 3.37-2.546l16.09-39.905a32.731 32.731 0 0 1 14.46-16.384l44.35-24.71a4.08 4.08 0 0 0 2.1-3.58v-3.411a4.17 4.17 0 0 0-.35-1.67 4.179 4.179 0 0 0-1.01-1.381 4.108 4.108 0 0 0-1.48-.852c-.55-.177-1.12-.238-1.7-.177l-73.35 7.807a8.185 8.185 0 0 1-5.66-1.509 8.213 8.213 0 0 1-3.22-4.908ZM555.276 422.818 480.41 207.724a16.397 16.397 0 0 0-17.212-10.923l-44.583 4.715a16.41 16.41 0 0 0-13.596 10.447L319.563 435.27a32.672 32.672 0 0 1-2.546 5.22l-34.157 56.624a16.403 16.403 0 0 0-1.476 13.78l1.808 5.277a8.203 8.203 0 0 0 8.594 5.502l101.171-10.36a8.2 8.2 0 0 0 7.183-6.446l1.98-9.294a8.204 8.204 0 0 0-.475-4.933L388.3 459.398a16.4 16.4 0 0 1-.476-11.64l8.81-26.408a4.104 4.104 0 0 1 3.445-2.775l59.335-6.425a4.097 4.097 0 0 1 2.844.752 4.097 4.097 0 0 1 1.609 2.462l1.73 8.06a16.33 16.33 0 0 1 .012 6.82l-11.414 54.205a8.182 8.182 0 0 0 .967 5.86l5.322 9.007a8.226 8.226 0 0 0 3.39 3.159 8.226 8.226 0 0 0 4.56.822l105.222-11.464a8.204 8.204 0 0 0 7.315-8.155v-22.422c0-4.092-1.53-8.036-4.289-11.062l-14.649-16.04a32.797 32.797 0 0 1-6.757-11.336Zm-144.078-45.096L435.97 303.5c.66-1.98 3.514-1.825 3.949.217l15.133 70.549a4.094 4.094 0 0 1-1.948 4.405 4.093 4.093 0 0 1-1.619.531l-35.957 3.895c-2.969.32-5.277-2.542-4.33-5.375Zm-24.916 175.652-23.669 9.537a32.734 32.734 0 0 1-8.737 2.181l-156.489 16.884c-1.8.193-3.612.238-5.42.131l-39.84-2.32a8.232 8.232 0 0 0-4.645 1.127l-16.429 9.688a8.216 8.216 0 0 0-3.825 5.24l-12.808 56.154a8.198 8.198 0 0 0 5.137 9.508l16.45 6.117a8.176 8.176 0 0 0 5.727-.004l40.47-15.133c2.6-.972 5.31-1.616 8.07-1.903l35.436-3.71c5.047-.53 9.356 3.604 9.04 8.667l-8.663 138.375a32.786 32.786 0 0 1-1.336 7.442l-17.676 58.466a8.195 8.195 0 0 0 1.489 7.54l12.062 14.85a8.192 8.192 0 0 0 7.236 2.985l79.774-8.54a8.198 8.198 0 0 0 6.244-4.084l8.299-14.51a16.402 16.402 0 0 0 1.025-14.15l-14.276-27.527a32.786 32.786 0 0 1-3.653-16.53l6.793-155.338a8.21 8.21 0 0 1 7.434-7.806l25.608-2.37a32.734 32.734 0 0 1 11.041.849l38.458 9.692a8.184 8.184 0 0 0 4.478-.127l20.467-6.474a8.193 8.193 0 0 0 5.67-8.802l-7.42-61.275a8.205 8.205 0 0 0-5.073-6.617l-20.315-8.204a8.2 8.2 0 0 0-6.134-.009Zm557.756-228.488-35.715 3.936a4.102 4.102 0 0 0-3.58 3.333l-8.597 47.027a8.2 8.2 0 0 1-7.778 6.72l-6.662.233a4.098 4.098 0 0 1-4.24-3.907l-4.862-105.112a4.096 4.096 0 0 1 1.188-3.08 4.1 4.1 0 0 1 3.072-1.208l31.812 1.25a16.411 16.411 0 0 0 10.627-3.37l10.102-7.745a8.208 8.208 0 0 0 3.215-6.506V215.69a8.203 8.203 0 0 0-5.339-7.687l-7.872-2.932a16.382 16.382 0 0 0-8.913-.717l-37.412 7.413c-2.428.483-4.724-1.288-4.884-3.76l-2.345-36.093a16.375 16.375 0 0 0-4.46-10.217l-7.938-8.38a8.204 8.204 0 0 0-6.814-2.517l-24.317 2.57a4.103 4.103 0 0 0-3.641 3.625l-6.441 57.92a4.102 4.102 0 0 1-4.178 3.65l-26.658-.669a16.414 16.414 0 0 0-9.57 2.788l-10.402 7.003a8.196 8.196 0 0 0-3.624 6.802v36.043a8.213 8.213 0 0 0 4.207 7.167l9.938 5.547a16.418 16.418 0 0 0 11.68 1.652l15.536-3.587c2.82-.652 5.408 1.746 4.977 4.608l-20.065 132.278a16.41 16.41 0 0 0 7.819 16.552l55.411 33.022a16.394 16.394 0 0 0 12.345 1.828l68.63-17.027a16.4 16.4 0 0 0 8.585-5.338l24.789-29.369a16.376 16.376 0 0 0 3.846-9.827l1.697-37.384a16.378 16.378 0 0 0-1.152-6.827l-13.505-33.833a8.191 8.191 0 0 0-8.512-5.108Z"/><path fill="#fff" d="m1189.47 662.438-28.12 2.952a8.225 8.225 0 0 0-5.11 2.533 8.224 8.224 0 0 0-2.22 5.249l-1.65 35.814a4.095 4.095 0 0 1-3.97 3.907l-6.61.201a8.176 8.176 0 0 1-5.78-2.142 8.19 8.19 0 0 1-2.66-5.562l-5.82-96.817c-.04-.573.05-1.148.25-1.686s.51-1.027.92-1.437c.4-.41.88-.73 1.42-.941.53-.211 1.1-.307 1.68-.282l32.75 1.422c4.15.18 8.2-1.216 11.36-3.907l8.75-7.466a8.152 8.152 0 0 0 2.09-2.736c.5-1.049.76-2.192.78-3.353l.75-41.487a8.224 8.224 0 0 0-1.56-4.954 8.171 8.171 0 0 0-4.22-3.025l-8.63-2.67c-2.6-.803-5.36-.946-8.03-.417l-37.9 7.51c-.57.114-1.16.104-1.73-.028a4.045 4.045 0 0 1-1.56-.741 4.072 4.072 0 0 1-1.12-1.321 3.904 3.904 0 0 1-.47-1.665l-2.44-37.543a16.492 16.492 0 0 0-4.84-10.607l-6.19-6.105a8.185 8.185 0 0 0-6.61-2.32l-22.29 2.332a8.229 8.229 0 0 0-4.93 2.337 8.253 8.253 0 0 0-2.37 4.908l-6.03 53.903a4.146 4.146 0 0 1-1.4 2.651 4.104 4.104 0 0 1-2.83.994l-27.1-.997a16.4 16.4 0 0 0-9.25 2.456l-11.6 7.196a8.208 8.208 0 0 0-2.9 3.083 8.197 8.197 0 0 0-.97 4.117l1.08 38.572a8.16 8.16 0 0 0 1.59 4.636 8.16 8.16 0 0 0 3.96 2.896l9.55 3.255c2.64.9 5.48 1.109 8.23.607l18.93-3.456c2.7-.492 5.12 1.759 4.81 4.49l-16.5 147.443c-.4 3.542.37 7.117 2.18 10.184a16.416 16.416 0 0 0 7.89 6.811l45.3 18.593a16.377 16.377 0 0 0 9.93.804l85.53-19.82a16.398 16.398 0 0 0 12.37-12.705l13.41-65.883c1-4.912-.3-10.012-3.53-13.846l-19.45-23.067a8.169 8.169 0 0 0-3.2-2.321 8.202 8.202 0 0 0-3.92-.549Z"/></svg>