<svg xmlns="http://www.w3.org/2000/svg" viewBox="0 0 600 324" fill="none"><path fill="currentColor" d="M329.011 125.261 315.854 79.67a2.406 2.406 0 0 0-2.591-1.72l-6.846.819a4.796 4.796 0 0 0-3.025 1.585l-1.655 1.87a4.8 4.8 0 0 0-1.181 2.684l-4.133 39.474a9.622 9.622 0 0 0 .477 4.151l1.536 4.432a2.396 2.396 0 0 0 2.52 1.602l23.153-2.448a2.39 2.39 0 0 0 1.668-.948l2.849-3.801a2.41 2.41 0 0 0 .385-2.109Zm15.352-60.614-10.9 10.559a2.404 2.404 0 0 0-.563 2.611l3.994 10.103a4.804 4.804 0 0 0 3.493 2.938l23.763 4.917a2.399 2.399 0 0 1 1.774 1.543l1.509 4.226a1.208 1.208 0 0 1-.578 1.472l-12.106 6.29a1.197 1.197 0 0 1-1.564-.418l-.456-.714a1.185 1.185 0 0 1-.183-.52l-.89-8.267a2.401 2.401 0 0 0-1.637-2.024l-6.196-2.04a2.4 2.4 0 0 0-2.623.779l-8.825 11.015a2.396 2.396 0 0 0-.497 1.879l1.294 8.179a4.81 4.81 0 0 0 1.808 3.052l14.521 11.222a4.794 4.794 0 0 0 3.83.917l23.896-4.548a4.806 4.806 0 0 0 3.045-1.979l6.551-9.436a4.818 4.818 0 0 0 .786-3.578l-3.743-21.269a4.808 4.808 0 0 0-2.546-3.447l-9.464-4.838a4.796 4.796 0 0 0-2.644-.503l-14.345 1.386a4.808 4.808 0 0 1-2.831-.603l-2.172-1.234a1.204 1.204 0 0 1-.591-1.254l.865-4.908a1.205 1.205 0 0 1 1.268-.99l16.97 1.216 3.806 3.745 7.737-.726.311-8.093-5.736-7.395a2.404 2.404 0 0 1-.296-2.451l5.555-12.474a2.402 2.402 0 0 1 1.55-1.336l11.63-3.237a4.799 4.799 0 0 1 3.814.542l6.322 3.918a1.199 1.199 0 0 1 .559 1.155l-.104.938a1.205 1.205 0 0 1-1.181 1.071l-7.981.078a4.784 4.784 0 0 0-2.633.819l-3.124 2.103a2.405 2.405 0 0 0-1.058 1.994v11.642c0 1.029.653 1.943 1.625 2.275l2.636.896c.846.29 1.757.337 2.628.135l5.289-1.222a1.2 1.2 0 0 1 1.463 1.3l-4.646 41.932a4.81 4.81 0 0 0 2.746 4.887l14.549 6.784a4.794 4.794 0 0 0 3.323.271l22.673-6.363a4.806 4.806 0 0 0 2.901-2.295l5.237-9.444a4.814 4.814 0 0 0 .554-3.031l-2.158-14.7a2.408 2.408 0 0 0-2.048-2.03l-13.826-1.91a1.2 1.2 0 0 0-1.355 1.035l-1.728 13.329a1.824 1.824 0 0 1-1.357 1.533l-2.174.557a1.2 1.2 0 0 1-1.497-1.117l-1.236-31.962a1.217 1.217 0 0 1 .351-.896 1.194 1.194 0 0 1 .896-.35l9.323.367a4.796 4.796 0 0 0 3.112-.99l2.957-2.269a2.407 2.407 0 0 0 .941-1.908V51.542a2.41 2.41 0 0 0-1.563-2.253l-2.304-.86a4.783 4.783 0 0 0-2.61-.21l-10.95 2.173a1.202 1.202 0 0 1-1.433-1.102l-.535-8.248a2.405 2.405 0 0 0-1.367-2.017l-11.726-5.563a4.804 4.804 0 0 0-2.56-.436l-21.094 2.232a4.8 4.8 0 0 0-3.282 1.824L363.583 57.26a4.802 4.802 0 0 0-.941 3.795l.214 1.209a1.206 1.206 0 0 1-.697 1.307 1.2 1.2 0 0 1-.518.102l-13.806-.379a4.79 4.79 0 0 0-3.472 1.353ZM485.41 83.722l.77 2.16a1.208 1.208 0 0 1-.393 1.352l-11.378 8.873a1.2 1.2 0 0 1-1.402.052l-.475-.316a1.2 1.2 0 0 1-.528-.867l-.84-7.512a1.195 1.195 0 0 0-.817-1.007l-6.935-2.284a2.402 2.402 0 0 0-2.625.778L452 95.92a2.4 2.4 0 0 0-.481 1.978l.952 4.73a4.806 4.806 0 0 0 1.588 2.707l15.078 12.887a4.812 4.812 0 0 0 4.015 1.066l21.788-4.147a4.813 4.813 0 0 0 2.959-1.859l7.836-10.574a4.811 4.811 0 0 0 .894-3.563l-3.24-22.06a4.803 4.803 0 0 0-3.485-3.937L484.721 69a9.57 9.57 0 0 0-4.244-.183l-9.354 1.7a1.199 1.199 0 0 1-1.416-1.171l-.041-4.035a1.206 1.206 0 0 1 1.131-1.213l15.16-.885a4.807 4.807 0 0 1 3.024.855l4.225 2.947a2.415 2.415 0 0 0 1.976.355l4.254-1.103a2.405 2.405 0 0 0 1.792-2.137l.722-9.167a2.407 2.407 0 0 0-.957-2.115l-2.442-1.826a2.399 2.399 0 0 0-1.329-.474l-30.656-1.396a4.799 4.799 0 0 0-4.16 2.056l-11 15.826a2.4 2.4 0 0 0-.215 2.365l3.876 8.55a4.797 4.797 0 0 0 3.963 2.802l25.351 2.18a1.198 1.198 0 0 1 1.029.792ZM496.205 188.8l3.084-5.394a2.4 2.4 0 0 0 .236-1.807l-3.7-13.998a4.81 4.81 0 0 0-2.646-3.139l-17.735-8.114a9.598 9.598 0 0 0-6.14-.626l-15.128 3.475a9.616 9.616 0 0 0-5.342 3.354l-11.326 14.132a4.807 4.807 0 0 0-1.057 2.905l-.495 23.31a4.816 4.816 0 0 0 .994 3.032l12.999 16.921a4.8 4.8 0 0 0 3.806 1.875h21c.965 0 1.907-.292 2.704-.836l17.711-12.086a4.807 4.807 0 0 0 2.069-4.498l-.542-4.91a9.63 9.63 0 0 0-.851-3.028l-1.767-3.768a2.403 2.403 0 0 0-2.534-1.357l-10.58 1.614a1.197 1.197 0 0 0-1.019 1.24l.133 2.992a2.402 2.402 0 0 1-1.736 2.415l-9.901 2.849a4.803 4.803 0 0 1-3.646-.412l-7.459-4.118a2.402 2.402 0 0 1-1.221-2.415l.429-3.287a1.21 1.21 0 0 1 .349-.702c.192-.188.442-.306.708-.336l36.784-4.089a2.4 2.4 0 0 0 1.819-1.194Zm-37.358-11.361 2.412-2.747a2.399 2.399 0 0 1 1.294-.764l4.65-1.009a4.794 4.794 0 0 1 3.633.666l6.496 4.219a1.204 1.204 0 0 1 .514 1.292l-.528 2.178a1.2 1.2 0 0 1-1.043.912l-17.298 1.792a1.192 1.192 0 0 1-.928-.302 1.209 1.209 0 0 1-.396-.893v-2.171c0-1.168.424-2.296 1.194-3.173Zm-290.91 22.906-14.566-9.194a4.81 4.81 0 0 0-3.78-.584l-19.54 5.131a9.62 9.62 0 0 0-4.921 3.12l-10.839 12.931a9.618 9.618 0 0 0-2.222 5.501l-.999 14.128a9.624 9.624 0 0 0 1.174 5.326l9.525 17.259a4.808 4.808 0 0 0 3.774 2.465l20.31 1.818a9.597 9.597 0 0 0 7.559-2.693l19.243-18.778a4.813 4.813 0 0 0 1.404-4.089l-3.924-28.923a4.794 4.794 0 0 0-2.198-3.418Zm-29.32 36.406-4.82-4.852a4.81 4.81 0 0 1-1.017-5.26l5.312-12.58a2.405 2.405 0 0 1 2.566-1.441l8.265 1.232a2.4 2.4 0 0 1 2.047 2.481l-.406 9.372a9.614 9.614 0 0 1-3.582 7.08l-5.16 4.148a2.4 2.4 0 0 1-3.205-.18Zm405.364-60.677 9.824-5.717a2.403 2.403 0 0 0 1.173-2.401l-1.648-12.17a4.81 4.81 0 0 0-3.951-4.092l-10.605-1.813a4.806 4.806 0 0 0-3.742.934l-4.732 3.655a4.808 4.808 0 0 0-1.625 2.294l-1.629 4.923a.597.597 0 0 1-.721.393l-.62-.162a.6.6 0 0 1-.445-.636l.648-7.121a2.407 2.407 0 0 0-1.487-2.445l-4.765-1.937a4.797 4.797 0 0 0-4.937.808l-10.77 9.267a4.808 4.808 0 0 0-1.116 5.888l6.435 12.2a9.624 9.624 0 0 1 1.085 5.198l-.945 12.793a9.588 9.588 0 0 1-.437 2.238l-3.865 12.01a2.41 2.41 0 0 0 .353 2.164l2.216 3.009a4.8 4.8 0 0 0 4.39 1.925l16.493-1.816a4.808 4.808 0 0 0 3.37-1.968l2.113-2.933a2.405 2.405 0 0 0 .445-1.607l-.528-6.285a4.8 4.8 0 0 0-1.473-3.077l-1.791-1.71a4.803 4.803 0 0 1-1.457-2.924l-.967-8.296a9.628 9.628 0 0 1 .542-4.471l3.168-8.506a1.202 1.202 0 0 1 1.704-.632l5.564 3.073a4.797 4.797 0 0 0 4.733-.053ZM202.565 91.568l-.622-.162a.638.638 0 0 1-.475-.668l.545-7.022a2.402 2.402 0 0 0-1.642-2.47l-5.459-1.797a4.794 4.794 0 0 0-4.832 1.104l-10.541 10.17a4.812 4.812 0 0 0-1.011 5.51l5.995 12.733a9.643 9.643 0 0 1 .916 4.115l-.023 11.945a9.587 9.587 0 0 1-.462 2.93l-3.724 11.568a2.41 2.41 0 0 0 .461 2.3l2.707 3.166a4.807 4.807 0 0 0 4.163 1.653l15.514-1.674a4.793 4.793 0 0 0 3.839-2.752l3.074-6.613c.183-.392.256-.827.212-1.257a2.397 2.397 0 0 0-.46-1.19l-4.447-5.99a4.816 4.816 0 0 1-.914-2.31l-1.018-8.745a9.622 9.622 0 0 1 .541-4.47l3.168-8.506a1.213 1.213 0 0 1 .708-.707 1.195 1.195 0 0 1 .997.075l5.19 2.866a4.8 4.8 0 0 0 5.249-.401l7.519-5.794a4.807 4.807 0 0 0 1.686-5.135l-2.491-8.683a4.799 4.799 0 0 0-3.051-3.218l-2.798-.965a4.794 4.794 0 0 0-2.887-.077l-10.441 2.996a4.806 4.806 0 0 0-3.277 3.242l-1.136 3.798a.638.638 0 0 1-.773.435Zm208.93 136.247 21.431-2.266a2.4 2.4 0 0 0 2.077-1.808l.677-2.727a4.796 4.796 0 0 0-.73-3.924l-3.471-4.943a4.801 4.801 0 0 1-.851-2.303l-3.912-40.548a4.802 4.802 0 0 0-3.924-4.268l-9.241-1.677a4.802 4.802 0 0 0-3.199.535l-9.339 5.227a4.802 4.802 0 0 0-2.257 2.819l-2.113 7.075a.601.601 0 0 1-.621.426l-.685-.053c-.325-.025-.556-.295-.553-.629l-.369-26.983a4.802 4.802 0 0 0-1.595-3.514l-8.09-7.257a4.797 4.797 0 0 0-4.73-.978l-10.847 3.638a2.402 2.402 0 0 0-1.598 2.713l2.073 11.284a2.403 2.403 0 0 0 2.574 1.96l1.529-.136a1.201 1.201 0 0 1 1.305 1.267l-2.934 50.01a9.564 9.564 0 0 1-.485 2.506l-4.709 13.994a2.405 2.405 0 0 0 .745 2.619l2.023 1.674a2.4 2.4 0 0 0 1.786.537l21.947-2.356a2.388 2.388 0 0 0 1.898-1.328l1.312-2.668c.206-.419.285-.889.229-1.353l-2.692-22.012a4.8 4.8 0 0 1 .328-2.419l1.617-3.918a4.814 4.814 0 0 1 1.301-1.805l8.885-7.671a.6.6 0 0 1 .992.475l-1.13 35.245c-.02.609.193 1.204.595 1.663l2.694 3.072a2.398 2.398 0 0 0 2.057.805Zm-107.728-19.333 2.595-4.538a4.802 4.802 0 0 0 .474-3.616l-3.449-13.043a4.804 4.804 0 0 0-2.646-3.141l-17.734-8.114a9.604 9.604 0 0 0-6.142-.626l-16.753 3.85a4.809 4.809 0 0 0-2.672 1.677l-12.371 15.434a4.803 4.803 0 0 0-1.055 2.905l-.43 20.293a4.815 4.815 0 0 0 .961 2.987l12.902 17.205a4.802 4.802 0 0 0 3.331 1.893l24.427 2.615a4.806 4.806 0 0 0 3.24-.825l16.642-11.51a2.4 2.4 0 0 0 .997-2.405l-2.35-12.969a2.4 2.4 0 0 0-1.318-1.735l-3.261-1.577a2.4 2.4 0 0 0-1.65-.161l-8.238 2.149a2.407 2.407 0 0 0-1.796 2.339l.013 2.571a1.198 1.198 0 0 1-.839 1.152l-9.167 2.892a4.8 4.8 0 0 1-3.768-.378l-9.271-5.134a1.202 1.202 0 0 1-.612-1.183l.295-2.665a1.202 1.202 0 0 1 1.061-1.061l36.766-4.087a2.394 2.394 0 0 0 1.818-1.194Zm-37.954-10.68 2.485-2.833a4.796 4.796 0 0 1 2.591-1.525l3.877-.843a4.795 4.795 0 0 1 3.631.665l6.498 4.22a1.2 1.2 0 0 1 .513 1.292l-.527 2.178a1.2 1.2 0 0 1-1.044.912l-17.297 1.793a1.209 1.209 0 0 1-.928-.303 1.196 1.196 0 0 1-.396-.893v-3.077c0-.584.212-1.147.597-1.586Z"/><path fill="currentColor" d="m445.131 243.433-51.774 22.312a9.593 9.593 0 0 1-3.885.782l-46.279-.417a9.585 9.585 0 0 1-2.066-.244l-105.499-24.287a4.787 4.787 0 0 0-2.469.085l-11.343 3.442a4.786 4.786 0 0 1-2.186.141l-9.435-1.58a4.805 4.805 0 0 0-1.769.035l-10.134 2.106a4.796 4.796 0 0 1-2.547-.163l-.769-.267a1.204 1.204 0 0 1-.808-1.136v-2.886c0-.464.267-.885.684-1.085l2.9-1.38a2.38 2.38 0 0 1 1.243-.226l8.526.757a4.779 4.779 0 0 0 1.795-.184l18.845-5.629a4.798 4.798 0 0 0 2.808-2.242l8.182-14.499c.479-.847.689-1.82.603-2.789l-1.012-11.411a4.796 4.796 0 0 0-1.459-3.042l-10.114-9.716a4.802 4.802 0 0 1-1.384-2.532l-1.81-9.11a.601.601 0 0 1 .929-.613l4.5 3.08a4.792 4.792 0 0 0 2.943.833l8.54-.416a2.405 2.405 0 0 0 2.131-1.554l4.831-12.865a2.396 2.396 0 0 0-.39-2.37l-5.99-7.311a4.808 4.808 0 0 0-4.217-1.731l-12.408 1.312a4.802 4.802 0 0 0-3.16 1.673l-4.524 5.343a9.636 9.636 0 0 0-1.644 2.781l-7.061 18.465a1.2 1.2 0 0 1-.981.764l-10.9 1.281a9.609 9.609 0 0 0-5.7 2.779l-8.265 8.346a4.792 4.792 0 0 0-1.275 2.336l-3.317 14.853a4.812 4.812 0 0 0 .563 3.512l7.032 11.787a1.202 1.202 0 0 1-.31 1.576l-6.973 5.244a2.407 2.407 0 0 0-.893 1.363l-2.759 11.57c-.068.287-.028.59.112.85.141.259.373.458.651.558l7.248 2.606a.604.604 0 0 1 .396.597l-.041.777a.602.602 0 0 1-.614.568l-6.893-.161a2.401 2.401 0 0 0-2.148 1.223l-7.06 12.546a4.82 4.82 0 0 0-.213 4.286l8.184 18.71a4.8 4.8 0 0 0 3.426 2.78l35.034 7.255a4.815 4.815 0 0 0 2.401-.118l13.509-4.211a4.804 4.804 0 0 0 2.058-1.279l12.904-14.254a4.806 4.806 0 0 0 .936-4.915l-6.952-18.534a.6.6 0 0 1 .687-.798l36.183 7.829a9.534 9.534 0 0 1 1.681.529l41.516 17.397a9.574 9.574 0 0 0 3.557.745l57.698.911a9.594 9.594 0 0 0 4.556-1.069l67.73-34.988a2.404 2.404 0 0 0 .838-3.553l-1.154-1.583a4.804 4.804 0 0 0-5.776-1.577Zm-242.889-37.165 6.422-4.493a2.398 2.398 0 0 1 2.753.003l6.773 4.744a1.206 1.206 0 0 1 .421 1.443l-4.446 10.822a2.405 2.405 0 0 1-1.796 1.451l-6.065 1.09a2.398 2.398 0 0 1-1.703-.331l-4.119-2.596a2.4 2.4 0 0 1-1.061-2.569l1.855-8.129a2.401 2.401 0 0 1 .966-1.434v-.001Zm18.234 68.395-3.714 5.175a2.392 2.392 0 0 1-2.144.995l-16.492-1.341a4.8 4.8 0 0 1-4.267-3.619l-2.09-8.322a2.408 2.408 0 0 1 1.565-2.865l10.004-3.357a4.796 4.796 0 0 1 2.409-.167l7.291 1.366a4.811 4.811 0 0 1 3.241 2.265l4.31 7.237a2.412 2.412 0 0 1-.113 2.633ZM321.596 53l-2.232-10.276a1.205 1.205 0 0 0-1.291-.941l-.663.066a1.2 1.2 0 0 0-.978.705l-6.379 14.32a9.6 9.6 0 0 1-5.211 5.01l-17.499 6.996a1.2 1.2 0 0 0-.755 1.115v.902a1.194 1.194 0 0 0 .83 1.143c.161.052.33.07.497.051l28.78-3.08a2.397 2.397 0 0 1 2.601 1.878l1.871 8.602a1.195 1.195 0 0 0 1.298.938l1.004-.107a1.2 1.2 0 0 0 .988-.746l4.709-11.695a9.607 9.607 0 0 1 4.233-4.802l12.986-7.241c.187-.104.342-.257.45-.441.109-.184.166-.395.166-.609v-1a1.213 1.213 0 0 0-.399-.893 1.202 1.202 0 0 0-.93-.302l-21.476 2.288a2.4 2.4 0 0 1-2.6-1.88Zm-151.461 74.796-21.92-63.038a4.8 4.8 0 0 0-5.039-3.201l-13.053 1.382A4.805 4.805 0 0 0 126.142 66l-25.02 65.444a9.569 9.569 0 0 1-.745 1.53l-10 16.595a4.81 4.81 0 0 0-.433 4.039l.53 1.546a2.403 2.403 0 0 0 2.516 1.613l29.621-3.037a2.402 2.402 0 0 0 2.103-1.889l.58-2.724a2.403 2.403 0 0 0-.14-1.445l-3.907-9.156a4.813 4.813 0 0 1-.139-3.412l2.579-7.739a1.194 1.194 0 0 1 1.009-.813l17.372-1.883a1.197 1.197 0 0 1 1.304.941l.506 2.363c.142.658.143 1.34.004 1.998l-3.342 15.886a2.4 2.4 0 0 0 .283 1.718l1.558 2.639a2.409 2.409 0 0 0 2.328 1.167l30.807-3.36a2.398 2.398 0 0 0 2.142-2.39v-6.571a4.814 4.814 0 0 0-1.256-3.242l-4.289-4.701a9.627 9.627 0 0 1-1.978-3.322Zm-42.184-13.216 7.253-21.753c.193-.58 1.029-.534 1.156.064l4.431 20.676a1.199 1.199 0 0 1-1.044 1.446l-10.528 1.142a1.202 1.202 0 0 1-1.268-1.575Zm-7.295 51.478-6.929 2.795a9.58 9.58 0 0 1-2.558.639l-45.818 4.949a9.667 9.667 0 0 1-1.587.038l-11.664-.68a2.41 2.41 0 0 0-1.36.33l-4.81 2.84a2.398 2.398 0 0 0-1.12 1.535l-3.75 16.458a2.404 2.404 0 0 0 1.504 2.786l4.816 1.793c.541.202 1.137.201 1.677-.001l11.85-4.435a9.557 9.557 0 0 1 2.362-.558l10.375-1.087A2.401 2.401 0 0 1 76.29 196l-2.537 40.553a9.623 9.623 0 0 1-.39 2.181l-5.176 17.135a2.401 2.401 0 0 0 .436 2.21l3.531 4.352a2.403 2.403 0 0 0 2.119.875l23.356-2.503a2.405 2.405 0 0 0 1.829-1.197l2.429-4.252a4.813 4.813 0 0 0 .3-4.147l-4.18-8.068a9.615 9.615 0 0 1-1.069-4.844l1.989-45.525a2.406 2.406 0 0 1 2.176-2.288l7.498-.695a9.591 9.591 0 0 1 3.233.249l11.259 2.841c.432.109.886.097 1.312-.038l5.992-1.897a2.4 2.4 0 0 0 1.66-2.58l-2.172-17.958a2.401 2.401 0 0 0-1.486-1.939l-5.948-2.404a2.4 2.4 0 0 0-1.796-.003Zm163.301-66.963-10.456 1.153a1.203 1.203 0 0 0-1.048.977l-2.517 13.783a2.402 2.402 0 0 1-2.278 1.969l-1.95.068a1.201 1.201 0 0 1-1.242-1.145l-1.423-30.805a1.196 1.196 0 0 1 .348-.903 1.196 1.196 0 0 1 .899-.354l9.314.367a4.8 4.8 0 0 0 3.111-.988l2.958-2.27a2.397 2.397 0 0 0 .941-1.907V67.093a2.4 2.4 0 0 0-1.563-2.253l-2.304-.86a4.797 4.797 0 0 0-2.61-.21l-10.954 2.173a1.2 1.2 0 0 1-1.43-1.102l-.686-10.578a4.8 4.8 0 0 0-1.306-2.994l-2.324-2.456a2.408 2.408 0 0 0-1.995-.738l-7.12.753a1.2 1.2 0 0 0-1.066 1.063l-1.885 16.975a1.202 1.202 0 0 1-1.224 1.07l-7.805-.197a4.802 4.802 0 0 0-2.802.817l-3.045 2.053a2.397 2.397 0 0 0-1.061 1.993v10.563a2.403 2.403 0 0 0 1.232 2.1l2.909 1.626a4.803 4.803 0 0 0 3.42.485l4.549-1.052a1.201 1.201 0 0 1 1.457 1.35l-5.875 38.768a4.813 4.813 0 0 0 2.289 4.851l16.224 9.677a4.79 4.79 0 0 0 3.614.536l20.094-4.99a4.805 4.805 0 0 0 2.513-1.564l7.258-8.608a4.799 4.799 0 0 0 1.126-2.88l.497-10.956a4.822 4.822 0 0 0-.337-2.001l-3.954-9.915a2.405 2.405 0 0 0-2.493-1.497Z"/><path fill="currentColor" d="m355.815 198.022-8.232.865a2.405 2.405 0 0 0-2.148 2.281l-.481 10.496a1.202 1.202 0 0 1-1.163 1.145l-1.937.059a2.402 2.402 0 0 1-2.469-2.258l-1.706-28.375a1.206 1.206 0 0 1 .759-1.191c.157-.061.324-.089.492-.082l9.59.417a4.801 4.801 0 0 0 3.325-1.146l2.562-2.188a2.389 2.389 0 0 0 .841-1.784l.218-12.159a2.4 2.4 0 0 0-1.692-2.338l-2.526-.783a4.808 4.808 0 0 0-2.352-.122l-11.094 2.201a1.187 1.187 0 0 1-.965-.225 1.2 1.2 0 0 1-.466-.875l-.715-11.003a4.814 4.814 0 0 0-1.417-3.109l-1.81-1.789a2.41 2.41 0 0 0-1.936-.68l-6.527.684a2.405 2.405 0 0 0-2.136 2.123l-1.767 15.797a1.204 1.204 0 0 1-1.237 1.069l-7.936-.293a4.803 4.803 0 0 0-2.707.72l-3.396 2.109a2.401 2.401 0 0 0-1.134 2.11l.315 11.305a2.407 2.407 0 0 0 1.626 2.207l2.795.954a4.805 4.805 0 0 0 2.411.178l5.543-1.013a1.202 1.202 0 0 1 1.409 1.316l-4.833 43.211a4.805 4.805 0 0 0 2.948 4.981l13.264 5.449a4.793 4.793 0 0 0 2.907.236l25.042-5.809a4.81 4.81 0 0 0 3.621-3.724l3.927-19.308a4.81 4.81 0 0 0-1.033-4.058l-5.694-6.76a2.392 2.392 0 0 0-2.086-.841Z"/></svg>