<svg xmlns="http://www.w3.org/2000/svg" viewBox="0 0 2000 1080" fill="none"><path fill="currentcolor" d="m1482.27 811.107-172.52 74.276a32.045 32.045 0 0 1-12.95 2.604l-154.21-1.388c-2.32-.02-4.62-.292-6.88-.812l-351.546-80.848a15.95 15.95 0 0 0-8.228.28l-37.796 11.46c-2.36.716-4.852.876-7.284.468l-31.44-5.26a16.056 16.056 0 0 0-5.896.116l-33.768 7.012c-2.828.588-5.76.4-8.488-.544l-2.56-.888a4 4 0 0 1-2.692-3.78v-9.608c0-1.544.888-2.948 2.28-3.612l9.66-4.596a8.003 8.003 0 0 1 4.144-.752l28.408 2.52c2.016.18 4.044-.032 5.984-.612l62.796-18.736a15.997 15.997 0 0 0 9.356-7.464l27.264-48.268a15.963 15.963 0 0 0 2.008-9.284l-3.372-37.984a15.971 15.971 0 0 0-4.86-10.128l-33.704-32.344a15.987 15.987 0 0 1-4.612-8.428l-6.028-30.328c-.348-1.756 1.612-3.052 3.092-2.04l14.996 10.252a15.997 15.997 0 0 0 9.808 2.776l28.456-1.388a7.987 7.987 0 0 0 7.1-5.172l16.1-42.828a7.992 7.992 0 0 0-1.3-7.888l-19.96-24.336a15.991 15.991 0 0 0-14.052-5.764l-41.348 4.368a16.009 16.009 0 0 0-10.528 5.568l-15.076 17.788a32.041 32.041 0 0 0-5.476 9.256l-23.532 61.468a3.987 3.987 0 0 1-3.268 2.544l-36.32 4.264a32.044 32.044 0 0 0-18.992 9.252l-27.54 27.784a15.965 15.965 0 0 0-4.252 7.776l-11.052 49.444a16.007 16.007 0 0 0 1.876 11.692l23.432 39.236a4 4 0 0 1-1.032 5.248l-23.236 17.456a8.03 8.03 0 0 0-2.976 4.536l-9.192 38.516c-.472 1.98.62 4 2.54 4.688l24.152 8.676a1.997 1.997 0 0 1 1.32 1.988l-.136 2.584a1.998 1.998 0 0 1-2.044 1.892l-22.972-.536a7.996 7.996 0 0 0-7.156 4.072l-23.524 41.764a16.02 16.02 0 0 0-2.036 7.05 16.02 16.02 0 0 0 1.324 7.218l27.272 62.284a16.018 16.018 0 0 0 11.416 9.256l116.74 24.147c2.656.55 5.408.42 8-.39l45.016-14.017a16 16 0 0 0 6.856-4.26l43-47.448a15.98 15.98 0 0 0 3.859-7.744 15.983 15.983 0 0 0-.739-8.62l-23.168-61.696c-.56-1.48.744-2.992 2.292-2.656l120.568 26.06a31.924 31.924 0 0 1 5.6 1.76l138.336 57.916a32.034 32.034 0 0 0 11.86 2.48l192.26 3.032a31.97 31.97 0 0 0 15.18-3.56l225.69-116.472c4.37-2.252 5.69-7.864 2.79-11.828l-3.84-5.268a16.007 16.007 0 0 0-19.25-5.252ZM672.916 687.391l21.4-14.956a7.998 7.998 0 0 1 9.172.008l22.568 15.792a4.006 4.006 0 0 1 1.404 4.804l-14.816 36.024a8.004 8.004 0 0 1-5.984 4.832l-20.208 3.628a7.997 7.997 0 0 1-5.676-1.104l-13.724-8.64a7.995 7.995 0 0 1-3.536-8.552l6.18-27.06a8.013 8.013 0 0 1 3.22-4.776Zm60.76 227.68L721.3 932.299a8.004 8.004 0 0 1-7.144 3.312l-54.956-4.464a15.993 15.993 0 0 1-14.22-12.048l-6.964-27.704a8.006 8.006 0 0 1 5.216-9.536l33.336-11.176a15.998 15.998 0 0 1 8.028-.556l24.292 4.548a15.981 15.981 0 0 1 6.212 2.607 15.97 15.97 0 0 1 4.588 4.933l14.364 24.092a8.004 8.004 0 0 1-.376 8.764Zm918.784-285.828 10.28-17.956a7.996 7.996 0 0 0 .78-6.016l-12.33-46.596a15.968 15.968 0 0 0-8.81-10.452l-59.1-27.008a31.99 31.99 0 0 0-20.46-2.084l-50.41 11.568a32.026 32.026 0 0 0-17.8 11.164l-37.74 47.044a15.94 15.94 0 0 0-3.52 9.672l-1.65 77.596a15.989 15.989 0 0 0 3.31 10.092l43.31 56.328a16.047 16.047 0 0 0 5.62 4.598 16.011 16.011 0 0 0 7.07 1.646h69.97c3.22 0 6.36-.972 9.02-2.784l59.01-40.232a15.963 15.963 0 0 0 5.52-6.532 15.929 15.929 0 0 0 1.37-8.444l-1.8-16.344a31.93 31.93 0 0 0-2.84-10.08l-5.88-12.544a8.01 8.01 0 0 0-3.48-3.66 7.991 7.991 0 0 0-4.97-.856l-35.25 5.372c-.98.149-1.87.652-2.49 1.414a3.999 3.999 0 0 0-.91 2.714l.44 9.96a7.98 7.98 0 0 1-5.78 8.04l-32.99 9.484a16.025 16.025 0 0 1-12.15-1.372l-24.86-13.708a8.064 8.064 0 0 1-3.27-3.393 8.025 8.025 0 0 1-.79-4.647l1.42-10.94a4.008 4.008 0 0 1 3.53-3.456l122.57-13.612a8.042 8.042 0 0 0 3.51-1.262 8.06 8.06 0 0 0 2.55-2.714Zm-124.48-37.82 8.03-9.144a8.027 8.027 0 0 1 4.31-2.544l15.5-3.356c2.06-.448 4.2-.483 6.27-.102 2.08.38 4.06 1.168 5.83 2.318l21.65 14.044c.7.451 1.24 1.107 1.54 1.878.31.77.37 1.616.17 2.422l-1.76 7.252a3.977 3.977 0 0 1-3.47 3.036l-57.64 5.964a3.984 3.984 0 0 1-1.65-.175 3.899 3.899 0 0 1-1.44-.831 3.951 3.951 0 0 1-1.32-2.97v-7.228c0-3.888 1.41-7.644 3.98-10.564Z"/><path fill="currentcolor" d="m558.604 667.675-48.536-30.604a15.995 15.995 0 0 0-12.596-1.944l-65.112 17.08a32.045 32.045 0 0 0-16.396 10.384l-36.12 43.048a32.008 32.008 0 0 0-7.404 18.312l-3.328 47.032a31.99 31.99 0 0 0 3.912 17.728l31.74 57.456a16.016 16.016 0 0 0 12.576 8.204l67.676 6.052c4.596.41 9.227-.178 13.575-1.725a32.01 32.01 0 0 0 11.613-7.239l64.12-62.512a16.006 16.006 0 0 0 4.68-13.612l-13.076-96.28a15.99 15.99 0 0 0-7.324-11.38Zm-97.7 121.192-16.06-16.152a16 16 0 0 1-3.388-17.508l17.7-41.88a8.001 8.001 0 0 1 8.548-4.796l27.544 4.1a8.006 8.006 0 0 1 6.82 8.26l-1.352 31.2a32.004 32.004 0 0 1-11.936 23.568l-17.196 13.808a8.002 8.002 0 0 1-10.68-.6Zm550.316-94.108 8.64-15.104a15.973 15.973 0 0 0 1.58-12.04l-11.49-43.42c-.6-2.287-1.71-4.41-3.23-6.218a16.088 16.088 0 0 0-5.59-4.238l-59.09-27.008a31.995 31.995 0 0 0-20.464-2.084l-55.828 12.816a16.01 16.01 0 0 0-8.9 5.58l-41.224 51.38a15.958 15.958 0 0 0-3.516 9.672l-1.432 67.552a16.009 16.009 0 0 0 3.2 9.944l42.992 57.272a16.007 16.007 0 0 0 11.1 6.304l81.396 8.704c3.812.408 7.64-.568 10.796-2.744l55.46-38.316a8.032 8.032 0 0 0 2.84-3.515c.59-1.42.75-2.98.48-4.493l-7.83-43.172a7.991 7.991 0 0 0-1.51-3.415 7.983 7.983 0 0 0-2.88-2.361l-10.872-5.248a7.981 7.981 0 0 0-5.496-.536l-27.452 7.152a7.998 7.998 0 0 0-5.984 7.788l.044 8.556a4 4 0 0 1-2.796 3.836l-30.548 9.628c-4.18 1.32-8.72.864-12.556-1.26l-30.892-17.088a4.01 4.01 0 0 1-2.04-3.94l.984-8.872a3.995 3.995 0 0 1 3.536-3.532l122.512-13.604a7.97 7.97 0 0 0 3.5-1.262 7.993 7.993 0 0 0 2.56-2.714Zm-126.472-35.552 8.28-9.432a15.986 15.986 0 0 1 8.632-5.076l12.92-2.804a15.989 15.989 0 0 1 12.1 2.212l21.652 14.048a3.994 3.994 0 0 1 1.708 4.3l-1.756 7.252a3.994 3.994 0 0 1-3.476 3.036l-57.64 5.968a3.993 3.993 0 0 1-3.091-1.009 3.987 3.987 0 0 1-1.321-2.971v-10.244c0-1.944.708-3.82 1.992-5.28Zm926.912-72.328 32.74-19.032a7.945 7.945 0 0 0 3.16-3.403c.7-1.423.96-3.02.74-4.589l-5.49-40.512a16.005 16.005 0 0 0-13.16-13.624l-35.34-6.032a15.993 15.993 0 0 0-12.47 3.108l-15.77 12.168a16 16 0 0 0-5.41 7.636l-5.43 16.388c-.16.483-.5.886-.95 1.129a1.99 1.99 0 0 1-1.46.179l-2.06-.54c-.46-.12-.86-.398-1.13-.786-.27-.387-.4-.859-.35-1.33l2.16-23.708a8.058 8.058 0 0 0-1.14-4.887 7.977 7.977 0 0 0-3.82-3.249l-15.88-6.448a15.98 15.98 0 0 0-16.45 2.688l-35.89 30.848a16.005 16.005 0 0 0-5.28 9.151 15.986 15.986 0 0 0 1.56 10.453l21.45 40.612a31.992 31.992 0 0 1 3.61 17.304l-3.14 42.584a32.09 32.09 0 0 1-1.46 7.452l-12.88 39.98a7.922 7.922 0 0 0-.28 3.744 7.87 7.87 0 0 0 1.46 3.46l7.38 10.016a16.02 16.02 0 0 0 14.63 6.408l54.96-6.044c4.5-.496 8.58-2.876 11.23-6.552l7.04-9.764a8.034 8.034 0 0 0 1.48-5.348l-1.76-20.924c-.33-3.9-2.07-7.545-4.91-10.244l-5.97-5.692a16.005 16.005 0 0 1-4.85-9.732l-3.22-27.616a31.963 31.963 0 0 1 1.8-14.884l10.56-28.316c.2-.539.51-1.028.92-1.434.41-.406.9-.719 1.44-.919.54-.2 1.11-.281 1.68-.238.58.043 1.13.209 1.64.487l18.54 10.228a16.016 16.016 0 0 0 15.77-.176Zm-441.47 172.24 71.41-7.544a8.017 8.017 0 0 0 4.41-1.92 7.938 7.938 0 0 0 2.51-4.1l2.26-9.076c1.12-4.5.24-9.268-2.44-13.064l-11.56-16.456a16.075 16.075 0 0 1-2.84-7.664l-13.03-134.984a15.98 15.98 0 0 0-4.16-9.299 15.988 15.988 0 0 0-8.92-4.909l-30.79-5.58a16.002 16.002 0 0 0-10.66 1.78l-31.12 17.4a16 16 0 0 0-7.52 9.384l-7.04 23.552a2.02 2.02 0 0 1-.78 1.075c-.38.258-.83.38-1.29.345l-2.28-.176c-1.09-.084-1.85-.984-1.85-2.096l-1.22-89.824a15.927 15.927 0 0 0-1.44-6.405 15.856 15.856 0 0 0-3.88-5.291l-26.96-24.16a15.98 15.98 0 0 0-15.76-3.256l-36.14 12.112a7.996 7.996 0 0 0-4.35 3.522 7.983 7.983 0 0 0-.98 5.51l6.91 37.564a8.022 8.022 0 0 0 3.02 4.922 8.022 8.022 0 0 0 5.56 1.602l5.09-.452a3.997 3.997 0 0 1 3.14 1.112c.41.4.74.885.94 1.42.21.536.3 1.11.27 1.684l-9.78 166.48c-.16 2.839-.7 5.644-1.61 8.34l-15.69 46.588a7.994 7.994 0 0 0-.12 4.743 8.029 8.029 0 0 0 2.6 3.973l6.74 5.572a7.93 7.93 0 0 0 2.8 1.496c1.02.308 2.09.407 3.15.292l73.13-7.84a7.998 7.998 0 0 0 3.74-1.398 8.08 8.08 0 0 0 2.59-3.026l4.37-8.88c.69-1.396.95-2.961.76-4.504l-8.97-73.276c-.33-2.734.04-5.507 1.09-8.052l5.39-13.044a16.016 16.016 0 0 1 4.34-6.008l29.61-25.536c1.32-1.136 3.36-.16 3.3 1.58l-3.76 117.328a7.98 7.98 0 0 0 1.98 5.536l8.98 10.228c.84.963 1.9 1.709 3.1 2.175 1.19.467 2.47.64 3.75.505Z"/><path fill="currentcolor" d="m401.056 553.535-23.092 9.304a31.99 31.99 0 0 1-8.524 2.128l-152.672 16.472a32.095 32.095 0 0 1-5.288.128l-38.868-2.264a8.029 8.029 0 0 0-4.532 1.1l-16.028 9.452a7.995 7.995 0 0 0-3.732 5.112l-12.496 54.784a7.998 7.998 0 0 0 5.012 9.276l16.048 5.968c1.8.672 3.788.672 5.588-.004l39.484-14.764a31.904 31.904 0 0 1 7.872-1.856l34.572-3.62c4.924-.516 9.128 3.516 8.82 8.456l-8.452 135a32.043 32.043 0 0 1-1.304 7.26l-17.244 57.04a7.994 7.994 0 0 0 1.452 7.356l11.768 14.488a7.991 7.991 0 0 0 7.06 2.912l77.828-8.332a8.007 8.007 0 0 0 6.092-3.984l8.096-14.156a16.01 16.01 0 0 0 1-13.804l-13.928-26.856a31.998 31.998 0 0 1-3.564-16.128l6.628-151.548a8.008 8.008 0 0 1 7.252-7.616l24.984-2.312a31.922 31.922 0 0 1 10.772.828l37.52 9.456a7.997 7.997 0 0 0 4.368-.124l19.968-6.316a7.996 7.996 0 0 0 5.532-8.588l-7.24-59.78a8 8 0 0 0-4.948-6.456l-19.82-8.004a7.996 7.996 0 0 0-5.984-.008Zm783.594 106.404-27.43 2.88a7.999 7.999 0 0 0-4.98 2.47 7.987 7.987 0 0 0-2.18 5.122l-1.6 34.94a4.008 4.008 0 0 1-1.19 2.666 4.008 4.008 0 0 1-2.69 1.146l-6.45.196a8.011 8.011 0 0 1-5.64-2.089 8.05 8.05 0 0 1-2.59-5.427l-5.68-94.456c-.03-.56.05-1.12.25-1.645.19-.525.5-1.002.89-1.402a4.005 4.005 0 0 1 3.03-1.193l31.95 1.388c4.05.175 8.01-1.187 11.08-3.812l8.54-7.284a7.969 7.969 0 0 0 2.8-5.94l.73-40.476a7.996 7.996 0 0 0-5.64-7.784l-8.42-2.604a15.99 15.99 0 0 0-7.83-.408l-36.97 7.328a4.01 4.01 0 0 1-3.22-.751 4.033 4.033 0 0 1-1.09-1.289 4.014 4.014 0 0 1-.46-1.624l-2.38-36.628a16.073 16.073 0 0 0-4.72-10.348l-6.04-5.956a7.948 7.948 0 0 0-2.97-1.855 7.988 7.988 0 0 0-3.48-.409l-21.75 2.276a8.02 8.02 0 0 0-4.8 2.28 8.008 8.008 0 0 0-2.31 4.788l-5.89 52.588a3.978 3.978 0 0 1-1.37 2.586 3.98 3.98 0 0 1-2.75.97l-26.45-.972c-3.18-.116-6.32.72-9.02 2.396l-11.31 7.02a7.98 7.98 0 0 0-3.78 7.024l1.05 37.632a8.013 8.013 0 0 0 1.55 4.523 8.03 8.03 0 0 0 3.86 2.825l9.32 3.176c2.58.878 5.35 1.082 8.03.592l18.47-3.372c2.64-.48 5 1.716 4.7 4.38l-16.11 143.848c-.38 3.456.36 6.943 2.14 9.935a15.977 15.977 0 0 0 7.69 6.645l44.2 18.14a15.955 15.955 0 0 0 9.68.784l83.45-19.336a15.986 15.986 0 0 0 12.06-12.396l13.09-64.276c.48-2.366.42-4.81-.17-7.149a16.125 16.125 0 0 0-3.27-6.359l-18.98-22.504a7.972 7.972 0 0 0-6.95-2.8ZM1095.37 417.94l-43.85-151.768a7.997 7.997 0 0 0-8.63-5.724l-22.81 2.724c-3.89.463-7.48 2.34-10.08 5.276l-5.52 6.224a16.005 16.005 0 0 0-3.93 8.936l-13.774 131.408a32.027 32.027 0 0 0 1.592 13.816l5.116 14.756a8 8 0 0 0 8.396 5.332l77.15-8.148a7.981 7.981 0 0 0 5.56-3.156l9.49-12.656a7.88 7.88 0 0 0 1.47-3.359 8.092 8.092 0 0 0-.18-3.661Zm51.15-201.78-36.32 35.152a8.008 8.008 0 0 0-2.25 4.061 7.888 7.888 0 0 0 .38 4.631l13.31 33.632a15.943 15.943 0 0 0 4.58 6.36 16.006 16.006 0 0 0 7.06 3.42l79.18 16.368a7.96 7.96 0 0 1 3.62 1.794c1.04.9 1.83 2.05 2.29 3.342l5.03 14.068c.32.911.3 1.909-.05 2.81a3.986 3.986 0 0 1-1.88 2.09l-40.34 20.94a4 4 0 0 1-5.21-1.392l-1.52-2.376a3.98 3.98 0 0 1-.61-1.732l-2.97-27.52a7.922 7.922 0 0 0-1.73-4.171 8.007 8.007 0 0 0-3.72-2.565l-20.65-6.792a7.985 7.985 0 0 0-4.77-.071 8.027 8.027 0 0 0-3.97 2.663l-29.4 36.668a7.865 7.865 0 0 0-1.49 2.952 7.842 7.842 0 0 0-.17 3.304l4.31 27.228c.64 4.03 2.8 7.664 6.03 10.16l48.38 37.356a15.998 15.998 0 0 0 12.77 3.052l79.62-15.14c4.12-.785 7.76-3.15 10.15-6.588l21.83-31.412a16.017 16.017 0 0 0 2.62-11.908l-12.47-70.804a15.919 15.919 0 0 0-2.9-6.736 15.943 15.943 0 0 0-5.59-4.74l-31.53-16.104a16.03 16.03 0 0 0-8.82-1.676l-47.8 4.616c-3.27.314-6.56-.387-9.43-2.008l-7.24-4.108a3.97 3.97 0 0 1-1.64-1.776 3.974 3.974 0 0 1-.33-2.4l2.89-16.336c.17-.975.7-1.852 1.48-2.46a3.977 3.977 0 0 1 2.74-.836l53.61 3.832c1.9.136 3.69.943 5.04 2.276l7.94 7.804a8.017 8.017 0 0 0 2.92 1.832c1.1.391 2.27.537 3.43.428l18.59-1.748a4.028 4.028 0 0 0 2.53-1.235 4.05 4.05 0 0 0 1.09-2.597l.79-20.524a7.969 7.969 0 0 0-1.68-5.208l-17.32-22.32a8.04 8.04 0 0 1-1.63-3.943 8.032 8.032 0 0 1 .64-4.217l18.51-41.524a7.927 7.927 0 0 1 2.09-2.802 7.941 7.941 0 0 1 3.08-1.646l38.75-10.776a16.013 16.013 0 0 1 12.71 1.804l21.06 13.044c.65.398 1.16.971 1.49 1.652.33.68.46 1.44.38 2.192l-.35 3.124a4.04 4.04 0 0 1-1.29 2.529 4.02 4.02 0 0 1-2.65 1.035l-26.59.26c-3.13.028-6.18.975-8.77 2.724l-10.41 7.004a7.912 7.912 0 0 0-2.59 2.877 7.954 7.954 0 0 0-.94 3.759v38.756c0 1.669.52 3.297 1.49 4.655a8.01 8.01 0 0 0 3.93 2.917l8.78 2.984a15.96 15.96 0 0 0 8.76.448l17.62-4.068c2.68-.624 5.18 1.592 4.88 4.332L1320.4 380.42c-.37 3.328.31 6.687 1.95 9.606a16.022 16.022 0 0 0 7.19 6.662l48.48 22.584a16.012 16.012 0 0 0 11.08.904l75.55-21.184c2.04-.57 3.94-1.539 5.6-2.851a16.036 16.036 0 0 0 4.07-4.789l17.45-31.436a16.035 16.035 0 0 0 1.84-10.092l-7.19-48.932a7.996 7.996 0 0 0-2.29-4.517 7.997 7.997 0 0 0-4.53-2.243l-46.07-6.36a4.007 4.007 0 0 0-2.98.784c-.42.321-.77.721-1.03 1.178a3.94 3.94 0 0 0-.51 1.486l-5.76 44.372a6.06 6.06 0 0 1-1.47 3.245 6.088 6.088 0 0 1-3.05 1.855l-7.24 1.856a4.002 4.002 0 0 1-4.99-3.72l-4.12-106.396c-.02-.551.07-1.101.27-1.615s.51-.98.9-1.37a3.984 3.984 0 0 1 2.99-1.167l31.06 1.224c3.74.147 7.41-1.019 10.37-3.296l9.85-7.552a7.92 7.92 0 0 0 2.31-2.811c.55-1.101.83-2.313.83-3.541v-39.768a8.002 8.002 0 0 0-5.21-7.5l-7.67-2.86a15.968 15.968 0 0 0-8.7-.704l-36.49 7.236a4.01 4.01 0 0 1-4.31-2.043 3.87 3.87 0 0 1-.46-1.625l-1.79-27.456a7.991 7.991 0 0 0-4.55-6.716l-39.08-18.516a16.006 16.006 0 0 0-8.53-1.452l-70.29 7.428a16.01 16.01 0 0 0-10.93 6.072l-52.38 67.172a16.03 16.03 0 0 0-3.14 12.632l.71 4.024c.11.584.08 1.184-.08 1.756a4.01 4.01 0 0 1-2.24 2.597c-.54.239-1.13.355-1.72.339l-46.01-1.26c-2.13-.059-4.25.309-6.24 1.081-1.98.773-3.8 1.935-5.33 3.419Zm470 63.504 2.57 7.188c.28.793.3 1.655.07 2.464a4.058 4.058 0 0 1-1.38 2.04l-37.92 29.536a4 4 0 0 1-4.67.176l-1.58-1.052a3.92 3.92 0 0 1-1.2-1.249 3.855 3.855 0 0 1-.56-1.639l-2.8-25.008a3.974 3.974 0 0 0-.87-2.075 3.968 3.968 0 0 0-1.85-1.277l-23.11-7.604a8.02 8.02 0 0 0-8.75 2.592l-29.28 36.512a8.07 8.07 0 0 0-1.53 3.114 7.967 7.967 0 0 0-.07 3.47l3.17 15.744a16.044 16.044 0 0 0 5.29 9.012l50.25 42.9a16.001 16.001 0 0 0 13.38 3.548l72.6-13.804a16.051 16.051 0 0 0 9.86-6.188l26.11-35.2a16.048 16.048 0 0 0 2.98-11.86l-10.8-73.436a15.997 15.997 0 0 0-3.85-8.285 16.03 16.03 0 0 0-7.76-4.823l-50.6-13.808a31.917 31.917 0 0 0-14.14-.608l-31.17 5.656c-.57.104-1.16.082-1.72-.065a3.985 3.985 0 0 1-2.6-2.149c-.25-.525-.39-1.1-.39-1.682l-.14-13.432a4.014 4.014 0 0 1 1.08-2.772 3.989 3.989 0 0 1 2.69-1.264l50.51-2.948c3.58-.208 7.14.8 10.08 2.848l14.08 9.808a8.064 8.064 0 0 0 3.16 1.31 8 8 0 0 0 3.42-.126l14.18-3.672a8 8 0 0 0 4.12-2.604 7.997 7.997 0 0 0 1.85-4.512l2.41-30.516a8.045 8.045 0 0 0-.69-3.93 8.043 8.043 0 0 0-2.5-3.11l-8.14-6.08a8.004 8.004 0 0 0-4.43-1.576l-102.15-4.648a15.97 15.97 0 0 0-7.81 1.636 15.929 15.929 0 0 0-6.05 5.208l-36.66 52.684a8.053 8.053 0 0 0-1.4 3.841c-.12 1.38.11 2.769.69 4.031l12.91 28.464a16.063 16.063 0 0 0 5.34 6.455 16.011 16.011 0 0 0 7.87 2.873l84.47 7.256c1.56.136 2.9 1.16 3.43 2.636ZM674.024 305.78l-2.072-.54c-1-.26-1.664-1.2-1.584-2.224l1.816-23.376a7.999 7.999 0 0 0-5.472-8.22l-18.188-5.984a15.998 15.998 0 0 0-16.104 3.676l-35.124 33.856a15.995 15.995 0 0 0-4.631 8.629 15.993 15.993 0 0 0 1.263 9.711l19.976 42.388a32.057 32.057 0 0 1 3.052 13.7l-.076 39.764a31.904 31.904 0 0 1-1.54 9.752l-12.408 38.508a8.014 8.014 0 0 0 1.536 7.656l9.02 10.54a16.015 16.015 0 0 0 13.872 5.504l51.696-5.572a16 16 0 0 0 12.792-9.16l10.244-22.016a7.997 7.997 0 0 0-.828-8.144l-14.816-19.944a16.01 16.01 0 0 1-3.048-7.688l-3.392-29.112a32 32 0 0 1 1.804-14.88l10.556-28.316a4 4 0 0 1 5.68-2.104l17.296 9.54a15.995 15.995 0 0 0 17.488-1.332l25.056-19.288a16.006 16.006 0 0 0 5.62-17.096l-8.3-28.904a15.996 15.996 0 0 0-10.168-10.712l-9.324-3.212a15.987 15.987 0 0 0-9.62-.256l-34.792 9.972a16.012 16.012 0 0 0-10.92 10.792l-3.784 12.644a2.13 2.13 0 0 1-2.576 1.448ZM565.96 426.38l-73.04-209.848a15.999 15.999 0 0 0-16.792-10.656l-43.496 4.6a16.008 16.008 0 0 0-13.264 10.192l-83.372 217.86a31.793 31.793 0 0 1-2.484 5.092l-33.324 55.244a15.999 15.999 0 0 0-1.44 13.444l1.764 5.148a8.003 8.003 0 0 0 8.384 5.368l98.704-10.108a8.002 8.002 0 0 0 7.008-6.288l1.932-9.068a8.003 8.003 0 0 0-.464-4.812l-13.02-30.48a16.003 16.003 0 0 1-.464-11.356l8.596-25.764a4.003 4.003 0 0 1 3.36-2.708l57.888-6.268a4 4 0 0 1 4.344 3.136l1.688 7.864c.472 2.192.476 4.46.012 6.652l-11.136 52.884a7.986 7.986 0 0 0 .944 5.716l5.192 8.788a8.021 8.021 0 0 0 7.756 3.884l102.656-11.184a8.005 8.005 0 0 0 7.136-7.956V463.88c0-3.992-1.492-7.84-4.184-10.792l-14.292-15.648a31.997 31.997 0 0 1-6.592-11.06Zm-140.564-43.996 24.168-72.412c.644-1.932 3.428-1.78 3.852.212l14.764 68.828c.5 2.32-1.12 4.56-3.48 4.816l-35.08 3.8c-2.896.312-5.148-2.48-4.224-5.244Zm519.844-51.548-34.844 3.84a3.999 3.999 0 0 0-3.492 3.252l-8.388 45.88a7.997 7.997 0 0 1-7.588 6.556l-6.5.228a4.002 4.002 0 0 1-4.136-3.812l-4.744-102.548a4.014 4.014 0 0 1 1.158-3.006 4.015 4.015 0 0 1 2.998-1.178l31.036 1.22a16.008 16.008 0 0 0 10.368-3.288l9.856-7.556a8.004 8.004 0 0 0 3.136-6.348v-39.772a8 8 0 0 0-5.208-7.5l-7.68-2.86a15.99 15.99 0 0 0-8.696-.7l-36.5 7.232c-2.368.472-4.608-1.256-4.764-3.668l-2.288-35.212a15.975 15.975 0 0 0-4.352-9.968l-7.744-8.176a8.013 8.013 0 0 0-6.648-2.456l-23.724 2.508a3.997 3.997 0 0 0-3.552 3.536l-6.284 56.508a4.006 4.006 0 0 1-4.076 3.56l-26.008-.652a16.01 16.01 0 0 0-9.336 2.72l-10.148 6.832a7.989 7.989 0 0 0-3.536 6.636v35.164c0 2.9 1.572 5.58 4.104 6.992l9.696 5.412a16.017 16.017 0 0 0 11.396 1.612l15.156-3.5c2.752-.636 5.276 1.704 4.856 4.496l-19.576 129.052a16.003 16.003 0 0 0 7.628 16.148l54.06 32.216a15.997 15.997 0 0 0 12.044 1.784l66.956-16.612a16.006 16.006 0 0 0 8.376-5.208l24.184-28.652a15.973 15.973 0 0 0 3.752-9.588l1.656-36.472a15.978 15.978 0 0 0-1.124-6.66l-13.176-33.008a7.995 7.995 0 0 0-8.304-4.984Z"/><path fill="currentcolor" d="m1070.66 177.392-7.44-34.209a4.02 4.02 0 0 0-1.55-2.385 4.03 4.03 0 0 0-2.75-.751l-2.21.22c-.7.069-1.37.322-1.94.734-.58.413-1.03.969-1.32 1.614l-21.25 47.669a32.018 32.018 0 0 1-17.37 16.684l-58.311 23.284a3.988 3.988 0 0 0-2.516 3.712v3.004a4.003 4.003 0 0 0 1.325 2.975 3.995 3.995 0 0 0 3.099 1.001l95.903-10.256a8.006 8.006 0 0 1 8.67 6.252l6.23 28.637c.21.962.77 1.814 1.56 2.39.8.577 1.79.838 2.77.734l3.34-.356a4.014 4.014 0 0 0 1.99-.786 3.98 3.98 0 0 0 1.3-1.698l15.69-38.933a32.02 32.02 0 0 1 14.11-15.984l43.27-24.108a4 4 0 0 0 2.05-3.492v-3.328c0-.561-.12-1.116-.34-1.629a4.122 4.122 0 0 0-.98-1.347 4.007 4.007 0 0 0-1.45-.831 3.984 3.984 0 0 0-1.65-.173l-71.56 7.616a8.015 8.015 0 0 1-5.54-1.472 8.041 8.041 0 0 1-3.13-4.788Z"/></svg>