<svg xmlns="http://www.w3.org/2000/svg" width="24" height="24" fill="none"><path fill="currentColor" d="M9.52 15.615c-1.708 0-3.155-.592-4.34-1.777-1.184-1.184-1.776-2.63-1.776-4.338 0-1.708.592-3.154 1.777-4.338 1.184-1.185 2.63-1.777 4.338-1.777 1.708 0 3.154.592 4.339 1.777 1.184 1.184 1.777 2.63 1.777 4.338 0 .714-.12 1.396-.36 2.046-.24.65-.56 1.216-.96 1.696l5.754 5.754c.139.139.21.313.213.522a.707.707 0 0 1-.213.532.718.718 0 0 1-.527.217.718.718 0 0 1-.527-.217l-5.754-5.754c-.5.413-1.074.736-1.724.97-.65.233-1.323.35-2.018.35Zm0-1.5c1.288 0 2.379-.447 3.273-1.34.895-.895 1.342-1.986 1.342-3.275 0-1.288-.447-2.38-1.342-3.274-.894-.894-1.985-1.341-3.274-1.341-1.288 0-2.38.447-3.274 1.341-.894.894-1.341 1.986-1.341 3.274 0 1.289.447 2.38 1.341 3.274.894.894 1.986 1.341 3.274 1.341Z"/></svg>