<svg xmlns="http://www.w3.org/2000/svg" width="414" height="414" fill="none">
  <path d="M17.83 241.25c57.7-6.04 110.05 9.55 143.67 39.84 18.12 16.31 28.08 36.42 28.94 53.34.45 8.94 7.26 16.21 16.21 16.21 8.95 0 15.83-7.27 16.21-16.21 1.68-39.44 60.42-119.36 175.93-131.5 8.33-.87 14.51-7.92 14.51-16.11-.17-9.09-8.92-17.13-17.91-16.14-57.56 6.05-109.97-7.84-143.61-38.13-18.11-16.31-28.13-34.75-28.93-53.34-.38-8.95-7.26-16.21-16.21-16.21-8.95 0-15.57 7.28-16.21 16.21-2.93 41.11-60.41 119.36-175.92 131.5C6.18 211.58 0 218.63 0 226.82c.18 8.83 8.93 15.45 17.82 14.43h.01Z"/>
  <style>
    path { fill: #0D0D0D; }
    @media (prefers-color-scheme: dark) { path { fill: #FAFAFA; } }
  </style>
</svg>