<svg xmlns="http://www.w3.org/2000/svg" width="24" height="19" fill="none"><path fill="currentColor" d="M20.33 1.556A19.547 19.547 0 0 0 15.38 0c-.213.386-.463.904-.634 1.317a18.18 18.18 0 0 0-5.488 0A14.077 14.077 0 0 0 8.615 0C6.877.3 5.214.831 3.66 1.56.527 6.295-.323 10.913.102 15.465a19.796 19.796 0 0 0 6.073 3.111c.488-.672.925-1.388 1.3-2.142-.715-.271-1.4-.607-2.048-.996.172-.128.34-.26.502-.398 3.95 1.848 8.24 1.848 12.142 0 .164.137.332.27.502.398-.65.391-1.337.726-2.052.998.376.752.81 1.47 1.3 2.142a19.755 19.755 0 0 0 6.077-3.113c.498-5.277-.851-9.853-3.568-13.91ZM8.013 12.666c-1.185 0-2.157-1.107-2.157-2.455s.951-2.457 2.157-2.457 2.179 1.107 2.158 2.457c.002 1.348-.952 2.454-2.158 2.454Zm7.974 0c-1.186 0-2.158-1.107-2.158-2.455s.951-2.457 2.158-2.457c1.206 0 2.178 1.107 2.157 2.457 0 1.348-.951 2.454-2.157 2.454Z"/></svg>