<svg xmlns="http://www.w3.org/2000/svg" width="24" height="24" fill="none"><path fill="currentColor" d="M6.6 3.5c1.03 0 2.016.242 2.957.725A7.308 7.308 0 0 1 12 6.279a7.308 7.308 0 0 1 2.443-2.054A6.384 6.384 0 0 1 17.4 3.5c1.713 0 3.158.588 4.335 1.765S23.5 7.887 23.5 9.6c0 .62-.09 1.244-.27 1.87a9.617 9.617 0 0 1-.776 1.888 3.058 3.058 0 0 0-.51-.61 2.517 2.517 0 0 0-.66-.436c.234-.473.412-.933.533-1.38.122-.447.183-.891.183-1.332 0-1.294-.443-2.384-1.33-3.27C19.784 5.443 18.694 5 17.4 5c-1.19 0-2.176.34-2.959 1.021-.782.68-1.596 1.54-2.44 2.579-.846-1.049-1.66-1.91-2.442-2.587C8.776 5.338 7.789 5 6.6 5c-1.294 0-2.384.443-3.27 1.33C2.443 7.216 2 8.306 2 9.6c0 .454.061.906.183 1.356.122.45.296.905.523 1.365a2.705 2.705 0 0 0-.654.441c-.192.177-.36.378-.506.605A8.863 8.863 0 0 1 .77 11.5 6.929 6.929 0 0 1 .5 9.6c0-1.713.589-3.158 1.765-4.335C3.442 4.088 4.887 3.5 6.6 3.5ZM1.365 21.52a.837.837 0 0 1-.616-.25.837.837 0 0 1-.249-.616V20.3c0-.676.344-1.223 1.033-1.642.688-.42 1.594-.63 2.717-.63.204 0 .397.008.579.021.182.014.358.037.529.07-.189.295-.327.61-.417.945-.089.336-.133.691-.133 1.067v1.388H1.365Zm6.039 0a.875.875 0 0 1-.645-.26.875.875 0 0 1-.259-.645v-.446c0-.955.506-1.725 1.518-2.31 1.013-.586 2.34-.878 3.982-.878 1.653 0 2.982.292 3.99.878 1.007.585 1.51 1.355 1.51 2.31v.446a.876.876 0 0 1-.259.646.875.875 0 0 1-.645.258H7.404Zm11.788 0v-1.39a3.812 3.812 0 0 0-.55-2.012c.17-.032.347-.055.53-.069.181-.013.374-.02.578-.02 1.123 0 2.029.21 2.717.629.689.419 1.033.966 1.033 1.642v.354c0 .245-.083.45-.249.616a.837.837 0 0 1-.616.25h-3.443ZM4.25 17.057c-.473 0-.875-.167-1.206-.501a1.657 1.657 0 0 1-.496-1.21c0-.474.166-.877.496-1.211.331-.334.733-.501 1.206-.501s.877.167 1.21.5c.335.335.502.738.502 1.211 0 .473-.167.877-.501 1.21a1.65 1.65 0 0 1-1.21.502Zm15.5 0a1.65 1.65 0 0 1-1.21-.501 1.65 1.65 0 0 1-.502-1.21c0-.474.168-.877.502-1.211a1.65 1.65 0 0 1 1.21-.501c.473 0 .875.167 1.206.5.33.335.496.738.496 1.211 0 .473-.165.877-.496 1.21-.331.335-.733.502-1.206.502ZM12 16.23c-.718 0-1.33-.253-1.836-.76a2.502 2.502 0 0 1-.76-1.836c0-.718.253-1.33.76-1.837a2.502 2.502 0 0 1 1.836-.76c.718 0 1.33.254 1.837.76.506.507.76 1.119.76 1.837s-.254 1.33-.76 1.836a2.502 2.502 0 0 1-1.837.76Z"/></svg>