<svg xmlns="http://www.w3.org/2000/svg" width="448" height="214" fill="none"><path fill="currentColor" d="m54.76 103.851 15.581-1.643c1.752-.184 3.015-.729 3.798-1.633.784-.907 1.175-2.036 1.175-3.387 0-1.132-.257-2.02-.763-2.66-.512-.643-1.276-1.147-2.297-1.513l-2.626-.437c-1.202-.457-1.979-.98-2.324-1.566-.345-.584-.418-1.38-.218-2.392.201-1.008.54-2.359 1.012-4.056l2.03-6.632 25.852-2.726 2.626 8.28c.619 1.908.954 3.272 1.01 4.089.054.816-.32 1.398-1.121 1.737l-2.461 1.082c-.985.652-1.752 1.358-2.298 2.107-.546.753-.82 1.697-.82 2.83 0 1.353.402 2.398 1.202 3.138.8.739 2.097 1.014 3.881.823l24.055-2.537c1.711-.182 2.987-.726 3.828-1.636.837-.911 1.259-2.043 1.259-3.398 0-1.169-.265-2.103-.794-2.795-.529-.692-1.43-1.34-2.706-1.936-1.239-.49-2.207-1.33-2.896-2.52-.694-1.19-1.461-3.128-2.298-5.82l-13.941-42.357c-.472-1.448-.639-2.564-.492-3.35.144-.783.656-1.422 1.53-1.919 1.129-.669 1.969-1.394 2.515-2.184.546-.79.821-1.788.821-2.994 0-1.35-.409-2.399-1.229-3.135-.821-.736-2.123-1.011-3.908-.823l-31.379 3.31c-1.678.178-2.933.719-3.774 1.633-.837.91-1.259 2.026-1.259 3.343 0 1.206.264 2.147.794 2.822.525.676 1.322 1.234 2.377 1.67 1.276.414 1.97.972 2.08 1.674.11.702-.094 1.955-.603 3.766L57.492 87.548c-.73 2.308-1.296 3.847-1.694 4.624-.402.773-1.022 1.424-1.859 1.952l-1.42.917c-.984.837-1.704 1.606-2.16 2.312-.455.706-.683 1.536-.683 2.487 0 1.391.422 2.452 1.26 3.185.836.736 2.112 1.011 3.827.83l-.003-.004Zm18.348-35.67 10.14-33.155 9.839 31.048-19.98 2.106ZM132.431 56.715l1.638.101c.689.256 1.212.632 1.557 1.126.348.494.519 1.472.519 2.933v21.23c0 1.683-.154 2.852-.466 3.504a3.797 3.797 0 0 1-1.339 1.57l-1.202.675c-.731.554-1.303 1.162-1.722 1.828-.418.665-.629 1.438-.629 2.315 0 1.206.355 2.11 1.065 2.711.71.602 1.741.834 3.087.69l24.604-2.595c1.309-.138 2.351-.594 3.114-1.37.767-.777 1.149-1.748 1.149-2.917 0-.988-.281-1.828-.847-2.517-.566-.689-1.414-1.048-2.542-1.075l-3.771-.151c-1.021.033-1.768-.333-2.244-1.106-.472-.773-.709-1.909-.709-3.41V64.403c0-2.597.264-4.754.793-6.475.526-1.72 1.223-3.037 2.076-3.948.858-.914 1.816-1.424 2.87-1.535.841-.088 1.494.08 1.969.504.473.427.71 1.132.71 2.12l-.053 2.144c.037 2.08.693 3.649 1.969 4.7 1.276 1.056 3.151 1.452 5.633 1.19 2.441-.259 4.41-1.35 5.904-3.283 1.493-1.932 2.24-4.798 2.24-8.602 0-4.059-.948-7.06-2.843-8.998-1.896-1.939-4.481-2.735-7.763-2.39-2.953.31-5.612 1.462-7.983 3.448-2.368 1.986-4.257 4.839-5.656 8.552-.094.248-.178.51-.265.766l-.583-6.465c-.217-1.693-.592-2.846-1.118-3.447-.529-.602-1.266-.854-2.214-.753-.656.07-1.456.299-2.404.692-.948.393-2.097.918-3.446 1.57l-9.785 4.76c-1.35.69-2.314 1.388-2.897 2.087-.583.703-.874 1.546-.874 2.534 0 .806.211 1.451.629 1.935.419.487 1.029.887 1.832 1.206h-.003ZM181.56 47.422l1.641.319c.911.272 1.567.695 1.966 1.273.402.581.602 1.546.602 2.9v23.53c0 5.377 1.387 9.218 4.156 11.52 2.77 2.305 6.762 3.181 11.972 2.63 3.135-.329 5.968-1.28 8.503-2.842 2.532-1.566 4.564-3.461 6.095-5.689 1.53-2.228 2.297-4.513 2.297-6.851.037-1.136-.144-1.942-.546-2.41-.402-.47-.894-.692-1.477-.665-.545-.017-1.095.225-1.641.723a28.813 28.813 0 0 0-1.667 1.656 9.278 9.278 0 0 1-1.993 1.61c-.767.463-1.661.749-2.679.856-1.714.182-3.027-.248-3.938-1.286-.911-1.039-1.366-2.672-1.366-4.903V46.205l6.781-.716c3.061-.322 5.274-1.085 6.641-2.291 1.366-1.206 2.049-2.574 2.049-4.113 0-1.132-.348-1.946-1.038-2.44-.693-.493-1.658-.675-2.897-.544l-11.536 1.217v-9.16c0-1.499-.355-2.587-1.065-3.263-.71-.672-1.705-.944-2.981-.81-1.021.108-2.049.602-3.087 1.479-1.038.877-1.996 1.949-2.87 3.209l-3.774 6.65c-.838 1.293-1.578 2.23-2.214 2.812-.64.581-1.303.907-1.992.978l-2.187.232c-1.276.134-2.287.608-3.034 1.417-.747.81-1.119 1.781-1.119 2.914 0 .95.191 1.707.573 2.271.382.565.991 1.022 1.832 1.371l-.007.004ZM249.359 82.316c.73-.752 1.095-1.734 1.095-2.94 0-.877-.204-1.606-.603-2.184-.402-.578-1.021-1.078-1.858-1.505l-1.092-.38c-.583-.269-1.018-.716-1.313-1.344-.291-.628-.435-1.744-.435-3.353V35.943c0-1.206-.322-2.16-.958-2.863-.64-.698-1.557-.987-2.759-.86-.985.104-1.986.34-3.008.7-1.021.362-2.314.94-3.881 1.726l-9.621 4.745c-1.313.615-2.27 1.28-2.87 2.002a3.798 3.798 0 0 0-.901 2.51c0 .877.218 1.543.657 1.99.438.446 1.021.85 1.751 1.212l1.695.152c.689.184 1.212.53 1.557 1.041.348.511.519 1.499.519 2.96v21.23c0 1.646-.154 2.806-.466 3.478a3.784 3.784 0 0 1-1.339 1.596l-1.149.668c-.8.561-1.413 1.173-1.832 1.838-.418.666-.629 1.439-.629 2.316 0 1.206.365 2.11 1.092 2.708.73.601 1.768.83 3.117.685l20.23-2.133c1.276-.135 2.278-.578 3.008-1.334l-.007.006ZM346.216 70.24c.475 1.522 1.095 2.554 1.862 3.095a3.637 3.637 0 0 0 2.568.662c.767-.08 1.393-.36 1.886-.83a63.08 63.08 0 0 0 1.393-1.381c.438-.45 1.021-.713 1.751-.79.69-.074 1.584.027 2.679.293 1.092.268 2.395.534 3.908.796 1.514.262 3.362.275 5.549.047 7.217-.763 12.572-2.9 16.071-6.411 3.5-3.515 5.248-7.813 5.248-12.896 0-3.182-.72-5.857-2.16-8.028-1.44-2.17-3.791-3.934-7.053-5.289-3.262-1.357-7.588-2.409-12.983-3.155-1.567-.164-2.86-.467-3.881-.907-1.022-.44-1.769-.995-2.244-1.657-.472-.661-.71-1.434-.71-2.311 0-1.28.509-2.43 1.53-3.451 1.018-1.022 2.606-1.647 4.756-1.872 2.515-.265 4.802.098 6.861 1.086 2.06.99 3.892 2.698 5.492 5.124 1.022 1.354 2.087 2.268 3.199 2.735 1.111.467 2.233.46 3.362-.027 1.312-.43 2.113-1.33 2.404-2.695.292-1.367.218-2.957-.217-4.778l-1.534-6.969c-.328-1.354-.811-2.301-1.447-2.836-.636-.537-1.376-.76-2.214-.672a3.059 3.059 0 0 0-1.801.82c-.509.474-1.012.958-1.504 1.448a2.871 2.871 0 0 1-1.775.847c-.401.044-1.018-.11-1.858-.464-.837-.349-2.04-.645-3.607-.88-1.567-.235-3.68-.215-6.343.067-4.119.434-7.745 1.502-10.88 3.206-3.134 1.703-5.576 3.87-7.327 6.505-1.751 2.634-2.626 5.598-2.626 8.888s.737 6.038 2.214 8.242c1.477 2.204 3.7 3.935 6.671 5.195 2.97 1.256 6.698 2.053 11.178 2.385 2.15.175 3.881.504 5.194.988 1.31.484 2.267 1.096 2.87 1.835.6.742.901 1.643.901 2.701 0 1.499-.536 2.81-1.611 3.928-1.075 1.12-2.759 1.801-5.057 2.043-1.895.199-3.643.074-5.25-.38-1.604-.453-3.098-1.219-4.481-2.298-1.383-1.078-2.659-2.49-3.828-4.23-.984-1.102-2.14-1.841-3.473-2.211-1.329-.373-2.612-.255-3.854.353-1.239.605-2.043 1.623-2.404 3.05-.365 1.429-.218 3.186.435 5.276l2.13 5.81.01-.007ZM257.352 55.23c1.477 2.205 3.7 3.935 6.671 5.195 2.97 1.257 6.697 2.053 11.178 2.386 2.15.175 3.881.504 5.194.988 1.31.484 2.267 1.095 2.87 1.834.6.743.901 1.644.901 2.702 0 1.499-.536 2.809-1.611 3.928-1.075 1.119-2.759 1.8-5.057 2.043-1.895.198-3.643.074-5.251-.38-1.604-.453-3.097-1.22-4.48-2.298-1.383-1.079-2.659-2.49-3.828-4.23-.984-1.103-2.143-1.842-3.473-2.212-1.329-.373-2.612-.255-3.854.353-1.239.605-2.043 1.623-2.405 3.051-.365 1.428-.217 3.186.436 5.276l2.13 5.81c.475 1.522 1.095 2.553 1.862 3.094.763.541 1.62.763 2.568.662.767-.08 1.393-.36 1.885-.83.493-.474.958-.934 1.394-1.381.438-.45 1.021-.712 1.751-.79.69-.073 1.584.027 2.679.293 1.092.269 2.394.534 3.908.796 1.514.262 3.362.276 5.549.047 7.217-.763 12.572-2.9 16.071-6.411 3.5-3.515 5.248-7.812 5.248-12.896 0-3.182-.72-5.857-2.16-8.027-1.44-2.171-3.791-3.935-7.053-5.29-3.262-1.357-7.588-2.409-12.983-3.154-1.568-.165-2.864-.468-3.882-.908-1.021-.44-1.768-.994-2.243-1.656-.472-.662-.71-1.435-.71-2.312 0-1.28.509-2.43 1.53-3.45 1.018-1.022 2.606-1.647 4.756-1.873 2.514-.265 4.802.098 6.861 1.086 2.06.991 3.892 2.698 5.492 5.124 1.022 1.354 2.087 2.268 3.198 2.735 1.112.467 2.288.639 3.42.155 1.312-.43 2.059-1.509 2.35-2.873.292-1.368.218-2.957-.217-4.778l-1.501-6.818c-1.684-7.238.088-15.342 5.506-20.426 6.47-5.904 14.276-4.106 13.636 5.608-.077 1.71-1.647 10.006-8.402 10.977l-2.187.232c-1.276.135-2.287.608-3.034 1.418-.746.81-1.222 1.75-1.222 2.883 0 .951.295 1.74.676 2.305.382.565.995 1.022 1.832 1.371l1.641.32c.911.272 1.567.695 1.966 1.273.402.581.603 1.546.603 2.9v23.53c0 5.377 1.386 9.217 4.156 11.52 2.769 2.304 6.757 3.181 11.972 2.63 3.134-.33 5.967-1.28 8.502-2.843 2.532-1.565 4.565-3.46 6.095-5.688 1.53-2.228 2.297-4.513 2.297-6.851.034-1.136-.147-1.943-.546-2.41-.401-.47-.894-.692-1.476-.665-.546-.017-1.092.225-1.641.722a27.603 27.603 0 0 0-1.668 1.657 9.323 9.323 0 0 1-1.996 1.61c-.767.463-1.658.749-2.679.856-1.714.182-3.027-.248-3.938-1.287-.911-1.038-1.366-2.671-1.366-4.902V33.373l6.778-.716c3.06-.322 5.274-1.085 6.64-2.291 1.367-1.207 2.05-2.574 2.05-4.113 0-1.133-.349-1.946-1.038-2.44-.694-.494-1.658-.675-2.897-.544l-11.533 1.216s.371-5.305-.094-10.329c-3.54-24.041-39.479-10.329-36.884 14.482.214 1.381-1.547.931-2.388.582-.837-.35-2.039-.645-3.606-.88-1.568-.236-3.681-.216-6.343.067-4.119.433-7.746 1.502-10.88 3.205-3.135 1.704-5.576 3.871-7.328 6.505-1.751 2.635-2.625 5.598-2.625 8.888s.737 6.038 2.214 8.242l.013-.017ZM216.714 17.748c5.673-.595 10.81.773 14.116 3.76 1.781 1.61 2.846 3.575 2.846 5.262 0 .884.713 1.6 1.594 1.6.881 0 1.594-.716 1.594-1.6 0-3.89 5.941-11.774 17.297-12.97a1.596 1.596 0 0 0 1.426-1.59c0-.056 0-.11-.01-.167a1.58 1.58 0 0 0-1.751-1.422c-5.66.598-10.81-.772-14.119-3.76-1.781-1.61-2.843-3.575-2.843-5.262 0-.883-.713-1.599-1.594-1.599-.881 0-1.594.716-1.594 1.6 0 3.89-5.937 11.773-17.293 12.97a1.596 1.596 0 0 0-1.417 1.757c.094.88.878 1.525 1.752 1.421h-.004ZM71.47 136.808c.636-1.163.757-2.568.355-4.207l-3.446-13.626c-.51-2.177-1.246-3.743-2.214-4.704-.967-.957-2.414-1.337-4.346-1.132a8.364 8.364 0 0 0-2.954.887c-.948.484-1.98.958-3.091 1.421-1.112.464-2.415.776-3.908.934l-31.218 3.293c-1.604.168-2.95.138-4.045-.094a40.528 40.528 0 0 1-3.088-.773 7.682 7.682 0 0 0-2.98-.262c-1.896.198-3.325.881-4.29 2.043-.968 1.163-1.741 2.89-2.324 5.182L.646 140.107c-.435 1.731-.348 3.108.274 4.14.62 1.031 1.621 1.64 3.008 1.821 1.239.124 2.34-.111 3.308-.706.965-.594 1.775-1.713 2.435-3.356 1.31-3.209 2.495-5.723 3.553-7.534 1.058-1.811 2.177-3.071 3.362-3.783 1.186-.709 2.652-1.16 4.4-1.341l5.248-.554v52.33c0 1.243-.244 2.238-.737 2.984-.492.746-1.249 1.378-2.267 1.885l-2.515 1.142c-2.113 1.21-3.171 2.914-3.171 5.108 0 1.425.419 2.496 1.256 3.212.837.716 2.096.985 3.774.81l27.169-2.866c3.426-.363 5.137-2.043 5.137-5.04 0-2.232-1.038-3.73-3.114-4.5l-2.626-.601c-.984-.299-1.741-.766-2.27-1.408-.53-.638-.794-1.579-.794-2.823v-52.33l5.304-.558c1.712-.181 3.178-.033 4.4.44 1.223.474 2.362 1.499 3.416 3.068 1.059 1.573 2.224 3.824 3.5 6.761.656 1.505 1.477 2.449 2.461 2.839.985.39 2.077.393 3.282.01 1.383-.474 2.395-1.294 3.034-2.46l-.003.011ZM122.785 146.481c-2.314-3.813-5.559-6.646-9.731-8.491-4.173-1.844-9.066-2.473-14.678-1.881-5.653.594-10.626 2.291-14.926 5.084-4.3 2.795-7.645 6.31-10.033 10.547-2.388 4.237-3.58 8.824-3.58 13.763 0 5.302 1.159 9.879 3.473 13.733 2.314 3.851 5.566 6.69 9.758 8.514 4.19 1.825 9.072 2.443 14.651 1.855 5.65-.594 10.616-2.288 14.899-5.08 4.283-2.793 7.625-6.317 10.033-10.575 2.408-4.257 3.61-8.89 3.61-13.9s-1.158-9.751-3.472-13.569h-.004Zm-14.54 23.011c-.164 2.778-.767 5.043-1.805 6.8-1.038 1.758-2.378 2.937-4.019 3.552-1.785.555-3.526.427-5.22-.383-1.695-.81-3.246-2.345-4.649-4.61s-2.599-5.302-3.58-9.113c-.803-3.756-1.132-7.012-.984-9.768.144-2.758.757-5.006 1.832-6.75 1.075-1.741 2.434-2.896 4.072-3.474 1.714-.585 3.425-.461 5.14.362 1.711.827 3.279 2.379 4.702 4.661 1.42 2.281 2.568 5.353 3.442 9.21.874 3.565 1.229 6.737 1.069 9.516v-.003ZM235.355 147.365c1.513-1.603 2.27-3.74 2.27-6.411 0-3.622-.931-6.814-2.789-9.58-1.859-2.765-4.491-4.838-7.9-6.216-3.409-1.378-7.481-1.818-12.217-1.317-5.796.611-10.743 2.332-14.842 5.158-4.099 2.829-7.236 6.414-9.403 10.755-2.17 4.342-3.255 9.13-3.255 14.358s1.112 9.637 3.335 13.333c2.224 3.696 5.348 6.421 9.377 8.172 4.025 1.751 8.754 2.339 14.186 1.767 4.735-.5 8.837-1.764 12.3-3.793 3.462-2.03 6.158-4.462 8.09-7.298 1.933-2.836 2.971-5.743 3.118-8.72 0-1.021-.217-1.751-.656-2.181-.439-.43-.948-.615-1.531-.551-.512.054-1.011.235-1.503.541-.492.309-1.139.871-1.943 1.687-1.419 1.794-3.251 3.343-5.492 4.637a18.205 18.205 0 0 1-7.297 2.359c-4.775.504-8.63-.652-11.563-3.471-1.912-1.838-3.192-4.425-3.855-7.739l25.096-2.647c2.807-.296 4.967-1.244 6.477-2.85l-.003.007Zm-19.052-1.912-13.06 1.378c.01-2.803.415-5.208 1.226-7.204.817-2.023 1.902-3.592 3.251-4.705 1.35-1.108 2.88-1.757 4.592-1.938 2.079-.219 3.827.4 5.247 1.861 1.42 1.458 2.133 3.78 2.133 6.962 0 2.194-1.132 3.411-3.389 3.649v-.003ZM270.427 128.169c3.061-.323 5.274-1.086 6.641-2.292 1.366-1.206 2.049-2.574 2.049-4.11 0-1.132-.348-1.948-1.038-2.442-.693-.494-1.658-.676-2.897-.545l-11.533 1.217v-9.16c0-1.499-.355-2.587-1.068-3.263-.71-.672-1.705-.944-2.981-.809-1.021.107-2.049.601-3.088 1.478-1.038.877-1.995 1.949-2.869 3.209l-3.775 6.65c-.837 1.293-1.577 2.231-2.213 2.812-.64.581-1.303.904-1.996.978l-2.187.232c-1.276.134-2.287.608-3.034 1.418-.747.809-1.118 1.78-1.118 2.916 0 .951.191 1.707.572 2.272.382.561.995 1.018 1.832 1.371l1.641.319c.911.269 1.567.695 1.966 1.273.402.582.603 1.546.603 2.9v23.531c0 5.376 1.386 9.217 4.155 11.522 2.77 2.305 6.758 3.182 11.972 2.631 3.135-.329 5.968-1.28 8.503-2.843 2.532-1.566 4.565-3.461 6.095-5.688 1.53-2.228 2.297-4.513 2.297-6.852.037-1.135-.144-1.942-.546-2.409-.401-.47-.894-.692-1.476-.669-.546-.016-1.096.225-1.641.723a27.56 27.56 0 0 0-1.668 1.656 9.295 9.295 0 0 1-1.993 1.61c-.766.464-1.661.752-2.679.857-1.714.181-3.027-.249-3.938-1.287-.911-1.035-1.366-2.672-1.366-4.903v-23.588l6.778-.715ZM340.207 153.037c-.201-.618-.412-1.72-.629-3.306l-2.679-23.306c-.402-4.711-1.775-8.333-4.129-10.867-2.351-2.53-5.713-3.565-10.087-3.105-2.917.306-6.041 1.543-9.373 3.703-2.636 1.707-5.599 4.224-8.885 7.52V88.707c0-1.243-.328-2.224-.984-2.94-.657-.715-1.547-1.014-2.679-.897a11.76 11.76 0 0 0-3.007.73c-.985.379-2.281.964-3.882 1.753l-9.674 4.698c-1.313.615-2.251 1.297-2.817 2.053a4.153 4.153 0 0 0-.847 2.557c0 .806.201 1.458.599 1.965.402.508.985.9 1.752 1.187l1.694.094c.73.289 1.249.682 1.561 1.179.308.497.465 1.442.465 2.833v51.342c0 1.684-.147 2.85-.438 3.502a3.628 3.628 0 0 1-1.313 1.565l-1.149.669c-.84.565-1.446 1.176-1.832 1.838-.381.662-.572 1.431-.572 2.308 0 1.207.355 2.111 1.065 2.712.71.602 1.741.83 3.091.689l20.17-2.127c2.478-.262 3.717-1.673 3.717-4.23 0-1.425-.64-2.51-1.916-3.253l-1.313-.464c-.619-.265-1.058-.739-1.309-1.424-.258-.686-.385-1.909-.385-3.663v-22.247l.218-.212c1.604-1.559 3.071-2.685 4.4-3.37 1.329-.689 2.599-1.096 3.801-1.223 2.076-.219 3.607.262 4.591 1.434.985 1.176 1.641 3.102 1.966 5.773l2.133 18.262c.144 1.667.064 2.857-.244 3.566a3.578 3.578 0 0 1-1.447 1.659l-1.259.736c-1.276.978-1.912 2.194-1.912 3.659 0 2.561 1.239 3.71 3.717 3.448l20.394-2.151c1.35-.141 2.388-.588 3.114-1.344.73-.752 1.095-1.733 1.095-2.94 0-.877-.227-1.592-.683-2.15-.455-.555-1.048-1.049-1.775-1.485l-1.202-.367c-.546-.305-.921-.769-1.122-1.391v-.003ZM394.145 130.618c1.514-1.603 2.271-3.74 2.271-6.411 0-3.622-.931-6.814-2.79-9.58-1.858-2.765-4.491-4.838-7.9-6.216-3.409-1.378-7.481-1.815-12.22-1.317-5.796.611-10.742 2.332-14.841 5.158-4.099 2.829-7.237 6.414-9.404 10.755-2.17 4.345-3.252 9.13-3.252 14.358s1.112 9.637 3.336 13.333c2.223 3.696 5.348 6.421 9.373 8.172 4.029 1.751 8.757 2.339 14.189 1.767 4.735-.5 8.838-1.764 12.3-3.793 3.463-2.03 6.159-4.462 8.091-7.298 1.932-2.836 2.97-5.743 3.118-8.723 0-1.022-.218-1.751-.657-2.181-.435-.43-.947-.612-1.53-.551-.512.054-1.011.235-1.504.541-.492.309-1.138.87-1.942 1.687-1.42 1.794-3.252 3.343-5.492 4.637-2.24 1.297-4.675 2.083-7.297 2.362-4.776.504-8.63-.652-11.564-3.471-1.912-1.838-3.188-4.425-3.854-7.739l25.096-2.647c2.806-.296 4.966-1.244 6.477-2.85l-.004.007Zm-19.051-1.915-13.061 1.377c.011-2.802.416-5.208 1.226-7.204.821-2.023 1.906-3.592 3.252-4.704 1.349-1.112 2.88-1.757 4.591-1.939 2.08-.218 3.828.4 5.248 1.862 1.423 1.458 2.133 3.78 2.133 6.962 0 2.194-1.132 3.411-3.389 3.649v-.003ZM445.157 102.746c-1.896-1.939-4.484-2.735-7.763-2.389-2.953.312-5.612 1.461-7.983 3.447-2.368 1.986-4.257 4.839-5.656 8.552-.094.248-.178.514-.265.769l-.583-6.468c-.217-1.697-.592-2.846-1.118-3.447-.529-.602-1.266-.854-2.214-.753-.656.07-1.457.299-2.404.692-.948.393-2.097.917-3.446 1.569l-9.785 4.762c-1.35.692-2.314 1.387-2.897 2.09-.583.702-.874 1.545-.874 2.533 0 .807.211 1.452.629 1.936.419.487 1.028.887 1.832 1.206l1.638.101c.69.255 1.212.631 1.56 1.125.345.494.519 1.472.519 2.934v21.229c0 1.683-.157 2.849-.465 3.505a3.842 3.842 0 0 1-1.34 1.569l-1.202.675c-.73.554-1.303 1.163-1.721 1.828-.419.665-.63 1.438-.63 2.315 0 1.206.355 2.11 1.065 2.712.71.605 1.742.833 3.091.689l24.601-2.594c1.312-.138 2.35-.595 3.114-1.371.767-.777 1.149-1.748 1.149-2.92 0-.988-.282-1.828-.848-2.517-.566-.689-1.413-1.048-2.541-1.075l-3.775-.152c-1.021.034-1.768-.336-2.243-1.108-.472-.773-.71-1.909-.71-3.408v-15.853c0-2.597.264-4.754.794-6.475.529-1.72 1.222-3.037 2.076-3.948.857-.914 1.815-1.424 2.87-1.535.837-.088 1.493.08 1.965.504.473.426.71 1.132.71 2.12l-.053 2.144c.037 2.08.69 3.649 1.969 4.701 1.276 1.055 3.151 1.451 5.629 1.189 2.442-.259 4.411-1.351 5.904-3.283 1.494-1.932 2.244-4.798 2.244-8.602 0-4.059-.948-7.059-2.843-8.998Z"/><path fill="currentColor" d="M354.575 177.115c-51.799 32.16-111.549 4.852-168.284 5.961-.241-.447-.492-.887-.794-1.283-1.534-2.016-4.015-3.525-7.441-4.523-3.429-.998-7.93-1.542-13.509-1.633-4.343-.101-7.622-.235-9.832-.403-2.21-.165-3.707-.457-4.484-.877-.777-.417-1.166-.948-1.166-1.586 0-.481.198-.981.6-1.502.228-.299.542-.605.924-.921a48.767 48.767 0 0 0 6.279-.279c5.03-.531 9.447-1.848 13.258-3.948 3.808-2.103 6.778-4.791 8.911-8.071 2.13-3.279 3.198-6.966 3.198-11.061 0-3.545-.974-6.717-2.923-9.51-1.835-2.631-4.467-4.61-7.87-5.954.365-.652.724-1.226 1.065-1.663.837-1.075 1.752-1.667 2.733-1.771.84-.087 1.503.061 1.996.447a32.87 32.87 0 0 1 1.614 1.368 8.592 8.592 0 0 0 1.966 1.327c.73.363 1.694.48 2.9.353 1.932-.205 3.432-1.049 4.51-2.534 1.075-1.485 1.611-3.38 1.611-5.682 0-2.597-.757-4.492-2.267-5.685-1.514-1.193-3.493-1.66-5.934-1.405-3.061.323-5.894 1.61-8.499 3.858-2.606 2.248-4.782 5.588-6.534 10.013l-.027.064c-2.793-.437-5.93-.477-9.43-.108-5.502.582-10.267 1.942-14.296 4.086-4.025 2.144-7.106 4.882-9.239 8.216-2.134 3.333-3.198 7.103-3.198 11.306 0 3.73 1.018 6.932 3.06 9.607 2.04 2.675 5.037 4.617 8.992 5.827.774.238 1.594.43 2.435.598-2.217.541-4.113 1.203-5.667 1.992-2.729 1.388-4.671 2.964-5.83 4.721-1.159 1.761-1.735 3.542-1.735 5.343 0 1.959.576 3.679 1.735 5.154 1.078 1.378 3.001 2.473 5.747 3.296-4.555 1.22-7.706 2.961-9.99 4.859-2.95 2.45-4.424 5.393-4.424 8.834 0 2.439.955 4.466 2.87 6.085 1.912 1.616 4.92 2.692 9.025 3.216 4.103.527 9.384.45 15.84-.232 11.758-1.24 20.582-3.972 26.483-8.192 5.401-3.864 8.301-8.421 8.753-13.642 7.662.739 15.311 1.882 22.946 3.229 41.318 6.777 85.797 21.444 126.562 3.441 8.104-3.676 15.606-8.622 21.988-14.61a3.88 3.88 0 0 0 .687-4.788 3.848 3.848 0 0 0-5.318-1.341l.003.003Zm-205.958-34.041c.438-1.69 1.185-3.061 2.243-4.103 1.059-1.045 2.331-1.7 3.828-1.965 2.626-.35 4.782.712 6.48 3.185 1.695 2.473 2.723 6.031 3.088 10.672.328 3.659-.074 6.555-1.203 8.682-1.131 2.131-2.863 3.374-5.194 3.73-1.677.252-3.171-.141-4.48-1.173-1.313-1.031-2.405-2.644-3.282-4.838-.874-2.194-1.477-4.919-1.802-8.175-.217-2.319-.11-4.322.328-6.015h-.006Zm20.923 56.386c-.897.934-2.381 1.741-4.454 2.42-2.073.678-4.923 1.209-8.546 1.589-6.376.672-10.699.457-12.97-.642-2.27-1.102-3.416-2.712-3.409-4.828.007-2.927 2.642-6.338 12.635-6.133l.459.014c4.661.027 8.268.198 10.82.507 2.552.309 4.323.793 5.321 1.448.995.656 1.494 1.522 1.494 2.601s-.449 2.087-1.347 3.021l-.003.003Z"/></svg>