<svg xmlns="http://www.w3.org/2000/svg" width="24" height="24" fill="none"><path fill="currentColor" d="M4.5 15.308V6c0-.768.208-1.382.625-1.843.417-.461.973-.813 1.668-1.056.696-.243 1.495-.404 2.4-.483C10.095 2.54 11.031 2.5 12 2.5c1.036 0 2.01.04 2.92.118.911.08 1.707.24 2.387.482.68.241 1.216.593 1.607 1.055.39.462.586 1.077.586 1.845v9.308c0 .893-.309 1.649-.926 2.266s-1.373.926-2.266.926l.846.846c.22.22.27.466.155.741-.116.276-.328.413-.637.413a.712.712 0 0 1-.26-.048.627.627 0 0 1-.22-.144L14.385 18.5h-4.77l-1.807 1.808a.635.635 0 0 1-.223.144.727.727 0 0 1-.262.048.634.634 0 0 1-.626-.413c-.12-.274-.07-.522.15-.74l.845-.847c-.893 0-1.649-.309-2.266-.926S4.5 16.201 4.5 15.308ZM6 10.5h5.25V6.77H6v3.73Zm6.75 0H18V6.77h-5.25v3.73Zm-4.252 5.308c.377 0 .69-.124.938-.37.248-.247.372-.559.372-.936s-.124-.69-.37-.938a1.264 1.264 0 0 0-.936-.372c-.377 0-.69.124-.938.37a1.264 1.264 0 0 0-.372.936c0 .377.124.69.37.938.247.248.559.372.936.372Zm7 0c.377 0 .69-.124.938-.37.248-.247.372-.559.372-.936s-.124-.69-.37-.938a1.264 1.264 0 0 0-.936-.372c-.377 0-.69.124-.938.37a1.264 1.264 0 0 0-.372.936c0 .377.124.69.37.938.247.248.559.372.936.372Z"/></svg>