<svg xmlns="http://www.w3.org/2000/svg" fill="none" viewBox="0 0 24 24"><path fill="currentColor" d="m11.25 7.37-5.17 5.17a.7.7 0 0 1-.52.22.74.74 0 0 1-.53-.23.78.78 0 0 1-.23-.53c0-.2.07-.37.23-.53l6.34-6.34a.83.83 0 0 1 .63-.25c.12 0 .23.02.34.05.1.04.2.1.3.2l6.33 6.34c.14.14.21.31.22.52 0 .2-.07.38-.22.54a.74.74 0 0 1-.53.23.74.74 0 0 1-.54-.23l-5.15-5.16v11.38c0 .21-.07.4-.22.53a.73.73 0 0 1-.53.22.73.73 0 0 1-.53-.22.73.73 0 0 1-.22-.53V7.37Z"/><path fill="#000" fill-opacity=".2" d="m11.25 7.37-5.17 5.17a.7.7 0 0 1-.52.22.74.74 0 0 1-.53-.23.78.78 0 0 1-.23-.53c0-.2.07-.37.23-.53l6.34-6.34a.83.83 0 0 1 .63-.25c.12 0 .23.02.34.05.1.04.2.1.3.2l6.33 6.34c.14.14.21.31.22.52 0 .2-.07.38-.22.54a.74.74 0 0 1-.53.23.74.74 0 0 1-.54-.23l-5.15-5.16v11.38c0 .21-.07.4-.22.53a.73.73 0 0 1-.53.22.73.73 0 0 1-.53-.22.73.73 0 0 1-.22-.53V7.37Z"/></svg>