<svg xmlns="http://www.w3.org/2000/svg" width="24" height="24" fill="none"><path fill="currentColor" d="M8.75 14c-.35 0-.646-.12-.888-.363a1.207 1.207 0 0 1-.362-.887c0-.35.12-.646.362-.887.242-.242.538-.363.888-.363s.646.12.887.363c.242.241.363.537.363.887s-.12.646-.363.887A1.207 1.207 0 0 1 8.75 14Zm6 0c-.35 0-.646-.12-.887-.363a1.207 1.207 0 0 1-.363-.887c0-.35.12-.646.363-.887.241-.242.537-.363.887-.363s.646.12.887.363c.242.241.363.537.363.887s-.12.646-.363.887a1.207 1.207 0 0 1-.887.363Zm-3 5.75c2.233 0 4.125-.775 5.675-2.325 1.55-1.55 2.325-3.442 2.325-5.675 0-.4-.025-.787-.075-1.162A4.844 4.844 0 0 0 19.4 9.5c-.35.083-.7.146-1.05.187a9.31 9.31 0 0 1-1.1.063 9.787 9.787 0 0 1-4.3-.975A9.983 9.983 0 0 1 9.5 6.05a9.86 9.86 0 0 1-2.288 3.387A9.77 9.77 0 0 1 3.75 11.6v.15c0 2.233.775 4.125 2.325 5.675 1.55 1.55 3.442 2.325 5.675 2.325Zm.002 1.5a9.255 9.255 0 0 1-3.705-.748 9.598 9.598 0 0 1-3.018-2.03A9.591 9.591 0 0 1 3 15.456a9.245 9.245 0 0 1-.749-3.704c0-1.314.25-2.55.748-3.705a9.597 9.597 0 0 1 2.03-3.018A9.592 9.592 0 0 1 8.044 3a9.245 9.245 0 0 1 3.704-.749c1.314 0 2.55.25 3.705.748a9.597 9.597 0 0 1 3.018 2.03 9.592 9.592 0 0 1 2.03 3.016 9.245 9.245 0 0 1 .749 3.704c0 1.314-.25 2.55-.748 3.705a9.598 9.598 0 0 1-2.03 3.018 9.592 9.592 0 0 1-3.016 2.03 9.245 9.245 0 0 1-3.704.749Z"/></svg>