<svg xmlns="http://www.w3.org/2000/svg" width="14" height="14" fill="none"><path fill="currentColor" d="M6.965 11.2a.845.845 0 0 0 .621-.254.845.845 0 0 0 .254-.621.845.845 0 0 0-.254-.621.845.845 0 0 0-.621-.254.845.845 0 0 0-.621.254.845.845 0 0 0-.254.621c0 .245.085.452.254.621.169.17.376.254.621.254ZM7 14a6.816 6.816 0 0 1-2.73-.551 7.069 7.069 0 0 1-2.222-1.496A7.069 7.069 0 0 1 .55 9.73 6.816 6.816 0 0 1 0 7c0-.968.184-1.878.551-2.73a7.069 7.069 0 0 1 1.496-2.222A7.069 7.069 0 0 1 4.27.55 6.816 6.816 0 0 1 7 0c.968 0 1.878.184 2.73.551a7.069 7.069 0 0 1 2.223 1.496c.63.63 1.128 1.371 1.496 2.223.367.852.551 1.762.551 2.73s-.184 1.878-.551 2.73a7.068 7.068 0 0 1-1.496 2.223 7.068 7.068 0 0 1-2.223 1.496A6.816 6.816 0 0 1 7 14Zm.07-10.01c.292 0 .545.093.761.28.216.187.324.42.324.7 0 .257-.079.484-.236.683a4.378 4.378 0 0 1-.534.56c-.268.233-.505.49-.709.77-.204.28-.306.595-.306.945 0 .163.061.3.184.41.122.112.265.167.428.167a.623.623 0 0 0 .447-.175.806.806 0 0 0 .236-.438c.047-.245.152-.463.315-.656.163-.192.338-.376.525-.551.268-.257.499-.537.691-.84.193-.303.289-.642.289-1.015 0-.595-.242-1.082-.726-1.461A2.66 2.66 0 0 0 7.07 2.8a2.98 2.98 0 0 0-1.269.28 1.957 1.957 0 0 0-.918.857.631.631 0 0 0-.08.447c.03.157.109.277.237.358a.697.697 0 0 0 .945-.21c.128-.175.289-.309.481-.402.193-.093.394-.14.604-.14Z"/></svg>