<svg xmlns="http://www.w3.org/2000/svg" fill="none" viewBox="0 0 16 16"><path fill="currentColor" d="M6.67 2a.65.65 0 0 1-.48-.2.65.65 0 0 1-.19-.47c0-.19.06-.34.2-.47.12-.13.28-.2.47-.2h2.66c.2 0 .35.07.48.2s.19.28.19.47c0 .2-.06.35-.2.48a.65.65 0 0 1-.47.19H6.67ZM8 9.33c.19 0 .35-.06.47-.19.13-.13.2-.28.2-.47V6a.65.65 0 0 0-.2-.47.65.65 0 0 0-.47-.2.65.65 0 0 0-.47.2.65.65 0 0 0-.2.47v2.67c0 .19.07.34.2.47.12.13.28.2.47.2Zm0 5.34a6.13 6.13 0 0 1-5.53-3.68A5.76 5.76 0 0 1 2 8.67a6.13 6.13 0 0 1 3.67-5.53 5.95 5.95 0 0 1 6.1.83l.46-.47a.63.63 0 0 1 .47-.18c.19 0 .34.06.47.18.12.12.18.28.18.47 0 .19-.06.34-.18.46l-.47.47a5.95 5.95 0 0 1-.47 8A6.13 6.13 0 0 1 8 14.67Z"/></svg>